<svg width="50000" height="50000" viewBox="0 0 2500 2500" fill="none" xmlns="http://www.w3.org/2000/svg">
<path d="M21.1198 11.8386C16.2659 9.03631 8.42219 9.03631 3.59977 11.8386C-1.22266 14.641 -1.19601 19.1842 3.65678 21.9865C8.50958 24.7888 16.3544 24.7894 21.1768 21.9865C25.9992 19.1836 25.9763 14.6404 21.1198 11.8386Z" fill="#F5F5F5"/>
<path d="M11.2847 22.3547L12.3052 23.3277L15.1539 22.3286L14.1334 21.3556L11.2847 22.3547Z" fill="#E0E0E0"/>
<path d="M6.18682 18.9161L6.60246 19.1559L7.98524 18.3524L5.61932 16.9861L4.23601 17.7902L4.84294 18.1403L3.88165 18.281L4.70919 20.154L6.61045 19.8758L6.18682 18.9161Z" fill="#E0E0E0"/>
<path d="M18.6665 17.1449L21.3713 16.0195L20.2214 15.0955L18.0654 15.995L18.0228 15.4978L18.1011 15.5159L18.836 14.4603L16.1029 13.8209L18.083 12.6774L16.6976 11.8733L14.3317 13.2395L15.5802 13.9648L15.0068 14.7891L16.0688 15.0358L14.6903 15.0726L15.3004 13.8571L13.4162 13.5374L14.2464 14.6474L13.4162 13.5374L12.8189 14.7268L9.58277 14.8131L9.66376 15.7621L8.81811 15.5623L8.08062 16.6147L10.4284 17.1705L7.81739 17.309L8.00229 18.4408L11.0785 18.281L11.11 18.3588L9.3515 18.5415L9.55932 19.2002L7.89092 19.7474L8.00442 19.863L7.53923 19.7037L5.8783 21.3769L7.58346 21.9455L8.82504 20.6932L9.54493 21.4265L11.1302 20.9064L10.9981 21.0396L12.7032 21.6082L13.8659 20.4359L14.0258 20.5281L16.2105 19.2657L17.8432 18.6891L16.6842 17.5936L16.712 17.6042L17.8075 16.6632L16.5287 16.1612L17.7361 16.1287L17.5198 16.2188L18.6665 17.1449ZM7.89306 20.8973L7.62076 19.9872L7.89306 20.8973ZM14.3706 15.7115L14.6546 15.1461L14.7153 15.8602L14.4574 16.0818L13.7961 15.614L14.3706 15.7115ZM13.0107 15.8596L12.9782 15.4744L13.6102 15.5809L11.8133 16.4335L11.9103 16.295L10.3725 15.931L13.0107 15.8596ZM12.7443 19.6616L12.7405 19.6478L12.7443 19.6616ZM13.0357 19.4932L12.6547 19.3664L11.8608 20.1657L11.5283 19.1128L14.3444 18.7355L13.0357 19.4932ZM10.7497 20.3575L11.7803 20.251L11.2096 20.8265L10.7497 20.3575ZM13.0128 20.5579L12.789 19.8119L13.0128 20.5579ZM14.6237 18.5767L14.2229 17.5861L11.2778 17.9799L11.1744 17.3463L11.4291 16.9829L12.3617 17.6469L14.3759 16.693L15.6548 17.195L14.4201 17.6309L15.489 18.6433L14.9999 18.3593L14.6237 18.5767Z" fill="#E0E0E0"/>
<path d="M14.9183 21.9316L16.843 22.157L17.4942 20.2638L15.5695 20.0378L14.9183 21.9316Z" fill="#E0E0E0"/>
<path d="M17.3519 18.0241C18.3111 17.4705 19.8596 17.4705 20.8118 18.0241C21.764 18.5778 21.7587 19.4746 20.8006 20.0277C19.8425 20.5808 18.293 20.5814 17.3407 20.0277C16.3885 19.4741 16.3938 18.5772 17.3519 18.0241Z" fill="#E0E0E0"/>
<path d="M13.1551 13.2774L7.48593 16.5747C7.41905 16.6135 7.34314 16.6339 7.26585 16.6339C7.18857 16.6339 7.11266 16.6135 7.04578 16.5747L4.15233 14.9037C4.13562 14.894 4.12174 14.8802 4.11208 14.8635C4.10243 14.8468 4.09735 14.8278 4.09735 14.8086C4.09735 14.7893 4.10243 14.7703 4.11208 14.7536C4.12174 14.7369 4.13562 14.7231 4.15233 14.7134L9.82147 11.4177C9.88834 11.3789 9.96426 11.3585 10.0415 11.3585C10.1188 11.3585 10.1947 11.3789 10.2616 11.4177L13.1551 13.0887C13.1714 13.0985 13.1849 13.1123 13.1943 13.1288C13.2037 13.1453 13.2087 13.164 13.2087 13.183C13.2087 13.2021 13.2037 13.2208 13.1943 13.2373C13.1849 13.2538 13.1714 13.2676 13.1551 13.2774V13.2774Z" fill="#E0E0E0"/>
<path d="M7.26856 15.2916L7.26483 16.498L12.9851 13.1735L12.9889 11.9671L7.26856 15.2916Z" fill="#6FC3A4"/>
<path d="M6.28385 13.5859L4.2888 12.4349L4.28241 14.7763L7.26325 16.498L7.26698 15.2916L6.28385 13.5859Z" fill="#6FC3A4"/>
<path opacity="0.3" d="M6.28385 13.5859L4.2888 12.4349L4.28241 14.7763L7.26325 16.498L7.26698 15.2916L6.28385 13.5859Z" fill="black"/>
<path d="M7.26855 15.2916L12.9888 11.9671L12.0046 10.2619L6.28381 13.5859L7.26855 15.2916Z" fill="#6FC3A4"/>
<path opacity="0.1" d="M7.26855 15.2916L12.9888 11.9671L12.0046 10.2619L6.28381 13.5859L7.26855 15.2916Z" fill="black"/>
<g opacity="0.5">
<path opacity="0.5" d="M11.9806 11.05L12.3158 11.7555C12.3212 11.7649 12.3229 11.776 12.3206 11.7866C12.3184 11.7972 12.3123 11.8066 12.3035 11.8131L11.3593 12.3582C11.3547 12.3603 11.3496 12.3615 11.3445 12.3615C11.3394 12.3616 11.3343 12.3606 11.3296 12.3586C11.3248 12.3566 11.3206 12.3536 11.3171 12.3499C11.3136 12.3461 11.3109 12.3417 11.3092 12.3369L10.9757 11.634C10.9757 11.6287 10.9725 11.625 10.9714 11.6218C10.971 11.617 10.971 11.6122 10.9714 11.6074C10.972 11.6032 10.9729 11.5991 10.9741 11.5951C10.9756 11.5915 10.9776 11.5882 10.9799 11.585C10.9824 11.5816 10.9854 11.5787 10.989 11.5765L11.9337 11.0313C11.9365 11.0297 11.9396 11.0286 11.9428 11.0282C11.9466 11.0271 11.9507 11.0271 11.9545 11.0282C11.958 11.0286 11.9612 11.0299 11.9641 11.0319C11.9681 11.0339 11.9717 11.0366 11.9748 11.0399C11.977 11.0431 11.979 11.0465 11.9806 11.05V11.05ZM12.2353 11.7523L11.962 11.172L11.759 11.829C11.7565 11.8375 11.751 11.8447 11.7435 11.8493C11.7401 11.8513 11.7363 11.8526 11.7323 11.8531C11.7284 11.8535 11.7244 11.8532 11.7206 11.852L11.0758 11.6788L11.3529 12.2649L12.2353 11.7555V11.7523ZM11.8837 11.163L11.1169 11.6058L11.6982 11.7656L11.8837 11.1651" fill="white"/>
</g>
<path d="M12.0041 10.2619L10.0107 9.11092L4.29041 12.4349L6.28385 13.5859L12.0041 10.2619Z" fill="#6FC3A4"/>
<path opacity="0.2" d="M12.0041 10.2619L10.0107 9.11092L4.29041 12.4349L6.28385 13.5859L12.0041 10.2619Z" fill="black"/>
<path opacity="0.2" d="M10.0107 9.11092L4.29041 12.4349L5.51013 13.1394L11.2304 9.81483L10.0107 9.11092Z" fill="black"/>
<path d="M8.65396 12.5894L6.73352 13.7058L7.38841 14.8408L9.30939 13.7244L8.65396 12.5894Z" fill="#455A64"/>
<g opacity="0.5">
<path opacity="0.5" d="M8.22237 13.7218L8.1435 13.7671L7.98364 13.483L8.10194 13.4143L8.22237 13.7218Z" fill="white"/>
<path opacity="0.5" d="M8.20108 13.7815C8.20917 13.7768 8.21819 13.7739 8.2275 13.7732C8.23681 13.7724 8.24618 13.7737 8.25494 13.7769C8.2637 13.7802 8.27163 13.7853 8.27816 13.792C8.2847 13.7987 8.28967 13.8067 8.29273 13.8156C8.30294 13.8333 8.30591 13.8542 8.30105 13.8741C8.29619 13.8939 8.28386 13.9111 8.26662 13.9221C8.25833 13.9267 8.24914 13.9294 8.23969 13.9301C8.23024 13.9308 8.22076 13.9294 8.21189 13.926C8.20303 13.9227 8.195 13.9175 8.18835 13.9107C8.1817 13.904 8.17659 13.8959 8.17337 13.887C8.16323 13.8693 8.16045 13.8483 8.16564 13.8285C8.17082 13.8088 8.18355 13.7919 8.20108 13.7815V13.7815Z" fill="white"/>
<path opacity="0.5" d="M8.57992 13.6371C8.60228 13.6553 8.62032 13.6783 8.63275 13.7044C8.64519 13.7305 8.65171 13.759 8.65186 13.7879C8.65361 13.8144 8.64827 13.8409 8.63638 13.8647C8.62448 13.8885 8.60647 13.9087 8.58418 13.9232L8.08755 14.2099C8.0655 14.222 8.04021 14.227 8.0152 14.2241C7.99019 14.2213 7.96669 14.2107 7.94794 14.1939C7.92569 14.1756 7.90775 14.1525 7.8954 14.1265C7.88306 14.1004 7.87662 14.0719 7.87654 14.0431L7.86642 13.3557C7.86449 13.3291 7.86976 13.3026 7.88167 13.2787C7.89358 13.2549 7.91169 13.2347 7.93409 13.2204C7.95602 13.2082 7.98117 13.2032 8.00609 13.2059C8.031 13.2087 8.05444 13.2191 8.07317 13.2358L8.57992 13.6371ZM8.59591 13.7815C8.59583 13.7641 8.59192 13.747 8.58446 13.7313C8.577 13.7157 8.56617 13.7019 8.55275 13.6909L8.04652 13.2902C8.03524 13.2802 8.02117 13.2739 8.0062 13.2722C7.99124 13.2705 7.97611 13.2734 7.96286 13.2806C7.9493 13.2892 7.93833 13.3013 7.9311 13.3157C7.92388 13.33 7.92067 13.3461 7.92183 13.3621L7.93196 14.0495C7.93215 14.0668 7.9361 14.0839 7.94356 14.0995C7.95101 14.1152 7.96178 14.129 7.97512 14.1401C7.9864 14.15 8.00048 14.1563 8.01544 14.158C8.0304 14.1597 8.04553 14.1568 8.05878 14.1497L8.55541 13.863C8.56875 13.8542 8.57953 13.842 8.58664 13.8277C8.59376 13.8134 8.59695 13.7974 8.59591 13.7815" fill="white"/>
</g>
<path d="M9.45808 13.6376L8.80319 12.5031L8.65399 12.5895L9.30941 13.7245L9.45808 13.6376Z" fill="#6FC3A4"/>
<path opacity="0.3" d="M9.45808 13.6376L8.80319 12.5031L8.65399 12.5895L9.30941 13.7245L9.45808 13.6376Z" fill="black"/>
<path opacity="0.1" d="M7.38841 14.8408L9.30939 13.7245L9.24864 13.6232L7.49019 14.6453L6.88645 13.6168L6.73352 13.7058L7.38841 14.8408Z" fill="black"/>
<path d="M12.7266 12.7301L12.5258 12.8457L12.7277 12.9624L12.7266 12.7301Z" fill="#455A64"/>
<path d="M12.5257 12.8458L7.55145 15.7163L7.55199 15.9486L12.7277 12.9625L12.5257 12.8458Z" fill="#37474F"/>
<path d="M5.42697 4.09665C5.42697 4.10252 5.42697 4.10838 5.4307 4.11371C5.4307 4.1201 5.43443 4.12703 5.43656 4.13342C5.43855 4.13906 5.44086 4.14457 5.44349 4.14994V4.14994L5.45362 4.17126L5.46267 4.18618C5.46765 4.19399 5.47298 4.20198 5.47866 4.21015L5.48825 4.22241L5.49731 4.2336L5.50157 4.2384C5.50797 4.24532 5.5149 4.25172 5.52182 4.25865L5.53141 4.2677C5.53781 4.27357 5.54527 4.27943 5.55273 4.28529L5.56498 4.29488L5.57244 4.30127L5.59749 4.31779C5.60602 4.32366 5.61454 4.32952 5.62413 4.33485L6.26837 4.70785L8.62842 3.34532L7.98419 2.97231C7.7119 2.81245 7.26962 2.81245 6.99519 2.97231L5.62893 3.76681C5.48239 3.85154 5.41578 3.9645 5.42431 4.07534C5.42464 4.0825 5.42553 4.08963 5.42697 4.09665V4.09665Z" fill="#455A64"/>
<path opacity="0.5" d="M5.42697 4.09665C5.42697 4.10252 5.42697 4.10838 5.4307 4.11371C5.4307 4.1201 5.43443 4.12703 5.43656 4.13342C5.43855 4.13906 5.44086 4.14457 5.44349 4.14994V4.14994L5.45362 4.17126L5.46267 4.18618C5.46765 4.19399 5.47298 4.20198 5.47866 4.21015L5.48825 4.22241L5.49731 4.2336L5.50157 4.2384C5.50797 4.24532 5.5149 4.25172 5.52182 4.25865L5.53141 4.2677C5.53781 4.27357 5.54527 4.27943 5.55273 4.28529L5.56498 4.29488L5.57244 4.30127L5.59749 4.31779C5.60602 4.32366 5.61454 4.32952 5.62413 4.33485L6.26837 4.70785L8.62842 3.34532L7.98419 2.97231C7.7119 2.81245 7.26962 2.81245 6.99519 2.97231L5.62893 3.76681C5.48239 3.85154 5.41578 3.9645 5.42431 4.07534C5.42464 4.0825 5.42553 4.08963 5.42697 4.09665V4.09665Z" fill="white"/>
<path d="M5.62572 4.33964C5.61666 4.33431 5.60813 4.32845 5.59961 4.32259L5.57456 4.30607L5.5671 4.29967L5.55538 4.29062C5.54792 4.28475 5.54046 4.27889 5.53406 4.27303L5.52447 4.26397C5.51751 4.25781 5.51092 4.25122 5.50476 4.24426V4.24426L5.50049 4.23946L5.49143 4.22827L5.48238 4.21655C5.47634 4.20838 5.47101 4.20038 5.46639 4.19257C5.46319 4.18777 5.46 4.18298 5.45733 4.17818L5.44721 4.15687C5.44721 4.15154 5.44241 4.14674 5.44028 4.14141C5.44028 4.13502 5.43655 4.12809 5.43442 4.1217C5.43442 4.11637 5.43175 4.11104 5.43069 4.10571C5.43017 4.09879 5.43017 4.09185 5.43069 4.08493V4.08493C5.43069 4.078 5.43069 4.07161 5.43069 4.06468L5.43708 6.26861V6.275C5.43682 6.27962 5.43682 6.28424 5.43708 6.28886C5.43656 6.29631 5.43656 6.30379 5.43708 6.31124V6.31497C5.43708 6.31976 5.44028 6.32403 5.44135 6.32882C5.44241 6.33362 5.44508 6.34321 5.44721 6.35014V6.3544C5.44894 6.35859 5.4509 6.36268 5.45307 6.36666C5.45627 6.37412 5.45946 6.38158 5.46319 6.3885V6.39383C5.46319 6.39756 5.46799 6.40076 5.47012 6.40396C5.47225 6.40715 5.48078 6.42047 5.48664 6.42847C5.48842 6.43083 5.49003 6.43332 5.49143 6.43593L5.50529 6.45191L5.51008 6.45724C5.51789 6.46611 5.52626 6.47448 5.53513 6.48229L5.53939 6.48602C5.54579 6.49188 5.55378 6.49774 5.56071 6.5036C5.56763 6.50946 5.5735 6.51426 5.58042 6.51905L5.60547 6.53611L5.62359 6.54783L5.63211 6.55316L6.27634 6.92616L6.26995 4.72277L5.62572 4.33964Z" fill="#37474F"/>
<path opacity="0.3" d="M5.62572 4.33964C5.61666 4.33431 5.60813 4.32845 5.59961 4.32259L5.57456 4.30607L5.5671 4.29967L5.55538 4.29062C5.54792 4.28475 5.54046 4.27889 5.53406 4.27303L5.52447 4.26397C5.51751 4.25781 5.51092 4.25122 5.50476 4.24426V4.24426L5.50049 4.23946L5.49143 4.22827L5.48238 4.21655C5.47634 4.20838 5.47101 4.20038 5.46639 4.19257C5.46319 4.18777 5.46 4.18298 5.45733 4.17818L5.44721 4.15687C5.44721 4.15154 5.44241 4.14674 5.44028 4.14141C5.44028 4.13502 5.43655 4.12809 5.43442 4.1217C5.43442 4.11637 5.43175 4.11104 5.43069 4.10571C5.43017 4.09879 5.43017 4.09185 5.43069 4.08493V4.08493C5.43069 4.078 5.43069 4.07161 5.43069 4.06468L5.43708 6.26861V6.275C5.43682 6.27962 5.43682 6.28424 5.43708 6.28886C5.43656 6.29631 5.43656 6.30379 5.43708 6.31124V6.31497C5.43708 6.31976 5.44028 6.32403 5.44135 6.32882C5.44241 6.33362 5.44508 6.34321 5.44721 6.35014V6.3544C5.44894 6.35859 5.4509 6.36268 5.45307 6.36666C5.45627 6.37412 5.45946 6.38158 5.46319 6.3885V6.39383C5.46319 6.39756 5.46799 6.40076 5.47012 6.40396C5.47225 6.40715 5.48078 6.42047 5.48664 6.42847C5.48842 6.43083 5.49003 6.43332 5.49143 6.43593L5.50529 6.45191L5.51008 6.45724C5.51789 6.46611 5.52626 6.47448 5.53513 6.48229L5.53939 6.48602C5.54579 6.49188 5.55378 6.49774 5.56071 6.5036C5.56763 6.50946 5.5735 6.51426 5.58042 6.51905L5.60547 6.53611L5.62359 6.54783L5.63211 6.55316L6.27634 6.92616L6.26995 4.72277L5.62572 4.33964Z" fill="white"/>
<path d="M8.63001 3.35172L6.26996 4.71425L6.27635 6.91764L8.63641 5.55564L8.63001 3.35172Z" fill="#263238"/>
<path d="M3.72233 13.2981L3.70794 6.84516C3.71323 6.74524 3.74205 6.64797 3.79205 6.5613C3.84206 6.47463 3.91183 6.40099 3.99569 6.3464L12.0153 1.72753C12.0444 1.70647 12.0785 1.69342 12.1142 1.68968C12.1499 1.68594 12.186 1.69164 12.2189 1.70622L11.9167 1.53144C11.8634 1.49787 11.7894 1.50053 11.7073 1.54849L3.68716 6.16789C3.60337 6.22243 3.53364 6.29598 3.48364 6.38256C3.43364 6.46913 3.40478 6.56629 3.39941 6.66612L3.4138 13.1175C3.41027 13.1517 3.41534 13.1862 3.42856 13.218C3.44177 13.2497 3.46271 13.2776 3.48947 13.2992V13.2992L3.50545 13.3083L3.80333 13.482C3.77508 13.461 3.75277 13.433 3.73857 13.4008C3.72437 13.3685 3.71878 13.3332 3.72233 13.2981V13.2981Z" fill="#6FC3A4"/>
<path opacity="0.3" d="M11.9183 1.53144C11.865 1.49787 11.791 1.50053 11.7089 1.54849L3.68717 6.16789C3.59246 6.22778 3.51626 6.31283 3.4671 6.41354L3.77563 6.59205C3.82479 6.49134 3.90099 6.40629 3.9957 6.3464L12.0153 1.72753C12.0444 1.70647 12.0785 1.69342 12.1142 1.68968C12.15 1.68594 12.186 1.69164 12.2189 1.70622L11.9183 1.53144Z" fill="white"/>
<path opacity="0.2" d="M3.39941 6.66614L3.4138 13.1175C3.41027 13.1517 3.41534 13.1863 3.42856 13.218C3.44177 13.2497 3.46271 13.2776 3.48947 13.2992V13.2992L3.50545 13.3083L3.80333 13.482C3.7747 13.4611 3.75203 13.4331 3.73754 13.4008C3.72306 13.3684 3.71726 13.3329 3.72073 13.2976L3.70634 6.84465C3.70849 6.7561 3.73169 6.66934 3.77402 6.59153L3.46549 6.41302C3.42394 6.49105 3.40131 6.57775 3.39941 6.66614V6.66614Z" fill="black"/>
<path d="M12.3068 1.8922C12.3103 1.85695 12.3045 1.8214 12.2899 1.78912C12.2753 1.75684 12.2524 1.72899 12.2236 1.70836V1.70836C12.1908 1.69378 12.1547 1.68808 12.119 1.69182C12.0833 1.69556 12.0492 1.70861 12.0201 1.72967L3.99569 6.34641C3.91183 6.401 3.84206 6.47464 3.79206 6.56131C3.74205 6.64798 3.71323 6.74525 3.70795 6.84517L3.72233 13.2982C3.71886 13.3334 3.72466 13.369 3.73914 13.4013C3.75363 13.4336 3.77631 13.4616 3.80493 13.4825H3.80972C3.84232 13.496 3.87782 13.501 3.91287 13.497C3.94792 13.493 3.98138 13.4801 4.01008 13.4596L12.0334 8.84394C12.1173 8.78947 12.187 8.71593 12.2371 8.62934C12.2871 8.54276 12.3159 8.44557 12.3212 8.34572L12.3068 1.8922ZM11.8906 8.59723L4.00688 13.1372L3.99303 6.84464C3.9982 6.79497 4.01378 6.74695 4.03875 6.7037C4.06373 6.66046 4.09753 6.62296 4.13797 6.59366L12.0244 2.05366L12.0382 8.34625C12.0327 8.39611 12.0166 8.44425 11.9912 8.4875C11.9658 8.53074 11.9315 8.56814 11.8906 8.59723V8.59723Z" fill="#6FC3A4"/>
<path d="M12.0222 2.05367L11.8181 2.1709L11.8315 8.24555C11.8262 8.29518 11.8105 8.34315 11.7856 8.38638C11.7606 8.42961 11.7269 8.46713 11.6865 8.49653L4.00635 12.9193V13.1367L11.8927 8.5967C11.9332 8.5674 11.9671 8.52992 11.9922 8.48668C12.0172 8.44344 12.0329 8.39542 12.0382 8.34573L12.0222 2.05367Z" fill="#6FC3A4"/>
<path opacity="0.3" d="M12.0222 2.05367L11.8181 2.1709L11.8315 8.24555C11.8262 8.29518 11.8105 8.34315 11.7856 8.38638C11.7606 8.42961 11.7269 8.46713 11.6865 8.49653L4.00635 12.9193V13.1367L11.8927 8.5967C11.9332 8.5674 11.9671 8.52992 11.9922 8.48668C12.0172 8.44344 12.0329 8.39542 12.0382 8.34573L12.0222 2.05367Z" fill="black"/>
<path d="M11.8315 8.2466L11.8182 2.17195L4.13798 6.59472C4.09755 6.62403 4.06374 6.66152 4.03877 6.70477C4.01379 6.74801 3.99821 6.79604 3.99304 6.8457L4.00636 12.9204L11.6865 8.49758C11.7269 8.46818 11.7606 8.43066 11.7856 8.38744C11.8105 8.34421 11.8262 8.29624 11.8315 8.2466V8.2466Z" fill="#455A64"/>
<g opacity="0.5">
<path opacity="0.5" d="M9.47563 8.61162L9.47616 8.84022L7.13689 10.1905L7.13635 9.9619L9.47563 8.61162Z" fill="white"/>
<path opacity="0.5" d="M7.36122 7.92317L7.50243 8.00363L7.17525 8.57007L7.50403 8.75764L7.36442 8.99956L7.03511 8.81252L6.70847 9.37842L6.56726 9.29849L6.89443 8.73206L6.56512 8.54449L6.70527 8.30204L7.03458 8.48907L7.36122 7.92317Z" fill="white"/>
<path opacity="0.5" d="M9.89553 6.45992L10.0362 6.54038L9.70956 7.10681L10.0383 7.29438L9.89819 7.53683L9.56941 7.34927L9.24277 7.91517L9.10156 7.83524L9.4282 7.26934L9.09943 7.08177L9.23957 6.83878L9.56835 7.02635L9.89553 6.45992Z" fill="white"/>
</g>
<path d="M5.41952 6.97679L5.42005 7.08816L4.98204 7.34127L4.98257 7.61516L5.37316 7.38976L5.37369 7.49847L4.9831 7.72387L4.98363 8.01321L5.43763 7.75104L5.43817 7.86135L4.87333 8.18746L4.87067 7.29385L5.41952 6.97679Z" fill="white"/>
<path d="M6.07437 7.19313L6.25981 7.38709L6.13885 7.4569L5.96939 7.27999C5.95447 7.28958 5.93796 7.3013 5.9209 7.31089L5.72747 7.42173V7.69349L5.61664 7.75743V6.86382L5.92037 6.68851C6.12233 6.57181 6.24542 6.61817 6.24595 6.81266C6.24427 6.88434 6.22822 6.95495 6.19875 7.0203C6.16928 7.08566 6.12698 7.14443 6.07437 7.19313ZM5.91771 7.20325C6.05945 7.12119 6.13405 7.0045 6.13405 6.87661C6.13405 6.74872 6.05838 6.71995 5.91611 6.80148L5.72747 6.91071V7.31249L5.91717 7.20325" fill="white"/>
<path d="M6.88326 6.72634L7.06817 6.9203L6.94721 6.98957L6.77882 6.81213C6.76284 6.82225 6.74632 6.83398 6.7298 6.84357L6.53797 6.9544V7.22563L6.42607 7.29011L6.4234 6.3965L6.72713 6.22118C6.93015 6.10395 7.05218 6.15085 7.05271 6.34534C7.05153 6.41698 7.03592 6.48764 7.0068 6.5531C6.97769 6.61857 6.93567 6.67749 6.88326 6.72634ZM6.72607 6.73646C6.86888 6.6544 6.94294 6.5377 6.94241 6.40982C6.94188 6.28193 6.86728 6.24996 6.725 6.33468L6.53637 6.44126V6.8425L6.725 6.73593" fill="white"/>
<path d="M7.58454 5.71657C7.82167 5.57962 7.99751 5.67287 7.99804 5.93557C7.99201 6.07633 7.95136 6.21342 7.8797 6.33471C7.80804 6.45601 7.70757 6.55776 7.5872 6.63096C7.34795 6.76951 7.1721 6.67466 7.17157 6.41302C7.17104 6.15138 7.34528 5.85458 7.58454 5.71657ZM7.5872 6.51586C7.67552 6.46066 7.74902 6.38471 7.80131 6.29463C7.85359 6.20455 7.88308 6.10306 7.88721 5.99898C7.88721 5.80023 7.75719 5.73255 7.58507 5.82953C7.49604 5.88458 7.42188 5.96064 7.36911 6.05104C7.31634 6.14144 7.28656 6.24342 7.28241 6.34801C7.28241 6.54624 7.41243 6.61444 7.5872 6.51586Z" fill="white"/>
<path d="M8.6263 5.7203L8.81227 5.9132L8.69024 5.98354L8.52186 5.80609C8.50694 5.81568 8.48935 5.82794 8.47337 5.837L8.281 5.94837V6.2196L8.17017 6.28354V5.39046L8.4739 5.21461C8.67585 5.09845 8.79895 5.14428 8.79948 5.3393C8.79752 5.41116 8.78118 5.48189 8.75144 5.54733C8.72169 5.61276 8.67914 5.67158 8.6263 5.7203V5.7203ZM8.46964 5.72989C8.61191 5.64783 8.68598 5.53114 8.68278 5.40378C8.67958 5.27643 8.60818 5.24392 8.46591 5.32811L8.27674 5.43735V5.83913L8.46591 5.73256" fill="white"/>
<path d="M6.82839 2.83323L6.60032 2.39681V2.39042L6.67493 1.89752C6.68143 1.85575 6.67507 1.81299 6.6567 1.77492C6.63834 1.73685 6.60882 1.70527 6.57208 1.68437L5.54419 1.09609C5.52136 1.08295 5.49425 1.07941 5.46882 1.08625C5.44339 1.0931 5.42172 1.10977 5.40857 1.13259C5.39543 1.15541 5.39189 1.18252 5.39874 1.20796C5.40558 1.23339 5.42225 1.25506 5.44507 1.2682L6.4735 1.85862L6.4783 1.86927L6.40423 2.36271C6.39759 2.40652 6.40506 2.45131 6.42555 2.49059L6.65361 2.92701V2.93554L6.32643 3.71885C6.31582 3.74434 6.31039 3.77169 6.31045 3.79931V3.94904C6.3101 3.95848 6.31261 3.9678 6.31765 3.97579C6.32269 3.98378 6.33002 3.99005 6.33869 3.9938C6.36058 4.00486 6.38477 4.01062 6.40929 4.01062C6.43382 4.01062 6.458 4.00486 6.4799 3.9938C6.48801 3.99021 6.495 3.98451 6.50016 3.97729C6.50531 3.97008 6.50844 3.96161 6.5092 3.95277V3.79291L6.83585 3.0096C6.84756 2.98144 6.85296 2.95106 6.85167 2.92059C6.85038 2.89012 6.84243 2.8603 6.82839 2.83323Z" fill="#6FC3A4"/>
<path d="M7.11294 2.33182V2.32489L7.23976 1.95668C7.25189 1.92138 7.25428 1.88346 7.24669 1.84691L7.06338 0.941041C7.05816 0.915108 7.04284 0.892314 7.0208 0.877674C6.99877 0.863034 6.97182 0.857747 6.94589 0.862976C6.91995 0.868205 6.89716 0.883522 6.88252 0.905557C6.86788 0.927591 6.86259 0.954539 6.86782 0.980472L7.05166 1.89274L6.92484 2.26148C6.90904 2.30686 6.90904 2.35624 6.92484 2.40162L7.05326 2.75011V2.75651L6.85397 3.40234C6.84805 3.42242 6.845 3.44322 6.84491 3.46415V3.60483C6.84572 3.61351 6.8488 3.62183 6.85386 3.62894C6.85891 3.63605 6.86575 3.64171 6.87368 3.64533C6.8955 3.65663 6.91972 3.66253 6.94429 3.66253C6.96886 3.66253 6.99308 3.65663 7.01489 3.64533C7.02366 3.64166 7.03111 3.63542 7.03624 3.62742C7.04138 3.61943 7.04397 3.61006 7.04367 3.60057V3.45989L7.24296 2.81406C7.25641 2.77027 7.2551 2.72328 7.23923 2.68031L7.11294 2.33182Z" fill="#455A64"/>
<path d="M8.9012 1.45206H8.55644C8.52208 1.45195 8.48822 1.46036 8.45791 1.47654C8.42759 1.49272 8.40176 1.51616 8.38273 1.54478L8.18983 1.83306L8.18344 1.83732L7.93086 1.897C7.89916 1.9045 7.86966 1.91929 7.84468 1.9402C7.81971 1.9611 7.79995 1.98755 7.78699 2.01743C7.76745 2.06332 7.76462 2.11461 7.77899 2.16237L7.80723 2.26894C7.80827 2.2715 7.80827 2.27437 7.80723 2.27693C7.8056 2.2791 7.80338 2.28077 7.80084 2.28173L7.72304 2.30091C7.68783 2.30966 7.6555 2.32743 7.62925 2.35247C7.60299 2.37751 7.58371 2.40896 7.57331 2.44372L7.33299 3.24674C7.32766 3.26654 7.32533 3.28701 7.32606 3.30749V3.43112C7.32666 3.43993 7.32966 3.44841 7.33473 3.45564C7.3398 3.46287 7.34675 3.46858 7.35483 3.47215C7.37673 3.4832 7.40091 3.48896 7.42544 3.48896C7.44996 3.48896 7.47415 3.4832 7.49604 3.47215C7.50517 3.46841 7.51285 3.46183 7.51793 3.45338C7.52302 3.44493 7.52525 3.43507 7.52428 3.42525V3.30429L7.76461 2.50127L7.77153 2.49434L7.84933 2.47516C7.88053 2.46706 7.90945 2.4519 7.93385 2.43083C7.95824 2.40976 7.97746 2.38336 7.99001 2.35366C8.00844 2.30787 8.01107 2.25724 7.99747 2.20979L7.96869 2.10322C7.96815 2.10196 7.96787 2.1006 7.96787 2.09922C7.96787 2.09785 7.96815 2.09649 7.96869 2.09523C7.96919 2.0939 7.97006 2.09275 7.97119 2.0919C7.97233 2.09105 7.97368 2.09054 7.97509 2.09043L8.23193 2.03395C8.28342 2.02152 8.32844 1.99037 8.35822 1.94656L8.55058 1.65828L8.55911 1.65348H8.90387C8.91753 1.65448 8.93125 1.65265 8.94418 1.64811C8.9571 1.64357 8.96895 1.63642 8.97899 1.62709C8.98902 1.61776 8.99703 1.60647 9.0025 1.59391C9.00797 1.58135 9.0108 1.5678 9.0108 1.5541C9.0108 1.5404 9.00797 1.52685 9.0025 1.51429C8.99703 1.50173 8.98902 1.49044 8.97899 1.48111C8.96895 1.47179 8.9571 1.46463 8.94418 1.46009C8.93125 1.45555 8.91753 1.45372 8.90387 1.45472L8.9012 1.45206Z" fill="#6FC3A4"/>
<g opacity="0.1">
<path opacity="0.1" d="M6.82839 2.83323L6.60032 2.39681V2.39042L6.67493 1.89752C6.68143 1.85575 6.67507 1.81299 6.6567 1.77492C6.63834 1.73685 6.60882 1.70527 6.57208 1.68437L5.54419 1.09609C5.52136 1.08295 5.49425 1.07941 5.46882 1.08625C5.44339 1.0931 5.42172 1.10977 5.40857 1.13259C5.39543 1.15541 5.39189 1.18252 5.39874 1.20796C5.40558 1.23339 5.42225 1.25506 5.44507 1.2682L6.4735 1.85862L6.4783 1.86927L6.40423 2.36271C6.39759 2.40652 6.40506 2.45131 6.42555 2.49059L6.65361 2.92701V2.93554L6.32643 3.71885C6.31582 3.74434 6.31039 3.77169 6.31045 3.79931V3.94904C6.3101 3.95848 6.31261 3.9678 6.31765 3.97579C6.32269 3.98378 6.33002 3.99005 6.33869 3.9938C6.36058 4.00486 6.38477 4.01062 6.40929 4.01062C6.43382 4.01062 6.458 4.00486 6.4799 3.9938C6.48801 3.99021 6.495 3.98451 6.50016 3.97729C6.50531 3.97008 6.50844 3.96161 6.5092 3.95277V3.79291L6.83585 3.0096C6.84756 2.98144 6.85296 2.95106 6.85167 2.92059C6.85038 2.89012 6.84243 2.8603 6.82839 2.83323Z" fill="white"/>
<path opacity="0.1" d="M7.11294 2.33182V2.32489L7.23976 1.95668C7.25189 1.92138 7.25428 1.88346 7.24669 1.84691L7.06338 0.941041C7.05816 0.915108 7.04284 0.892314 7.0208 0.877674C6.99877 0.863034 6.97182 0.857747 6.94589 0.862976C6.91995 0.868205 6.89716 0.883522 6.88252 0.905557C6.86788 0.927591 6.86259 0.954539 6.86782 0.980472L7.05166 1.89274L6.92484 2.26148C6.90904 2.30686 6.90904 2.35624 6.92484 2.40162L7.05326 2.75011V2.75651L6.85397 3.40234C6.84805 3.42242 6.845 3.44322 6.84491 3.46415V3.60483C6.84572 3.61351 6.8488 3.62183 6.85386 3.62894C6.85891 3.63605 6.86575 3.64171 6.87368 3.64533C6.8955 3.65663 6.91972 3.66253 6.94429 3.66253C6.96886 3.66253 6.99308 3.65663 7.01489 3.64533C7.02366 3.64166 7.03111 3.63542 7.03624 3.62742C7.04138 3.61943 7.04397 3.61006 7.04367 3.60057V3.45989L7.24296 2.81406C7.25641 2.77027 7.2551 2.72328 7.23923 2.68031L7.11294 2.33182Z" fill="white"/>
<path opacity="0.1" d="M8.9012 1.45206H8.55644C8.52208 1.45195 8.48822 1.46036 8.45791 1.47654C8.42759 1.49272 8.40176 1.51616 8.38273 1.54478L8.18983 1.83306L8.18344 1.83732L7.93086 1.897C7.89916 1.9045 7.86966 1.91929 7.84468 1.9402C7.81971 1.9611 7.79995 1.98755 7.78699 2.01743C7.76745 2.06332 7.76462 2.11461 7.77899 2.16237L7.80723 2.26894C7.80827 2.2715 7.80827 2.27437 7.80723 2.27693C7.8056 2.2791 7.80338 2.28077 7.80084 2.28173L7.72304 2.30091C7.68783 2.30966 7.6555 2.32743 7.62925 2.35247C7.60299 2.37751 7.58371 2.40896 7.57331 2.44372L7.33299 3.24674C7.32766 3.26654 7.32533 3.28701 7.32606 3.30749V3.43112C7.32666 3.43993 7.32966 3.44841 7.33473 3.45564C7.3398 3.46287 7.34675 3.46858 7.35483 3.47215C7.37673 3.4832 7.40091 3.48896 7.42544 3.48896C7.44996 3.48896 7.47415 3.4832 7.49604 3.47215C7.50517 3.46841 7.51285 3.46183 7.51793 3.45338C7.52302 3.44493 7.52525 3.43507 7.52428 3.42525V3.30429L7.76461 2.50127L7.77153 2.49434L7.84933 2.47516C7.88053 2.46706 7.90945 2.4519 7.93385 2.43083C7.95824 2.40976 7.97746 2.38336 7.99001 2.35366C8.00844 2.30787 8.01107 2.25724 7.99747 2.20979L7.96869 2.10322C7.96815 2.10196 7.96787 2.1006 7.96787 2.09922C7.96787 2.09785 7.96815 2.09649 7.96869 2.09523C7.96919 2.0939 7.97006 2.09275 7.97119 2.0919C7.97233 2.09105 7.97368 2.09054 7.97509 2.09043L8.23193 2.03395C8.28342 2.02152 8.32844 1.99037 8.35822 1.94656L8.55058 1.65828L8.55911 1.65348H8.90387C8.91753 1.65448 8.93125 1.65265 8.94418 1.64811C8.9571 1.64357 8.96895 1.63642 8.97899 1.62709C8.98902 1.61776 8.99703 1.60647 9.0025 1.59391C9.00797 1.58135 9.0108 1.5678 9.0108 1.5541C9.0108 1.5404 9.00797 1.52685 9.0025 1.51429C8.99703 1.50173 8.98902 1.49044 8.97899 1.48111C8.96895 1.47179 8.9571 1.46463 8.94418 1.46009C8.93125 1.45555 8.91753 1.45372 8.90387 1.45472L8.9012 1.45206Z" fill="white"/>
</g>
<path d="M3.72339 0.219009L4.29941 0.880827L4.6996 0.645301L5.16905 1.76378L4.62446 0.970881L4.1987 1.2565L3.72339 0.219009Z" fill="#6FC3A4"/>
<path d="M6.45915 0L6.19165 0.535529L6.45915 0.576559L6.23961 1.11848L6.69947 0.493965L6.33552 0.432153L6.45915 0Z" fill="#6FC3A4"/>
<path d="M8.80581 0.180099L8.69604 0.816872L8.4765 0.734278L8.36194 1.37958L8.54045 0.885079L8.7877 0.990586L8.80581 0.180099Z" fill="#6FC3A4"/>
<path d="M9.15808 1.31085L9.59983 0.923991V1.11742L9.91795 0.894684L9.49006 1.35455L9.50125 1.08279L9.15808 1.31085Z" fill="#6FC3A4"/>
<path d="M9.00085 1.8922L9.38718 2.26095L9.46018 2.05366L9.87635 2.37658L9.43887 1.82773L9.35947 2.10215L9.00085 1.8922Z" fill="#6FC3A4"/>
<path d="M5.93421 2.67871L5.347 2.89825L5.55428 3.05651L5.10028 3.31815L5.84149 3.11779L5.61929 2.93928L5.93421 2.67871Z" fill="#6FC3A4"/>
<g opacity="0.5">
<path opacity="0.5" d="M3.72339 0.219009L4.29941 0.880827L4.6996 0.645301L5.16905 1.76378L4.62446 0.970881L4.1987 1.2565L3.72339 0.219009Z" fill="white"/>
<path opacity="0.5" d="M6.45915 0L6.19165 0.535529L6.45915 0.576559L6.23961 1.11848L6.69947 0.493965L6.33552 0.432153L6.45915 0Z" fill="white"/>
<path opacity="0.5" d="M8.80581 0.180099L8.69604 0.816872L8.4765 0.734278L8.36194 1.37958L8.54045 0.885079L8.7877 0.990586L8.80581 0.180099Z" fill="white"/>
<path opacity="0.5" d="M9.15808 1.31085L9.59983 0.923991V1.11742L9.91795 0.894684L9.49006 1.35455L9.50125 1.08279L9.15808 1.31085Z" fill="white"/>
<path opacity="0.5" d="M9.00085 1.8922L9.38718 2.26095L9.46018 2.05366L9.87635 2.37658L9.43887 1.82773L9.35947 2.10215L9.00085 1.8922Z" fill="white"/>
<path opacity="0.5" d="M5.93421 2.67871L5.347 2.89825L5.55428 3.05651L5.10028 3.31815L5.84149 3.11779L5.61929 2.93928L5.93421 2.67871Z" fill="white"/>
</g>
<path d="M14.2209 17.4092L10.9741 17.8435L11.4217 18.9513L14.669 18.5165L14.2209 17.4092Z" fill="#6FC3A4"/>
<path opacity="0.2" d="M14.2209 17.4092L12.9612 18.3694L10.9741 17.8435L14.2209 17.4092Z" fill="white"/>
<path opacity="0.1" d="M14.2209 17.4092L14.669 18.5165L11.4217 18.9513L10.9741 17.8435L12.9612 18.3694L14.2209 17.4092Z" fill="white"/>
<path d="M15.7389 13.5571L15.0068 14.6106L18.1011 15.3369L18.8338 14.2834L15.7389 13.5571Z" fill="#6FC3A4"/>
<path opacity="0.3" d="M18.8338 14.2834L16.8468 14.6484L15.739 13.5571L18.8338 14.2834Z" fill="white"/>
<path opacity="0.1" d="M18.8338 14.2834L18.1011 15.3369L15.0068 14.6106L15.7389 13.5571L16.8468 14.6484L18.8338 14.2834Z" fill="white"/>
<path d="M8.71792 15.4035L7.98523 16.457L11.0796 17.1833L11.8123 16.1298L8.71792 15.4035Z" fill="#6FC3A4"/>
<path opacity="0.3" d="M11.8122 16.1298L9.82519 16.4948L8.7179 15.4035L11.8122 16.1298Z" fill="white"/>
<path opacity="0.1" d="M11.8123 16.1298L11.0796 17.1833L7.98523 16.457L8.71792 15.4035L9.82521 16.4948L11.8123 16.1298Z" fill="white"/>
<path d="M20.2235 14.9186L17.5182 16.0435L18.6665 16.9675L21.3713 15.8426L20.2235 14.9186Z" fill="#6FC3A4"/>
<path opacity="0.5" d="M20.2235 14.9186L19.6997 16.0866L17.5182 16.0435L20.2235 14.9186Z" fill="white"/>
<path opacity="0.3" d="M20.2235 14.9186L21.3713 15.8426L18.6665 16.9675L17.5182 16.0435L19.6997 16.0866L20.2235 14.9186Z" fill="white"/>
<path d="M15.0415 15.4035L13.9454 16.3445L16.712 17.4284L17.8076 16.4879L15.0415 15.4035Z" fill="#6FC3A4"/>
<path opacity="0.2" d="M17.8075 16.4879L15.7325 16.604L15.0414 15.4035L17.8075 16.4879Z" fill="white"/>
<path opacity="0.1" d="M17.8076 16.4879L16.712 17.4284L13.9454 16.3445L15.0415 15.4035L15.7326 16.604L17.8076 16.4879Z" fill="white"/>
<path d="M17.4942 20.0863L15.5695 19.8609L14.9183 21.7542L16.843 21.9801L17.4942 20.0863Z" fill="#6FC3A4"/>
<path opacity="0.5" d="M15.5695 19.8609L16.5617 20.9256L14.9183 21.7542L15.5695 19.8609Z" fill="white"/>
<path opacity="0.3" d="M16.843 21.9801L14.9183 21.7542L16.5617 20.9256L15.5695 19.8609L17.4942 20.0863L16.843 21.9801Z" fill="white"/>
<path d="M14.1334 21.1781L11.2847 22.1773L12.3052 23.1508L15.1539 22.1517L14.1334 21.1781Z" fill="#6FC3A4"/>
<path opacity="0.5" d="M14.1334 21.1781L13.454 22.3195L11.2847 22.1773L14.1334 21.1781Z" fill="white"/>
<path opacity="0.3" d="M14.1334 21.1781L15.1539 22.1517L12.3052 23.1508L11.2847 22.1773L13.454 22.3195L14.1334 21.1781Z" fill="white"/>
<path d="M16.6976 11.6948L14.3317 13.061L15.715 13.8646L18.0809 12.4989L16.6976 11.6948Z" fill="#6FC3A4"/>
<path opacity="0.5" d="M14.3317 13.061L16.4088 12.9486L16.6976 11.6948L14.3317 13.061Z" fill="white"/>
<path opacity="0.3" d="M14.3317 13.061L15.715 13.8646L18.0809 12.4989L16.6976 11.6948L16.4088 12.9486L14.3317 13.061Z" fill="white"/>
<path d="M13.5744 15.379L11.0966 16.5295L12.4032 17.4529L14.881 16.3025L13.5744 15.379Z" fill="#6FC3A4"/>
<path opacity="0.6" d="M11.0966 16.5295L13.1759 16.6019L13.5744 15.379L11.0966 16.5295Z" fill="white"/>
<path opacity="0.4" d="M11.0966 16.5295L12.4032 17.4529L14.881 16.3025L13.5744 15.379L13.1759 16.6019L11.0966 16.5295Z" fill="white"/>
<path d="M17.9796 14.8088L14.6481 14.8978L14.7451 16.0334L18.0766 15.9444L17.9796 14.8088Z" fill="#6FC3A4"/>
<path opacity="0.5" d="M17.9796 14.8088L16.4412 15.622L14.6481 14.8978L17.9796 14.8088Z" fill="white"/>
<path opacity="0.3" d="M17.9796 14.8088L18.0766 15.9444L14.7451 16.0334L14.6481 14.8978L16.4412 15.622L17.9796 14.8088Z" fill="white"/>
<path d="M12.9142 14.5472L9.58276 14.6362L9.67974 15.7717L13.0107 15.6827L12.9142 14.5472Z" fill="#6FC3A4"/>
<path opacity="0.5" d="M12.9142 14.5472L11.3759 15.3603L9.58276 14.6362L12.9142 14.5472Z" fill="white"/>
<path opacity="0.3" d="M12.9142 14.5472L13.0107 15.6827L9.67974 15.7717L9.58276 14.6362L11.3759 15.3603L12.9142 14.5472Z" fill="white"/>
<path d="M14.3567 19.7581L12.6548 19.1922L10.996 20.8648L12.7011 21.4339L14.3567 19.7581ZM12.7614 19.5524L13.0091 20.381L12.7614 19.5524Z" fill="#6FC3A4"/>
<path opacity="0.2" d="M12.6542 19.1895L13.0107 20.381L10.9954 20.8622L12.6542 19.1895Z" fill="white"/>
<path opacity="0.1" d="M12.6979 21.4307L10.9954 20.8622L13.0107 20.381L12.6542 19.1895L14.3567 19.7581L12.6979 21.4307Z" fill="white"/>
<path d="M13.4162 13.3605L12.4853 15.2138L14.3706 15.5346L15.3004 13.6808L13.4162 13.3605Z" fill="#6FC3A4"/>
<path opacity="0.5" d="M13.4162 13.3605L14.2464 14.4705L12.4853 15.2138L13.4162 13.3605Z" fill="white"/>
<path opacity="0.3" d="M14.3706 15.5346L12.4853 15.2138L14.2464 14.4705L13.4162 13.3605L15.3004 13.6808L14.3706 15.5346Z" fill="white"/>
<path d="M16.096 16.8604L14.4222 17.4513L16.1647 19.1021L17.8379 18.5112L16.096 16.8604Z" fill="#6FC3A4"/>
<path opacity="0.5" d="M16.0959 16.8604L17.8379 18.5112L15.8641 18.1174L16.0959 16.8604Z" fill="white"/>
<path opacity="0.3" d="M16.096 16.8604L15.8642 18.1174L17.8379 18.5112L16.1647 19.1021L14.4222 17.4513L16.096 16.8604Z" fill="white"/>
<path d="M15.002 18.1797L12.6361 19.546L14.0194 20.3501L16.3853 18.9838L15.002 18.1797Z" fill="#6FC3A4"/>
<path opacity="0.6" d="M12.6361 19.546L14.7132 19.4336L15.002 18.1797L12.6361 19.546Z" fill="white"/>
<path opacity="0.4" d="M12.6361 19.546L14.0194 20.3501L16.3853 18.9838L15.002 18.1797L14.7132 19.4336L12.6361 19.546Z" fill="white"/>
<path d="M9.59664 19.0083L7.89148 19.5678L9.54229 21.2496L11.248 20.6901L9.59664 19.0083Z" fill="#6FC3A4"/>
<path opacity="0.5" d="M9.84336 19.9978L9.54229 21.2495L7.89148 19.5678L9.84336 19.9978Z" fill="white"/>
<path opacity="0.3" d="M9.59664 19.0083L11.248 20.6901L9.54229 21.2496L7.89148 19.5678L9.54229 21.2496L9.84336 19.9979L7.89148 19.5678L9.59664 19.0083Z" fill="white"/>
<path d="M11.2826 18.1606L9.35205 18.362L9.95206 20.2632L11.8826 20.0623L11.2826 18.1606Z" fill="#6FC3A4"/>
<path opacity="0.6" d="M11.2826 18.1606L11.8826 20.0623L10.2845 19.2828L11.2826 18.1606Z" fill="white"/>
<path opacity="0.4" d="M11.2826 18.1606L10.2846 19.2828L11.8826 20.0623L9.95206 20.2632L9.35205 18.362L11.2826 18.1606Z" fill="white"/>
<path d="M9.2396 20.0954L7.53657 19.5268L7.89306 20.7183L7.53657 19.5268L5.8783 21.1995L7.5808 21.7686L9.2396 20.0954Z" fill="#6FC3A4"/>
<path opacity="0.6" d="M7.53657 19.5268L7.89306 20.7183L5.8783 21.1995L7.53657 19.5268Z" fill="white"/>
<path opacity="0.4" d="M7.5808 21.7686L5.8783 21.1995L7.89306 20.7183L7.53657 19.5268L9.2396 20.0954L7.5808 21.7686Z" fill="white"/>
<path d="M5.61934 16.8092L4.23602 17.6128L6.60247 18.979L7.98526 18.1749L5.61934 16.8092Z" fill="#6FC3A4"/>
<path opacity="0.2" d="M7.98524 18.1749L5.90814 18.0625L5.61932 16.8092L7.98524 18.1749Z" fill="white"/>
<path opacity="0.1" d="M7.98526 18.1749L6.60247 18.979L4.23602 17.6128L5.61934 16.8092L5.90815 18.0625L7.98526 18.1749Z" fill="white"/>
<path d="M5.78291 17.8259L3.88165 18.1041L4.70919 19.9771L6.61045 19.6989L5.78291 17.8259Z" fill="#6FC3A4"/>
<path opacity="0.5" d="M5.78294 17.8259L6.61048 19.6989L4.92236 18.9859L5.78294 17.8259Z" fill="white"/>
<path opacity="0.3" d="M5.78291 17.8259L4.92234 18.9859L6.61045 19.6989L4.70919 19.9771L3.88165 18.1041L5.78291 17.8259Z" fill="white"/>
<path d="M11.1377 16.9563L7.81738 17.1316L8.00175 18.2639L11.322 18.0886L11.1377 16.9563Z" fill="#6FC3A4"/>
<path opacity="0.6" d="M11.1377 16.9563L9.66376 17.8089L7.81738 17.1316L11.1377 16.9563Z" fill="white"/>
<path opacity="0.3" d="M11.1377 16.9563L11.322 18.0886L8.00175 18.2639L7.81738 17.1316L9.66376 17.8089L11.1377 16.9563Z" fill="white"/>
<path opacity="0.1" d="M10.98 13.7367L10.4903 14.0197L9.56573 14.5531L11.9732 15.4957L13.0688 14.5547L10.98 13.7367Z" fill="black"/>
<path d="M11.1456 13.6424L10.6554 13.9248L9.7309 14.4582L11.9732 15.3369L13.0688 14.3958L11.1456 13.6424Z" fill="#6FC3A4"/>
<path opacity="0.6" d="M10.9938 14.512L13.0688 14.3958L11.1457 13.6424L10.6555 13.9248L10.9938 14.512Z" fill="white"/>
<path opacity="0.4" d="M13.0688 14.3959L10.9938 14.512L10.6554 13.9248L9.7309 14.4582L11.9732 15.3369L13.0688 14.3959Z" fill="white"/>
</svg>
