<svg width="2503" height="300" viewBox="0 0 2503 300" fill="none" xmlns="http://www.w3.org/2000/svg">
<path d="M2503 133.333L2443.38 150C2383.76 166.667 2264.87 200 2144.93 216.667C2026.21 233.333 1906.8 233.333 1788.6 211.146C1668.67 188.542 1548.73 144.792 1430.53 133.333C1311.12 121.875 1192.4 144.792 1072.47 177.812C953.574 211.458 834.333 255.208 714.398 255.521C596.027 255.208 476.265 211.458 358.068 211.146C238.307 211.458 119.936 255.208 59.0988 277.813L0.000117362 300V-9.50821e-07H59.6202C119.24 -9.50821e-07 238.133 -9.50821e-07 358.068 -9.50821e-07C476.787 -9.50821e-07 596.201 -9.50821e-07 714.398 -9.50821e-07C834.333 -9.50821e-07 954.269 -9.50821e-07 1072.47 -9.50821e-07C1191.88 -9.50821e-07 1310.6 -9.50821e-07 1430.53 -9.50821e-07C1549.43 -9.50821e-07 1668.67 -9.5082e-07 1788.6 -9.5082e-07C1906.97 -9.5082e-07 2026.73 -9.5082e-07 2144.93 -9.5082e-07C2264.69 -9.5082e-07 2383.06 -9.5082e-07 2443.9 -9.5082e-07H2503V133.333Z" fill="#18392D"/>
</svg>
