<svg width="100%" viewBox="0 0 4749 2240" fill="none" xmlns="http://www.w3.org/2000/svg">
<path d="M0 1884.44L113.119 1840C226.237 1795.56 451.815 1706.67 679.371 1662.22C904.619 1617.78 1131.19 1617.78 1355.44 1676.94C1583 1737.22 1810.56 1853.89 2034.81 1884.44C2261.38 1915 2486.63 1853.89 2714.19 1765.83C2939.76 1676.11 3166 1559.44 3393.56 1558.61C3618.14 1559.44 3845.37 1676.11 4069.63 1676.94C4296.86 1676.11 4521.44 1559.44 4636.87 1499.17L4749 1440V2240H4635.88C4522.76 2240 4297.19 2240 4069.63 2240C3844.38 2240 3617.81 2240 3393.56 2240C3166 2240 2938.44 2240 2714.19 2240C2487.62 2240 2262.37 2240 2034.81 2240C1809.24 2240 1583 2240 1355.44 2240C1130.86 2240 903.629 2240 679.371 2240C452.144 2240 227.556 2240 112.129 2240H0V1884.44Z" fill="#18392D"/>
<path d="M4749 355.556L4635.88 400C4522.76 444.444 4297.19 533.333 4069.63 577.778C3844.38 622.222 3617.81 622.222 3393.56 563.056C3166 502.778 2938.44 386.111 2714.19 355.556C2487.62 325 2262.37 386.111 2034.81 474.167C1809.24 563.889 1583 680.556 1355.44 681.389C1130.86 680.556 903.629 563.889 679.371 563.056C452.144 563.889 227.556 680.556 112.129 740.833L0 800V1.37455e-05H113.119C226.237 1.37455e-05 451.815 1.37455e-05 679.371 1.37455e-05C904.619 1.37455e-05 1131.19 1.37455e-05 1355.44 1.37455e-05C1583 1.37455e-05 1810.56 1.37455e-05 2034.81 1.37455e-05C2261.38 1.37455e-05 2486.63 1.37455e-05 2714.19 1.37455e-05C2939.76 1.37455e-05 3166 1.37455e-05 3393.56 1.37455e-05C3618.14 1.37455e-05 3845.37 1.37455e-05 4069.63 1.37455e-05C4296.86 1.37455e-05 4521.44 1.37455e-05 4636.87 1.37455e-05H4749V355.556Z" fill="#18392D"/>
</svg>
