<svg width="100%" viewBox="0 0 1868 738" fill="none" xmlns="http://www.w3.org/2000/svg">
<path fill-rule="evenodd" clip-rule="evenodd" d="M0 237.399V0L1868 500.529V737.928L0 237.399Z" fill="url(#paint0_lineare)"/>
<path fill-rule="evenodd" clip-rule="evenodd" d="M0 237.399V0L1868 500.529V737.928L0 237.399Z" fill="url(#paint1_lineare)"/>
<g filter="url(#filter0_de)">
<path d="M241.505 233.793L226.563 229.789L196.481 134.232L174.789 215.189L162.021 211.767L188.19 114.103L203.131 118.107L233.213 213.664L255.087 132.028L267.856 135.45L241.505 233.793ZM311.95 147.265L324.718 150.686L298.549 248.35L285.781 244.929L311.95 147.265ZM409.812 275.178C405.249 275.363 400.504 275.232 395.577 274.785C390.695 274.351 385.447 273.381 379.833 271.877C365.978 268.165 356.629 261.219 351.785 251.041C346.942 240.862 346.68 227.714 350.999 211.595C355.585 194.48 362.574 182.522 371.967 175.721C381.36 168.92 392.984 167.376 406.839 171.089C412.091 172.496 416.679 174.21 420.601 176.232C424.57 178.266 428.307 180.529 431.812 183.021L425.587 192.127C423.913 190.95 422.243 189.848 420.577 188.819C418.912 187.79 417.199 186.846 415.44 185.987C413.726 185.139 411.92 184.364 410.021 183.661C408.123 182.958 406.11 182.322 403.982 181.752C398.956 180.405 394.389 180.152 390.282 180.992C386.186 181.788 382.5 183.59 379.224 186.401C375.959 189.166 373.1 192.864 370.646 197.496C368.204 202.083 366.145 207.5 364.471 213.749C362.748 220.178 361.792 226.012 361.601 231.251C361.411 236.489 362.038 241.122 363.482 245.149C364.939 249.13 367.248 252.466 370.409 255.157C373.57 257.848 377.664 259.867 382.69 261.214C387.308 262.452 391.803 263.243 396.175 263.59C400.547 263.936 404.963 264.028 409.423 263.864L409.812 275.178ZM471.315 189.966L525.513 204.489L522.71 214.948L481.281 203.847L474.056 230.81L503.396 238.671L500.594 249.131L471.254 241.269L460.717 280.593L503.708 292.112L500.906 302.571L445.146 287.631L471.315 189.966ZM600.912 314.154C602.574 315.376 604.339 316.577 606.207 317.757C608.119 318.949 610.079 320.056 612.086 321.079C614.138 322.114 616.214 323.059 618.315 323.913C620.415 324.767 622.507 325.473 624.59 326.031C628.167 326.989 631.513 327.449 634.629 327.411C637.746 327.372 640.551 326.862 643.047 325.881C645.554 324.854 647.677 323.361 649.416 321.4C651.166 319.394 652.436 316.92 653.224 313.977C654.013 311.034 654.113 308.488 653.523 306.341C652.992 304.16 651.877 302.163 650.179 300.349C648.526 298.548 646.344 296.822 643.631 295.173C640.931 293.479 637.829 291.653 634.326 289.696C630.451 287.493 626.924 285.262 623.745 283.002C620.622 280.71 618.056 278.154 616.045 275.334C614.08 272.527 612.791 269.367 612.179 265.854C611.58 262.297 611.911 258.163 613.172 253.455C614.204 249.606 615.908 246.326 618.284 243.614C620.661 240.902 623.544 238.836 626.933 237.415C630.335 235.948 634.163 235.154 638.418 235.033C642.672 234.911 647.177 235.487 651.931 236.761C654.24 237.38 656.552 238.169 658.867 239.129C661.194 240.044 663.468 241.065 665.689 242.194C667.91 243.323 670.055 244.553 672.125 245.884C674.195 247.215 676.11 248.578 677.872 249.972L671.104 258.932C669.644 257.861 668.138 256.778 666.588 255.683C665.082 254.601 663.445 253.555 661.677 252.548C659.909 251.54 657.974 250.609 655.874 249.755C653.831 248.868 651.564 248.091 649.074 247.424C646.584 246.757 644.134 246.391 641.724 246.328C639.315 246.265 637.069 246.585 634.988 247.289C632.964 247.96 631.183 249.084 629.644 250.662C628.105 252.239 626.984 254.341 626.28 256.967C625.492 259.91 625.363 262.472 625.895 264.652C626.484 266.8 627.605 268.775 629.258 270.576C630.956 272.39 633.155 274.144 635.855 275.838C638.568 277.487 641.676 279.29 645.179 281.248C649.053 283.451 652.552 285.698 655.674 287.991C658.854 290.25 661.427 292.784 663.392 295.591C665.403 298.411 666.708 301.599 667.307 305.157C667.907 308.715 667.582 312.825 666.332 317.489C665.01 322.424 662.929 326.477 660.09 329.647C657.308 332.784 653.943 335.109 649.995 336.624C646.092 338.15 641.719 338.895 636.876 338.859C632.078 338.835 627.03 338.113 621.733 336.694C611.726 334.013 602.53 329.486 594.143 323.114L600.912 314.154ZM716.136 255.566L789.282 275.165L786.479 285.625L756.46 277.581L733.094 364.786L720.325 361.365L743.692 274.16L713.333 266.025L716.136 255.566ZM889.475 302.012L902.244 305.433L887.121 361.872C883.311 376.089 877.25 385.942 868.937 391.431C860.636 396.874 849.875 397.824 836.654 394.282C810.755 387.342 801.633 369.587 809.288 341.017L824.411 284.578L837.179 288L822.038 344.506C820.704 349.487 819.957 353.994 819.798 358.028C819.652 362.016 820.158 365.743 821.316 369.208C822.486 372.627 824.586 375.568 827.615 378.029C830.655 380.445 834.621 382.309 839.511 383.619C843.495 384.686 847.138 385.129 850.438 384.945C853.796 384.729 856.691 383.976 859.123 382.687C861.556 381.397 863.747 379.558 865.697 377.169C867.705 374.747 869.377 372.04 870.712 369.049C872.059 366.013 873.267 362.503 874.334 358.519L889.475 302.012ZM944.232 316.684L998.43 331.206L995.627 341.666L954.198 330.565L946.973 357.528L976.313 365.389L973.511 375.848L944.171 367.987L930.832 417.77L918.063 414.348L944.232 316.684ZM1033.63 340.637L1087.82 355.16L1085.02 365.619L1043.59 354.518L1036.37 381.481L1065.71 389.342L1062.91 399.802L1033.57 391.94L1020.23 441.723L1007.46 438.302L1033.63 340.637ZM1173.57 378.135L1246.71 397.734L1243.91 408.193L1213.89 400.15L1190.53 487.355L1177.76 483.933L1201.12 396.728L1170.77 388.594L1173.57 378.135ZM1350.39 477.853C1346.01 494.198 1338.98 505.706 1329.28 512.377C1319.58 519.047 1307.83 520.533 1294.02 516.832C1280.34 513.168 1270.92 506.034 1265.76 495.429C1260.65 484.792 1260.29 471.278 1264.68 454.887C1269.06 438.542 1276.14 427.069 1285.92 420.468C1295.69 413.867 1307.4 412.392 1321.02 416.044C1334.83 419.744 1344.26 426.93 1349.32 437.601C1354.38 448.226 1354.74 461.644 1350.39 477.853ZM1337.29 474.341C1340.66 461.754 1340.78 451.329 1337.66 443.067C1334.58 434.817 1328.06 429.358 1318.1 426.689C1308.09 424.007 1299.7 425.521 1292.93 431.228C1286.18 436.891 1281.13 445.948 1277.79 458.399C1276.15 464.512 1275.25 470.142 1275.09 475.29C1274.98 480.405 1275.63 485.044 1277.03 489.206C1278.5 493.336 1280.88 496.861 1284.17 499.781C1287.52 502.669 1291.74 504.792 1296.81 506.151C1306.77 508.82 1315.14 507.352 1321.94 501.747C1328.79 496.109 1333.9 486.973 1337.29 474.341Z" fill="#C4C4C4"/>
<path d="M1489.36 462.751C1493.98 463.989 1498.21 465.509 1502.04 467.314C1505.94 469.085 1509.16 471.26 1511.72 473.838C1514.28 476.417 1516.04 479.46 1516.99 482.966C1517.95 486.473 1517.79 490.581 1516.53 495.29C1515.78 498.097 1514.79 500.503 1513.58 502.506C1512.36 504.509 1510.94 506.191 1509.31 507.551C1507.73 508.923 1505.94 509.996 1503.94 510.769C1501.95 511.498 1499.82 511.996 1497.57 512.265L1497.53 512.401C1499.85 513.702 1501.97 515.313 1503.88 517.232C1505.84 519.164 1507.4 521.379 1508.58 523.878C1509.75 526.376 1510.46 529.163 1510.71 532.237C1511.01 535.278 1510.68 538.564 1509.74 542.096C1508.37 547.212 1506.29 551.339 1503.51 554.476C1500.73 557.613 1497.42 559.905 1493.59 561.353C1489.8 562.813 1485.59 563.504 1480.95 563.426C1476.36 563.36 1471.55 562.654 1466.52 561.307L1432.43 552.171L1458.6 454.507L1489.36 462.751ZM1478.4 502.835C1481.66 503.709 1484.66 504.22 1487.38 504.368C1490.11 504.516 1492.52 504.193 1494.63 503.398C1496.79 502.57 1498.63 501.22 1500.16 499.347C1501.73 497.44 1502.95 494.902 1503.8 491.733C1504.53 489.016 1504.56 486.623 1503.9 484.554C1503.24 482.485 1502.07 480.692 1500.39 479.174C1498.71 477.656 1496.65 476.376 1494.22 475.335C1491.79 474.248 1489.22 473.34 1486.5 472.612L1468.71 467.844L1460.61 498.067L1478.4 502.835ZM1469.18 551.391C1472.35 552.24 1475.42 552.628 1478.4 552.553C1481.43 552.49 1484.17 551.939 1486.63 550.9C1489.1 549.861 1491.23 548.323 1493.04 546.284C1494.85 544.245 1496.16 541.686 1496.99 538.607C1497.81 535.528 1497.95 532.676 1497.39 530.051C1496.84 527.382 1495.76 524.981 1494.15 522.851C1492.54 520.72 1490.44 518.871 1487.85 517.304C1485.3 515.749 1482.45 514.547 1479.28 513.697L1457.95 507.983L1447.85 545.677L1469.18 551.391ZM1629.35 500.262L1642.12 503.683L1627 560.122C1623.19 574.339 1617.13 584.192 1608.82 589.681C1600.51 595.124 1589.75 596.074 1576.53 592.532C1550.63 585.592 1541.51 567.837 1549.17 539.267L1564.29 482.828L1577.06 486.249L1561.92 542.756C1560.58 547.737 1559.84 552.244 1559.68 556.278C1559.53 560.266 1560.04 563.993 1561.19 567.458C1562.37 570.877 1564.46 573.818 1567.49 576.279C1570.53 578.695 1574.5 580.558 1579.39 581.869C1583.37 582.936 1587.02 583.379 1590.32 583.195C1593.67 582.979 1596.57 582.226 1599 580.937C1601.43 579.647 1603.63 577.808 1605.58 575.419C1607.58 572.997 1609.26 570.29 1610.59 567.299C1611.94 564.263 1613.15 560.753 1614.21 556.769L1629.35 500.262ZM1744.96 531.24L1759.5 535.134L1709.81 579.325L1698.01 623.335L1685.31 619.932L1697.1 575.922L1676.16 512.805L1690.7 516.699L1706.22 567.155L1744.96 531.24Z" fill="#161615"/>
</g>
<defs>
<filter id="filter0_de" x="162.021" y="114.103" width="1606.48" height="517.232" filterUnits="userSpaceOnUse" color-interpolation-filters="sRGB">
<feFlood flood-opacity="0" result="BackgroundImageFix"/>
<feColorMatrix in="SourceAlpha" type="matrix" values="0 0 0 0 0 0 0 0 0 0 0 0 0 0 0 0 0 0 127 0"/>
<feOffset dx="5" dy="4"/>
<feGaussianBlur stdDeviation="2"/>
<feColorMatrix type="matrix" values="0 0 0 0 0 0 0 0 0 0 0 0 0 0 0 0 0 0 0.25 0"/>
<feBlend mode="normal" in2="BackgroundImageFix" result="effect1_dropShadow"/>
<feBlend mode="normal" in="SourceGraphic" in2="effect1_dropShadow" result="shape"/>
</filter>
<linearGradient id="paint0_lineare" x1="934" y1="0" x2="934" y2="737.928" gradientUnits="userSpaceOnUse">
<stop stop-color="blue"/>
<stop offset="1" stop-color="#8DFFE4"/>
</linearGradient>
<linearGradient id="paint1_lineare" x1="934" y1="0" x2="934" y2="737.928" gradientUnits="userSpaceOnUse">
<stop stop-color="white"/>
<stop offset="1" stop-color="#715B5B" stop-opacity="0"/>
</linearGradient>
</defs>
</svg>
