<svg width="446" height="358" viewBox="0 0 446 358" fill="none" xmlns="http://www.w3.org/2000/svg">
<path d="M333.56 84.5292H400.22C400.407 83.689 400.3 82.8101 399.915 82.0398C399.531 81.2696 398.894 80.655 398.11 80.2992C395.21 78.5992 393.88 80.0192 392.83 78.5992C391.78 77.1792 395.73 73.5092 387.83 69.8492C387.83 69.8492 387.3 61.9192 376.51 61.6492C365.72 61.3792 368.6 69.5592 365.7 71.5392C362.8 73.5192 362.02 70.4092 359.12 72.3792C356.22 74.3492 357.54 78.3192 355.12 78.8892C352.7 79.4592 349.6 76.3392 346.67 78.3192C343.74 80.2992 343.78 81.9892 342.45 81.9892C341.12 81.9892 338.5 80.8592 336.91 81.9892C335.32 83.1192 333.56 84.5292 333.56 84.5292Z" fill="#3C9073"/>
<path opacity="0.6" d="M333.56 84.5292H400.22C400.407 83.689 400.3 82.8101 399.915 82.0398C399.531 81.2696 398.894 80.655 398.11 80.2992C395.21 78.5992 393.88 80.0192 392.83 78.5992C391.78 77.1792 395.73 73.5092 387.83 69.8492C387.83 69.8492 387.3 61.9192 376.51 61.6492C365.72 61.3792 368.6 69.5592 365.7 71.5392C362.8 73.5192 362.02 70.4092 359.12 72.3792C356.22 74.3492 357.54 78.3192 355.12 78.8892C352.7 79.4592 349.6 76.3392 346.67 78.3192C343.74 80.2992 343.78 81.9892 342.45 81.9892C341.12 81.9892 338.5 80.8592 336.91 81.9892C335.32 83.1192 333.56 84.5292 333.56 84.5292Z" fill="#3C9073"/>
<path d="M106.22 118.099H172.9C173.089 117.26 172.981 116.382 172.597 115.613C172.212 114.844 171.574 114.232 170.79 113.879C167.89 112.179 166.56 113.589 165.51 112.179C164.46 110.769 168.41 107.089 160.51 103.419C160.51 103.419 159.98 95.4992 149.19 95.2192C138.4 94.9392 141.28 103.139 138.38 105.109C135.48 107.079 134.7 103.979 131.8 105.959C128.9 107.939 130.22 111.889 127.8 112.459C125.38 113.029 122.28 109.919 119.35 111.889C116.42 113.859 116.46 115.569 115.13 115.569C113.8 115.569 111.18 114.439 109.59 115.569C108 116.699 106.22 118.099 106.22 118.099Z" fill="#3C9073"/>
<path opacity="0.8" d="M106.22 118.099H172.9C173.089 117.26 172.981 116.382 172.597 115.613C172.212 114.844 171.574 114.232 170.79 113.879C167.89 112.179 166.56 113.589 165.51 112.179C164.46 110.769 168.41 107.089 160.51 103.419C160.51 103.419 159.98 95.4992 149.19 95.2192C138.4 94.9392 141.28 103.139 138.38 105.109C135.48 107.079 134.7 103.979 131.8 105.959C128.9 107.939 130.22 111.889 127.8 112.459C125.38 113.029 122.28 109.919 119.35 111.889C116.42 113.859 116.46 115.569 115.13 115.569C113.8 115.569 111.18 114.439 109.59 115.569C108 116.699 106.22 118.099 106.22 118.099Z" fill="#3C9073"/>
<path d="M242.58 47.7292C244.69 46.1792 248.34 47.7292 250.13 47.7292C251.92 47.7292 251.94 45.4092 255.9 42.7292C259.86 40.0492 264.18 44.2692 267.41 43.4992C270.64 42.7292 268.86 37.3192 272.82 34.6192C276.78 31.9192 277.82 36.1692 281.82 33.4692C285.82 30.7692 281.82 19.5692 296.61 19.9492C311.4 20.3292 312.09 31.1392 312.09 31.1392C322.89 36.1392 317.49 41.1392 318.93 43.1392C320.37 45.1392 322.17 43.1392 326.13 45.4492C330.09 47.7592 329 51.2392 329 51.2392H237.88C237.88 51.2392 240.4 49.2792 242.58 47.7292Z" fill="#3C9073"/>
<path opacity="0.8" d="M242.58 47.7292C244.69 46.1792 248.34 47.7292 250.13 47.7292C251.92 47.7292 251.94 45.4092 255.9 42.7292C259.86 40.0492 264.18 44.2692 267.41 43.4992C270.64 42.7292 268.86 37.3192 272.82 34.6192C276.78 31.9192 277.82 36.1692 281.82 33.4692C285.82 30.7692 281.82 19.5692 296.61 19.9492C311.4 20.3292 312.09 31.1392 312.09 31.1392C322.89 36.1392 317.49 41.1392 318.93 43.1392C320.37 45.1392 322.17 43.1392 326.13 45.4492C330.09 47.7592 329 51.2392 329 51.2392H237.88C237.88 51.2392 240.4 49.2792 242.58 47.7292Z" fill="#3C9073"/>
<path d="M411.27 156.199C411.27 156.199 398.96 143.679 385.27 143.679C371.58 143.679 362.69 151.199 346.95 153.679C331.21 156.159 314.1 152.009 303.16 152.009C292.22 152.009 280.57 151.189 270.31 156.189C260.05 161.189 249.78 150.349 238.82 150.349C227.86 150.349 217.61 150.349 206.66 151.189C195.71 152.029 187.5 147.849 175.87 150.349C164.24 152.849 158.08 153.659 151.24 153.659C144.4 153.659 140.24 146.989 128.66 146.159C117.08 145.329 112.91 150.319 108.12 150.319C103.33 150.319 92.39 146.989 90.33 146.989C88.27 146.989 77.33 151.159 75.33 153.659C73.33 156.159 67.8 156.169 58.22 156.169C48.64 156.169 47.96 155.339 41.12 156.169C34.28 156.999 30.12 158.669 25.38 158.669C20.64 158.669 11 164.539 11 164.539L0 175.399H445.22L411.27 156.199Z" fill="#3C9073"/>
<path opacity="0.1" d="M411.27 156.199C411.27 156.199 398.96 143.679 385.27 143.679C371.58 143.679 362.69 151.199 346.95 153.679C331.21 156.159 314.1 152.009 303.16 152.009C292.22 152.009 280.57 151.189 270.31 156.189C260.05 161.189 249.78 150.349 238.82 150.349C227.86 150.349 217.61 150.349 206.66 151.189C195.71 152.029 187.5 147.849 175.87 150.349C164.24 152.849 158.08 153.659 151.24 153.659C144.4 153.659 140.24 146.989 128.66 146.159C117.08 145.329 112.91 150.319 108.12 150.319C103.33 150.319 92.39 146.989 90.33 146.989C88.27 146.989 77.33 151.159 75.33 153.659C73.33 156.159 67.8 156.169 58.22 156.169C48.64 156.169 47.96 155.339 41.12 156.169C34.28 156.999 30.12 158.669 25.38 158.669C20.64 158.669 11 164.539 11 164.539L0 175.399H445.22L411.27 156.199Z" fill="#3C9073"/>
<path d="M35.51 286.649L56.86 300.029L416.93 206.739L383.84 204.539V202.469L242.84 234.309L212.24 241.339L195.28 246.309L35.51 286.649Z" fill="#3C9073"/>
<path d="M71.46 289.349C72.2221 289.349 72.84 288.731 72.84 287.969C72.84 287.207 72.2221 286.589 71.46 286.589C70.6978 286.589 70.08 287.207 70.08 287.969C70.08 288.731 70.6978 289.349 71.46 289.349Z" fill="#3C9073"/>
<path d="M109.35 277.849C110.112 277.849 110.73 277.231 110.73 276.469C110.73 275.707 110.112 275.089 109.35 275.089C108.588 275.089 107.97 275.707 107.97 276.469C107.97 277.231 108.588 277.849 109.35 277.849Z" fill="#3C9073"/>
<path d="M167.32 262.519C168.082 262.519 168.7 261.901 168.7 261.139C168.7 260.377 168.082 259.759 167.32 259.759C166.558 259.759 165.94 260.377 165.94 261.139C165.94 261.901 166.558 262.519 167.32 262.519Z" fill="#3C9073"/>
<path d="M185.55 257.459C185.552 257.735 185.472 258.004 185.321 258.234C185.169 258.464 184.953 258.644 184.699 258.75C184.445 258.857 184.165 258.886 183.895 258.834C183.625 258.781 183.376 258.65 183.181 258.456C182.985 258.262 182.852 258.014 182.797 257.744C182.743 257.474 182.77 257.194 182.875 256.94C182.98 256.685 183.158 256.467 183.387 256.314C183.616 256.161 183.885 256.079 184.16 256.079C184.341 256.077 184.52 256.11 184.688 256.177C184.856 256.244 185.009 256.343 185.138 256.47C185.267 256.596 185.37 256.747 185.441 256.913C185.512 257.08 185.549 257.258 185.55 257.439V257.459Z" fill="#3C9073"/>
<path d="M205.51 251.019C205.51 251.294 205.428 251.563 205.276 251.791C205.123 252.02 204.906 252.198 204.652 252.303C204.398 252.409 204.118 252.436 203.849 252.382C203.579 252.329 203.332 252.196 203.137 252.002C202.943 251.808 202.81 251.56 202.757 251.29C202.703 251.021 202.731 250.741 202.836 250.487C202.941 250.233 203.119 250.016 203.348 249.863C203.576 249.711 203.845 249.629 204.12 249.629C204.489 249.629 204.842 249.776 205.103 250.036C205.364 250.297 205.51 250.651 205.51 251.019V251.019Z" fill="#3C9073"/>
<path d="M252.89 240.429C253.652 240.429 254.27 239.811 254.27 239.049C254.27 238.287 253.652 237.669 252.89 237.669C252.128 237.669 251.51 238.287 251.51 239.049C251.51 239.811 252.128 240.429 252.89 240.429Z" fill="#3C9073"/>
<path d="M281.42 233.909C282.138 233.909 282.72 233.327 282.72 232.609C282.72 231.891 282.138 231.309 281.42 231.309C280.702 231.309 280.12 231.891 280.12 232.609C280.12 233.327 280.702 233.909 281.42 233.909Z" fill="#3C9073"/>
<path d="M317.69 224.909C317.692 225.168 317.617 225.422 317.475 225.639C317.332 225.855 317.129 226.025 316.891 226.126C316.652 226.227 316.389 226.254 316.134 226.206C315.88 226.157 315.645 226.034 315.461 225.853C315.276 225.671 315.15 225.438 315.097 225.185C315.045 224.931 315.069 224.667 315.166 224.427C315.263 224.187 315.43 223.981 315.644 223.836C315.858 223.69 316.111 223.611 316.37 223.609V223.609C316.715 223.609 317.045 223.746 317.289 223.99C317.533 224.234 317.67 224.564 317.67 224.909H317.69Z" fill="#3C9073"/>
<path d="M335.71 222.259C336.428 222.259 337.01 221.677 337.01 220.959C337.01 220.241 336.428 219.659 335.71 219.659C334.992 219.659 334.41 220.241 334.41 220.959C334.41 221.677 334.992 222.259 335.71 222.259Z" fill="#3C9073"/>
<path d="M352.97 216.049C352.985 216.221 352.966 216.393 352.915 216.557C352.863 216.721 352.78 216.874 352.669 217.006C352.559 217.137 352.423 217.246 352.271 217.326C352.118 217.405 351.951 217.454 351.78 217.469C351.609 217.484 351.436 217.465 351.272 217.414C351.108 217.362 350.955 217.279 350.824 217.168C350.692 217.058 350.583 216.922 350.503 216.77C350.424 216.617 350.375 216.451 350.36 216.279C350.35 216.203 350.35 216.126 350.36 216.049C350.374 215.877 350.422 215.71 350.501 215.557C350.58 215.404 350.689 215.268 350.821 215.157C350.953 215.046 351.106 214.963 351.271 214.912C351.435 214.861 351.608 214.843 351.78 214.859C352.086 214.888 352.372 215.023 352.589 215.24C352.806 215.457 352.941 215.743 352.97 216.049Z" fill="#3C9073"/>
<path d="M103.83 283.679C104.592 283.679 105.21 283.061 105.21 282.299C105.21 281.537 104.592 280.919 103.83 280.919C103.068 280.919 102.45 281.537 102.45 282.299C102.45 283.061 103.068 283.679 103.83 283.679Z" fill="#3C9073"/>
<path d="M97.38 281.229C98.1422 281.229 98.76 280.611 98.76 279.849C98.76 279.087 98.1422 278.469 97.38 278.469C96.6179 278.469 96 279.087 96 279.849C96 280.611 96.6179 281.229 97.38 281.229Z" fill="#3C9073"/>
<path d="M123.91 273.249C123.91 273.522 123.829 273.789 123.677 274.016C123.526 274.243 123.31 274.42 123.058 274.524C122.806 274.629 122.528 274.656 122.261 274.603C121.993 274.549 121.747 274.418 121.554 274.225C121.361 274.032 121.23 273.786 121.176 273.518C121.123 273.251 121.151 272.973 121.255 272.721C121.359 272.469 121.536 272.253 121.763 272.102C121.99 271.95 122.257 271.869 122.53 271.869V271.869C122.896 271.869 123.247 272.015 123.506 272.273C123.765 272.532 123.91 272.883 123.91 273.249V273.249Z" fill="#3C9073"/>
<path d="M149.98 267.159C149.98 267.432 149.899 267.698 149.748 267.925C149.597 268.152 149.382 268.328 149.13 268.433C148.879 268.538 148.602 268.566 148.334 268.513C148.067 268.461 147.821 268.33 147.628 268.138C147.434 267.946 147.302 267.702 147.248 267.434C147.193 267.167 147.219 266.89 147.322 266.638C147.425 266.386 147.6 266.169 147.826 266.017C148.052 265.864 148.317 265.781 148.59 265.779C148.772 265.777 148.954 265.81 149.123 265.879C149.292 265.947 149.446 266.048 149.575 266.177C149.705 266.305 149.807 266.458 149.877 266.627C149.946 266.796 149.981 266.977 149.98 267.159V267.159Z" fill="#3C9073"/>
<path d="M135.9 274.329C135.898 274.602 135.815 274.868 135.663 275.093C135.51 275.319 135.294 275.494 135.041 275.597C134.789 275.7 134.512 275.726 134.245 275.671C133.978 275.617 133.733 275.485 133.541 275.291C133.349 275.098 133.218 274.852 133.166 274.585C133.113 274.317 133.141 274.04 133.246 273.789C133.351 273.537 133.528 273.322 133.754 273.171C133.981 273.02 134.247 272.939 134.52 272.939V272.939C134.702 272.939 134.882 272.975 135.05 273.045C135.218 273.115 135.371 273.218 135.499 273.347C135.628 273.476 135.729 273.629 135.798 273.798C135.867 273.967 135.901 274.147 135.9 274.329V274.329Z" fill="#3C9073"/>
<path d="M168.54 266.509C169.302 266.509 169.92 265.891 169.92 265.129C169.92 264.367 169.302 263.749 168.54 263.749C167.778 263.749 167.16 264.367 167.16 265.129C167.16 265.891 167.778 266.509 168.54 266.509Z" fill="#3C9073"/>
<path d="M211.18 251.789C211.942 251.789 212.56 251.171 212.56 250.409C212.56 249.647 211.942 249.029 211.18 249.029C210.418 249.029 209.8 249.647 209.8 250.409C209.8 251.171 210.418 251.789 211.18 251.789Z" fill="#3C9073"/>
<path d="M206.88 257.149C206.882 257.425 206.802 257.695 206.65 257.925C206.498 258.155 206.281 258.335 206.027 258.441C205.772 258.548 205.492 258.576 205.221 258.523C204.951 258.47 204.702 258.337 204.507 258.142C204.312 257.947 204.18 257.698 204.126 257.428C204.073 257.157 204.101 256.877 204.208 256.623C204.314 256.368 204.494 256.151 204.724 255.999C204.954 255.847 205.224 255.767 205.5 255.769V255.769C205.863 255.769 206.212 255.914 206.469 256.17C206.726 256.427 206.87 256.776 206.87 257.139L206.88 257.149Z" fill="#3C9073"/>
<path d="M270.99 240.279C271.752 240.279 272.37 239.661 272.37 238.899C272.37 238.137 271.752 237.519 270.99 237.519C270.228 237.519 269.61 238.137 269.61 238.899C269.61 239.661 270.228 240.279 270.99 240.279Z" fill="#3C9073"/>
<path d="M293.39 233.229C294.152 233.229 294.77 232.611 294.77 231.849C294.77 231.087 294.152 230.469 293.39 230.469C292.628 230.469 292.01 231.087 292.01 231.849C292.01 232.611 292.628 233.229 293.39 233.229Z" fill="#3C9073"/>
<path d="M308.11 228.929C308.872 228.929 309.49 228.311 309.49 227.549C309.49 226.787 308.872 226.169 308.11 226.169C307.348 226.169 306.73 226.787 306.73 227.549C306.73 228.311 307.348 228.929 308.11 228.929Z" fill="#3C9073"/>
<path d="M332.59 221.049C333.352 221.049 333.97 220.431 333.97 219.669C333.97 218.907 333.352 218.289 332.59 218.289C331.828 218.289 331.21 218.907 331.21 219.669C331.21 220.431 331.828 221.049 332.59 221.049Z" fill="#3C9073"/>
<path d="M342.1 215.689C342.293 215.496 342.539 215.364 342.807 215.311C343.074 215.257 343.352 215.285 343.604 215.389C343.856 215.493 344.072 215.67 344.224 215.897C344.376 216.124 344.457 216.391 344.457 216.664C344.457 216.937 344.376 217.204 344.224 217.431C344.072 217.658 343.856 217.835 343.604 217.939C343.352 218.044 343.074 218.071 342.807 218.017C342.539 217.964 342.293 217.832 342.1 217.639V217.639C341.842 217.38 341.697 217.03 341.697 216.664C341.697 216.299 341.842 215.948 342.1 215.689V215.689Z" fill="#3C9073"/>
<path d="M359.89 214.619C360.652 214.619 361.27 214.001 361.27 213.239C361.27 212.477 360.652 211.859 359.89 211.859C359.128 211.859 358.51 212.477 358.51 213.239C358.51 214.001 359.128 214.619 359.89 214.619Z" fill="#3C9073"/>
<path d="M295.17 229.139C295.932 229.139 296.55 228.521 296.55 227.759C296.55 226.997 295.932 226.379 295.17 226.379C294.408 226.379 293.79 226.997 293.79 227.759C293.79 228.521 294.408 229.139 295.17 229.139Z" fill="#3C9073"/>
<path d="M84.65 284.609C84.648 284.882 84.5654 285.148 84.4126 285.373C84.2597 285.599 84.0435 285.774 83.7912 285.877C83.5389 285.98 83.2617 286.006 82.9947 285.951C82.7276 285.897 82.4827 285.765 82.2907 285.571C82.0987 285.378 81.9683 285.132 81.9158 284.865C81.8634 284.597 81.8913 284.32 81.996 284.069C82.1007 283.817 82.2776 283.602 82.5043 283.451C82.7311 283.3 82.9975 283.219 83.27 283.219V283.219C83.452 283.219 83.6323 283.255 83.8004 283.325C83.9685 283.395 84.1211 283.498 84.2493 283.627C84.3776 283.756 84.4791 283.909 84.5478 284.078C84.6166 284.247 84.6513 284.427 84.65 284.609V284.609Z" fill="#3C9073"/>
<path d="M193.53 337.879L194.13 265.899L225.29 257.359V351.859" fill="#3C9073"/>
<path d="M193.53 337.879L194.13 265.899L225.29 257.359V351.859" stroke="black" stroke-width="1.05622" stroke-linecap="round" stroke-linejoin="round"/>
<path d="M196.32 246.099C196.32 246.099 191.1 246.909 190.71 248.859V250.079L196.11 248.879L196.32 246.099Z" fill="#3C9073" stroke="black" stroke-width="1.05622" stroke-linecap="round" stroke-linejoin="round"/>
<path d="M201.1 32.9092L197.61 33.9392L198.39 75.5292L197.35 77.0892L197.73 122.689L196.45 124.109L196.57 179.829L195.41 181.509L196.32 248.749L199.3 248.359L198.91 181.509L199.68 179.309L199.42 124.239L200.85 121.529L200.46 76.9492L201.62 75.0092L201.1 32.9092Z" fill="#3C9073" stroke="black" stroke-width="1.05622" stroke-linecap="round" stroke-linejoin="round"/>
<path d="M201.1 32.9092L207.67 34.4592C207.67 34.4592 211.22 146.689 211.22 146.269C211.22 145.849 213.04 216.649 213.04 216.649L213.32 244.739L199.32 248.359L198.93 181.509L199.7 179.309L199.44 124.239L200.87 121.519L200.48 76.9492L201.64 75.0092L201.1 32.9092Z" fill="black" stroke="black" stroke-width="1.05622" stroke-linecap="round" stroke-linejoin="round"/>
<path d="M208.28 33.5692C208.28 33.5692 207.71 29.5692 204.38 29.0892C201.05 28.6092 197.64 30.9792 197.61 33.9392" fill="black"/>
<path d="M208.28 33.5692C208.28 33.5692 207.71 29.5692 204.38 29.0892C201.05 28.6092 197.64 30.9792 197.61 33.9392" stroke="black" stroke-width="1.05622" stroke-linecap="round" stroke-linejoin="round"/>
<path d="M205.1 29.0892L204.38 26.0492H202.5L201.63 29.0892" fill="black"/>
<path d="M205.1 29.0892L204.38 26.0492H202.5L201.63 29.0892" stroke="black" stroke-width="1.05622" stroke-linecap="round" stroke-linejoin="round"/>
<path d="M200.61 29.6392C200.61 29.6392 78.99 99.0492 8.09998 129.949" stroke="black" stroke-width="3.16867" stroke-linecap="round" stroke-linejoin="round"/>
<path d="M220.73 45.0992L226.85 50.3492" stroke="black" stroke-width="3.16867" stroke-linecap="round" stroke-linejoin="round"/>
<path d="M238.52 59.6692C238.52 59.6692 348.75 155.669 410.87 176.039" stroke="black" stroke-width="3.16867" stroke-linecap="round" stroke-linejoin="round"/>
<path d="M203.05 46.8992V57.9092L207.32 58.4292V54.6792L207.98 53.7692L207.72 51.4292L208.5 49.0992L208.62 48.4592L210.69 48.0592L210.82 47.1592L227.79 43.7892L227.67 41.0692L203.05 46.8992Z" fill="black" stroke="black" stroke-width="1.05622" stroke-linecap="round" stroke-linejoin="round"/>
<path d="M203.05 35.4892V46.8992L227.67 41.0692V28.7592L203.05 35.4892Z" fill="#3C9073" stroke="black" stroke-width="1.05622" stroke-linecap="round" stroke-linejoin="round"/>
<path d="M205.23 36.2692L205.21 43.7492" stroke="black" stroke-width="1.05622" stroke-linecap="round" stroke-linejoin="round"/>
<path d="M207.11 35.8092L207.08 43.2992" stroke="black" stroke-width="1.05622" stroke-linecap="round" stroke-linejoin="round"/>
<path d="M208.98 35.3592L208.96 42.8492" stroke="black" stroke-width="1.05622" stroke-linecap="round" stroke-linejoin="round"/>
<path d="M210.86 34.8992L210.83 42.3892" stroke="black" stroke-width="1.05622" stroke-linecap="round" stroke-linejoin="round"/>
<path d="M212.73 34.4492L212.71 41.9392" stroke="black" stroke-width="1.05622" stroke-linecap="round" stroke-linejoin="round"/>
<path d="M214.61 33.9992L214.58 41.4792" stroke="black" stroke-width="1.05622" stroke-linecap="round" stroke-linejoin="round"/>
<path d="M216.48 33.5392L216.46 41.0292" stroke="black" stroke-width="1.05622" stroke-linecap="round" stroke-linejoin="round"/>
<path d="M218.36 33.0892L218.34 40.5792" stroke="black" stroke-width="1.05622" stroke-linecap="round" stroke-linejoin="round"/>
<path d="M220.23 32.6292L220.21 40.1192" stroke="black" stroke-width="1.05622" stroke-linecap="round" stroke-linejoin="round"/>
<path d="M222.11 32.1792L222.09 39.6692" stroke="black" stroke-width="1.05622" stroke-linecap="round" stroke-linejoin="round"/>
<path d="M223.98 31.7192L223.96 39.2092" stroke="black" stroke-width="1.05622" stroke-linecap="round" stroke-linejoin="round"/>
<path d="M225.86 31.2692L225.84 38.7592" stroke="black" stroke-width="1.05622" stroke-linecap="round" stroke-linejoin="round"/>
<path d="M203.05 90.3992V102.679L207.32 103.199V99.4392L207.98 98.5392L207.72 96.2092L208.5 93.8692L208.62 93.2292L210.69 92.8392L210.82 91.9292L227.79 89.8692L227.67 87.1292L203.05 90.3992Z" fill="black" stroke="black" stroke-width="1.05622" stroke-linecap="round" stroke-linejoin="round"/>
<path d="M203.05 78.9592V90.3492L227.67 87.1292V74.8292L203.05 78.9592Z" fill="#3C9073" stroke="black" stroke-width="1.05622" stroke-linecap="round" stroke-linejoin="round"/>
<path d="M205.23 79.9592L205.21 87.4492" stroke="black" stroke-width="1.05622" stroke-linecap="round" stroke-linejoin="round"/>
<path d="M207.11 79.6992L207.08 87.1892" stroke="black" stroke-width="1.05622" stroke-linecap="round" stroke-linejoin="round"/>
<path d="M208.98 79.4392L208.96 86.9292" stroke="black" stroke-width="1.05622" stroke-linecap="round" stroke-linejoin="round"/>
<path d="M210.86 79.1892L210.83 86.6792" stroke="black" stroke-width="1.05622" stroke-linecap="round" stroke-linejoin="round"/>
<path d="M212.73 78.9392L212.71 86.4292" stroke="black" stroke-width="1.05622" stroke-linecap="round" stroke-linejoin="round"/>
<path d="M214.61 78.6792L214.58 86.1692" stroke="black" stroke-width="1.05622" stroke-linecap="round" stroke-linejoin="round"/>
<path d="M216.48 78.4292L216.46 85.9192" stroke="black" stroke-width="1.05622" stroke-linecap="round" stroke-linejoin="round"/>
<path d="M218.36 78.1692L218.34 85.6592" stroke="black" stroke-width="1.05622" stroke-linecap="round" stroke-linejoin="round"/>
<path d="M220.23 77.9092L220.21 85.3992" stroke="black" stroke-width="1.05622" stroke-linecap="round" stroke-linejoin="round"/>
<path d="M222.11 77.6592L222.09 85.1492" stroke="black" stroke-width="1.05622" stroke-linecap="round" stroke-linejoin="round"/>
<path d="M223.98 77.4092L223.96 84.8892" stroke="black" stroke-width="1.05622" stroke-linecap="round" stroke-linejoin="round"/>
<path d="M225.86 77.1492L225.84 84.6392" stroke="black" stroke-width="1.05622" stroke-linecap="round" stroke-linejoin="round"/>
<path d="M203.05 137.609V151.829L207.32 151.649V147.149L207.98 146.309L207.72 143.949L208.5 141.709L208.62 141.069L210.69 140.919L210.82 140.029L227.79 139.879L227.67 137.139L203.05 137.609Z" fill="black" stroke="black" stroke-width="1.05622" stroke-linecap="round" stroke-linejoin="round"/>
<path d="M203.05 126.179V137.579L227.67 137.139V124.829L203.05 126.179Z" fill="#3C9073" stroke="black" stroke-width="1.05622" stroke-linecap="round" stroke-linejoin="round"/>
<path d="M205.23 127.429L205.21 134.909" stroke="black" stroke-width="1.05622" stroke-linecap="round" stroke-linejoin="round"/>
<path d="M207.11 127.389L207.08 134.859" stroke="black" stroke-width="1.05622" stroke-linecap="round" stroke-linejoin="round"/>
<path d="M208.98 127.329L208.96 134.819" stroke="black" stroke-width="1.05622" stroke-linecap="round" stroke-linejoin="round"/>
<path d="M210.86 127.289L210.83 134.779" stroke="black" stroke-width="1.05622" stroke-linecap="round" stroke-linejoin="round"/>
<path d="M212.73 127.249L212.71 134.739" stroke="black" stroke-width="1.05622" stroke-linecap="round" stroke-linejoin="round"/>
<path d="M214.61 127.209L214.58 134.699" stroke="black" stroke-width="1.05622" stroke-linecap="round" stroke-linejoin="round"/>
<path d="M216.48 127.159L216.46 134.649" stroke="black" stroke-width="1.05622" stroke-linecap="round" stroke-linejoin="round"/>
<path d="M218.36 127.119L218.34 134.599" stroke="black" stroke-width="1.05622" stroke-linecap="round" stroke-linejoin="round"/>
<path d="M220.23 127.079L220.21 134.559" stroke="black" stroke-width="1.05622" stroke-linecap="round" stroke-linejoin="round"/>
<path d="M222.11 127.029L222.09 134.519" stroke="black" stroke-width="1.05622" stroke-linecap="round" stroke-linejoin="round"/>
<path d="M223.98 126.989L223.96 134.469" stroke="black" stroke-width="1.05622" stroke-linecap="round" stroke-linejoin="round"/>
<path d="M225.86 126.939L225.84 134.429" stroke="black" stroke-width="1.05622" stroke-linecap="round" stroke-linejoin="round"/>
<path d="M203.05 195.679V209.899L207.32 209.339V205.579L207.98 204.809L207.72 202.419L208.5 200.249L208.62 199.619L210.69 199.639L210.82 198.769L227.79 200.079L227.67 197.319L203.05 195.679Z" fill="black" stroke="black" stroke-width="1.05622" stroke-linecap="round" stroke-linejoin="round"/>
<path d="M203.05 184.239V195.649L227.67 197.319V184.999L203.05 184.239Z" fill="#3C9073" stroke="black" stroke-width="1.05622" stroke-linecap="round" stroke-linejoin="round"/>
<path d="M205.23 185.679L205.21 193.169" stroke="black" stroke-width="1.05622" stroke-linecap="round" stroke-linejoin="round"/>
<path d="M207.11 185.799L207.08 193.279" stroke="black" stroke-width="1.05622" stroke-linecap="round" stroke-linejoin="round"/>
<path d="M208.98 185.909L208.96 193.399" stroke="black" stroke-width="1.05622" stroke-linecap="round" stroke-linejoin="round"/>
<path d="M210.86 186.029L210.83 193.519" stroke="black" stroke-width="1.05622" stroke-linecap="round" stroke-linejoin="round"/>
<path d="M212.73 186.139L212.71 193.629" stroke="black" stroke-width="1.05622" stroke-linecap="round" stroke-linejoin="round"/>
<path d="M214.61 186.259L214.58 193.749" stroke="black" stroke-width="1.05622" stroke-linecap="round" stroke-linejoin="round"/>
<path d="M216.48 186.389L216.46 193.869" stroke="black" stroke-width="1.05622" stroke-linecap="round" stroke-linejoin="round"/>
<path d="M218.36 186.499L218.34 193.979" stroke="black" stroke-width="1.05622" stroke-linecap="round" stroke-linejoin="round"/>
<path d="M220.23 186.619L220.21 194.099" stroke="black" stroke-width="1.05622" stroke-linecap="round" stroke-linejoin="round"/>
<path d="M222.11 186.739L222.09 194.209" stroke="black" stroke-width="1.05622" stroke-linecap="round" stroke-linejoin="round"/>
<path d="M223.98 186.849L223.96 194.329" stroke="black" stroke-width="1.05622" stroke-linecap="round" stroke-linejoin="round"/>
<path d="M225.86 186.969L225.84 194.449" stroke="black" stroke-width="1.05622" stroke-linecap="round" stroke-linejoin="round"/>
<path d="M208.62 48.4492L203.55 47.3192" stroke="#3C9073" stroke-width="0.528112" stroke-linecap="round" stroke-linejoin="round"/>
<path d="M207.98 53.7692L203.42 52.9092" stroke="#3C9073" stroke-width="0.528112" stroke-linecap="round" stroke-linejoin="round"/>
<path d="M208.62 93.2292L203.42 92.8792" stroke="#3C9073" stroke-width="0.528112" stroke-linecap="round" stroke-linejoin="round"/>
<path d="M207.98 98.5392L203.28 97.9192" stroke="#3C9073" stroke-width="0.528112" stroke-linecap="round" stroke-linejoin="round"/>
<path d="M208.62 141.079H203.07" stroke="#3C9073" stroke-width="0.528112" stroke-linecap="round" stroke-linejoin="round"/>
<path d="M207.32 147.149H203.14" stroke="#3C9073" stroke-width="0.528112" stroke-linecap="round" stroke-linejoin="round"/>
<path d="M202.87 205.459L207.32 205.579" stroke="#3C9073" stroke-width="0.528112" stroke-linecap="round" stroke-linejoin="round"/>
<path d="M203.16 199.299L208.62 199.619" stroke="#3C9073" stroke-width="0.528112" stroke-linecap="round" stroke-linejoin="round"/>
<path d="M207.3 275.699L215.06 273.359" stroke="black" stroke-width="1.05622" stroke-linecap="round" stroke-linejoin="round"/>
<path d="M205.13 263.289L197.73 265.559L196.49 343.609L200.87 342.569L204.53 344.999L205.13 263.289Z" fill="black" stroke="black" stroke-width="1.05622" stroke-linecap="round" stroke-linejoin="round"/>
<path d="M207.73 294.379V315.739L213.37 309.159C213.728 308.49 213.94 307.754 213.993 306.997C214.047 306.241 213.94 305.482 213.68 304.769C212.79 302.539 207.73 294.379 207.73 294.379Z" fill="black" stroke="black" stroke-width="1.05622" stroke-linecap="round" stroke-linejoin="round"/>
<path d="M225.02 303.479L220.62 306.649C220.62 306.649 219.38 308.529 220.32 310.099C221.26 311.669 224.71 321.719 224.71 321.719L225.02 303.479Z" fill="black" stroke="black" stroke-width="1.05622" stroke-linecap="round" stroke-linejoin="round"/>
<path d="M210.89 317.289L215.6 311.999C215.6 311.999 216.54 311.059 218.11 313.569C219.861 316.936 221.43 320.394 222.81 323.929L210.89 317.289Z" fill="black" stroke="black" stroke-width="1.05622" stroke-linecap="round" stroke-linejoin="round"/>
<path d="M220.51 258.819L212.83 260.939L210.72 263.889V265.509L224.35 268.819L224.41 266.479C224.41 266.479 222.35 262.299 220.51 258.819Z" fill="black" stroke="black" stroke-width="1.05622" stroke-linecap="round" stroke-linejoin="round"/>
<path d="M224.39 270.819L220.62 273.019C220.939 274.113 221.361 275.175 221.88 276.189C222.82 278.069 225.05 281.829 225.05 281.829L224.39 270.819Z" fill="black" stroke="black" stroke-width="1.05622" stroke-linecap="round" stroke-linejoin="round"/>
<path d="M215.06 273.359L209.11 281.829H207.3V275.699" fill="black"/>
<path d="M215.06 273.359L209.11 281.829H207.3V275.699" stroke="black" stroke-width="1.05622" stroke-linecap="round" stroke-linejoin="round"/>
<path d="M224.36 290.119L210.73 286.879V285.249L216.85 276.599C216.85 276.599 217.75 275.159 219.74 278.759C221.73 282.359 224.43 287.759 224.43 287.759L224.36 290.119Z" fill="black" stroke="black" stroke-width="1.05622" stroke-linecap="round" stroke-linejoin="round"/>
<path d="M224.96 294.619L210.55 290.479V292.089L217.03 303.269C217.348 303.52 217.749 303.639 218.153 303.604C218.556 303.569 218.93 303.381 219.2 303.079C220.25 302.019 224.87 296.839 224.87 296.839L224.96 294.619" fill="black"/>
<path d="M224.96 294.619L210.55 290.479V292.089L217.03 303.269C217.348 303.52 217.749 303.639 218.153 303.604C218.556 303.569 218.93 303.381 219.2 303.079C220.25 302.019 224.87 296.839 224.87 296.839L224.96 294.619" stroke="black" stroke-width="1.05622" stroke-linecap="round" stroke-linejoin="round"/>
<path d="M207.73 324.999V346.369L213.37 341.309C213.746 340.662 213.97 339.937 214.023 339.19C214.077 338.443 213.96 337.694 213.68 336.999C212.79 334.509 207.73 324.999 207.73 324.999Z" fill="black" stroke="black" stroke-width="1.05622" stroke-linecap="round" stroke-linejoin="round"/>
<path d="M225.02 338.819L220.62 340.759C220.261 341.237 220.043 341.806 219.99 342.401C219.937 342.997 220.051 343.595 220.32 344.129C221.26 345.959 224.71 356.929 224.71 356.929L225.02 338.819Z" fill="black" stroke="black" stroke-width="1.05622" stroke-linecap="round" stroke-linejoin="round"/>
<path d="M224.96 329.889L210.55 321.889V323.499L217.03 336.429C217.03 336.429 218.09 337.629 219.2 336.829C220.31 336.029 224.87 332.119 224.87 332.119L224.96 329.929" fill="black"/>
<path d="M224.96 329.889L210.55 321.889V323.499L217.03 336.429C217.03 336.429 218.09 337.629 219.2 336.829C220.31 336.029 224.87 332.119 224.87 332.119L224.96 329.929" stroke="black" stroke-width="1.05622" stroke-linecap="round" stroke-linejoin="round"/>
<path d="M229.22 256.339L224.94 255.609V311.609" stroke="black" stroke-width="1.05622" stroke-linecap="round" stroke-linejoin="round"/>
<path d="M53.59 299.419L416.12 204.319" stroke="black" stroke-width="1.05622" stroke-linecap="round" stroke-linejoin="round"/>
<path d="M243.18 236.959L388.12 203.449" stroke="black" stroke-width="1.05622" stroke-linecap="round" stroke-linejoin="round"/>
<path d="M21.37 294.439L224.86 241.689" stroke="black" stroke-width="1.05622" stroke-linecap="round" stroke-linejoin="round"/>
<path d="M213.33 241.249L388.94 201.569" stroke="black" stroke-width="1.05622" stroke-linecap="round" stroke-linejoin="round"/>
<path d="M402.37 216.949C402.313 216.888 402.241 216.843 402.16 216.819L389.89 213.819L416.89 206.709L416.62 205.649L387.04 213.439C386.952 213.371 386.841 213.339 386.73 213.349C386.64 213.358 386.553 213.388 386.477 213.437C386.4 213.486 386.336 213.551 386.29 213.629V213.629L269.29 244.389V243.479L262.13 245.379V246.269L221.45 256.969L221.09 256.779L220.92 257.099L172.22 269.959L170.99 269.399C170.799 269.296 170.58 269.258 170.365 269.29C170.15 269.323 169.952 269.424 169.8 269.579L158.22 272.739V273.679L132.87 280.359L132.11 279.959C131.849 279.831 131.548 279.808 131.271 279.895C130.993 279.983 130.76 280.174 130.62 280.429C130.547 280.6 130.513 280.784 130.52 280.969L26.65 308.239L26.93 309.299L49.29 303.429C49.2173 303.665 49.2295 303.92 49.3244 304.148C49.4194 304.376 49.5911 304.564 49.81 304.679L69.88 315.599L71.08 316.969L43.22 325.419L43.53 326.419L104.03 308.149C104.127 308.181 104.228 308.198 104.33 308.199C104.489 308.205 104.648 308.173 104.792 308.105C104.937 308.037 105.063 307.936 105.16 307.809L158.16 291.809V293.479L170.55 289.479V288.069L192.22 281.549L192.85 281.839C192.99 281.907 193.144 281.941 193.3 281.939C193.513 281.953 193.725 281.899 193.905 281.784C194.085 281.668 194.224 281.499 194.3 281.299C194.361 281.174 194.395 281.038 194.4 280.899L262.13 260.439V262.089L269.3 259.889V258.279L413.46 214.759L413.14 213.699L402.37 216.949ZM142.77 280.329L149.69 289.009L142.77 285.439V280.329ZM141.29 279.199L138.71 283.339L134.28 281.049L141.29 279.199ZM116.48 287.279L123.68 294.959L116.48 291.229V287.279ZM115.22 286.059L113.22 289.529L109.45 287.579L115.22 286.059ZM107.22 288.179C107.201 288.394 107.248 288.61 107.356 288.798C107.463 288.986 107.625 289.136 107.82 289.229L112.13 291.459L103.92 305.619L97.44 302.109L86.88 293.549L107.22 288.179ZM92.07 299.179L86.22 295.999V294.469L92.07 299.179ZM84.14 294.879L83.35 294.459L84.57 294.129L84.14 294.879ZM51.23 302.879L57.81 301.149L57.55 301.379L65.73 310.819L51.23 302.879ZM68.55 312.279L58.63 300.939L81.28 294.939C81.2385 295.163 81.2694 295.394 81.3684 295.599C81.4673 295.804 81.629 295.972 81.83 296.079L83.04 296.729L72.72 314.569L68.55 312.279ZM73.2 316.279L73.33 316.109C73.417 315.932 73.455 315.736 73.44 315.539L84 297.279L85.12 297.879V312.669L73.2 316.279ZM86.2 312.349V298.549L101.54 306.869L102.36 307.539L86.2 312.349ZM115.38 303.529L105.27 306.619C105.178 306.417 105.028 306.247 104.84 306.129L113.06 291.949L115.37 293.139L115.38 303.529ZM115.38 290.629L114.17 289.999L115.38 287.889V290.629ZM116.44 303.209V293.699L128.06 299.699L116.44 303.209ZM126.58 296.439L116.48 285.679L131.05 281.849L137.51 285.189L129.57 298.009L126.58 296.439ZM141.58 295.599L130.58 298.959C130.545 298.844 130.491 298.736 130.42 298.639L138.42 285.729L141.59 287.349L141.58 295.599ZM141.58 284.839L139.58 283.779L141.58 280.609V284.839ZM142.63 295.259V287.869L151.7 292.579L142.63 295.259ZM158.03 290.619L154.55 291.669L158.03 286.199V290.619ZM158.03 284.149L153.57 291.149C153.477 291.04 153.365 290.949 153.24 290.879L151.95 290.209L142.94 278.819L158.22 274.819L158.03 284.149ZM251.22 251.819L251.32 251.619L256.69 259.789L251.22 257.819V251.819ZM170.44 286.949V279.269L175.72 285.359L170.44 286.949ZM170.44 277.579V271.579L180.44 276.169L176.5 284.619L170.44 277.579ZM184.15 282.819L177.73 284.759L181.51 276.659L184.15 277.869V282.819ZM184.15 275.429L182.44 274.649L184.15 270.969V275.429ZM185.26 282.429V278.319L190.68 280.789L185.26 282.429ZM185.26 275.889V269.949L193.59 279.709L185.26 275.889ZM202.73 277.159L195.79 279.269L202.73 265.629V277.159ZM202.78 263.059L194.59 279.179L185.08 268.099C185.021 268.028 184.945 267.974 184.86 267.941C184.774 267.907 184.681 267.896 184.59 267.909C184.499 267.92 184.413 267.953 184.338 268.006C184.263 268.058 184.202 268.128 184.16 268.209L181.39 274.149L173.69 270.629L202.81 262.979L202.78 263.059ZM203.84 276.819V264.919L211.54 274.539L203.84 276.819ZM203.72 262.949C203.659 262.885 203.588 262.831 203.51 262.789L220.22 258.399L212.31 273.719L203.72 262.949ZM213.47 273.949L221.67 258.099L237.51 253.949L247.42 257.419L243.85 264.819L213.47 273.949ZM250.24 262.949L245.3 264.439L248.46 257.819L250.22 258.429L250.24 262.949ZM250.24 257.549L248.85 257.069L250.24 254.169V257.549ZM250.24 251.629L247.8 256.629L238.96 253.539L250.24 250.539V251.629ZM250.76 250.569H250.58L250.78 250.519L250.76 250.569ZM251.34 262.639V258.729L257.18 260.729L251.34 262.639ZM251.82 250.269L253.44 249.829L262.1 252.829L257.94 259.529L251.82 250.269ZM262.22 259.329L258.7 260.389L262.22 254.709V259.329ZM262.22 251.999L254.82 249.429L262.22 247.499V251.999ZM385.56 214.999L383.94 217.859L379.37 216.629L385.56 214.999ZM375.22 217.759L373.11 221.339L367.55 219.819L375.22 217.759ZM375.71 219.109V222.109L374.19 221.679L375.71 219.109ZM365.38 221.739L368.3 226.119L365.38 225.289V221.739ZM363.78 220.679L361.9 224.249L356.29 222.649L363.78 220.679ZM353.95 224.679L357.54 229.529L353.95 228.479V224.679ZM352.51 223.619L350.76 227.569L344.42 225.749L352.51 223.619ZM343.66 227.709L347.41 232.389L343.66 231.269V227.709ZM342.41 226.269L340.3 230.269L334.22 228.439L342.41 226.269ZM331.21 229.269L328.4 234.269L320.86 231.999L331.21 229.269ZM317.6 232.909L315.31 237.379L308.58 235.269L317.6 232.909ZM317.72 235.099V238.099L316.38 237.689L317.72 235.099ZM303.33 236.669L301.51 241.019L294.77 238.909L303.33 236.669ZM269.41 257.149V255.319L272.16 256.319L269.41 257.149ZM269.41 254.479V251.149L272.22 255.419L269.41 254.479ZM269.41 249.199V246.669L276.41 249.139L273.32 255.199L269.41 249.199ZM279.41 254.199L274.28 255.689L277.45 249.479L279.37 250.159L279.41 254.199ZM279.41 249.329L277.87 248.799L279.41 245.799V249.329ZM279.93 242.919C279.834 242.926 279.742 242.958 279.661 243.01C279.581 243.063 279.515 243.134 279.47 243.219L276.81 248.429L269.42 245.829V245.669L280.07 242.869C280.065 242.88 280.063 242.892 280.063 242.904C280.063 242.916 280.065 242.928 280.07 242.939C280.024 242.902 279.969 242.878 279.91 242.869L279.93 242.919ZM280.52 253.919V250.579L285.52 252.339L280.52 253.919ZM280.52 249.749V245.189L284.75 251.189L280.52 249.749ZM280.45 243.239L288.82 245.849L286.16 251.299L280.45 243.239ZM291.45 250.629L287.07 251.819L289.88 246.059L291.4 246.539L291.45 250.629ZM291.45 245.789L290.22 245.319L291.38 242.939L291.45 245.789ZM292.56 250.299V247.009L297.92 248.679L292.56 250.299ZM292.56 246.139V242.139L296.95 247.419L292.56 246.139ZM292.43 240.309C292.373 240.237 292.297 240.181 292.211 240.148C292.125 240.114 292.031 240.104 291.94 240.119C291.848 240.131 291.761 240.166 291.686 240.22C291.611 240.274 291.551 240.346 291.51 240.429L289.21 245.089L281.21 242.589L293.45 239.369C293.471 239.418 293.502 239.461 293.542 239.496C293.582 239.53 293.629 239.555 293.68 239.569L301.17 241.909L298.67 247.909L292.43 240.309ZM303.43 247.009L299.79 248.059L302.24 242.209L303.43 242.579V247.009ZM303.43 241.729L302.55 241.449L303.43 239.339V241.729ZM304.49 246.649V242.819L310.54 244.709L304.49 246.649ZM304.49 242.069V237.819L310.82 243.929L304.49 242.069ZM304.49 236.449L306.98 235.789L314.84 238.229L312.03 243.719L304.49 236.449ZM313.1 244.029L315.9 238.569L317.63 239.099V242.639H317.73L313.1 244.029ZM318.73 242.329V239.449L323.43 240.909L318.73 242.329ZM318.73 238.579V234.349L323.94 240.199L318.73 238.579ZM318.73 232.699L319.26 232.559L327.92 235.169L325.22 239.819L318.73 232.699ZM331.36 238.529L326.49 239.999L329 235.499L331.36 236.199V238.529ZM331.36 235.359L329.42 234.769L331.36 231.319V235.359ZM332.41 238.199V236.549L335.15 237.379L332.41 238.199ZM332.41 235.689V231.009L336.41 236.889L332.41 235.689ZM332.41 229.089H332.54L339.78 231.269L337.22 236.069L332.41 229.089ZM342.41 235.169L338.29 236.409L340.84 231.559L342.41 232.019V235.169ZM342.41 231.169L341.23 230.829L342.41 228.609V231.169ZM343.46 234.859V232.329L347.59 233.569L343.46 234.859ZM343.95 226.779L350.22 228.579L348.66 232.429L343.95 226.779ZM352.64 232.059L349.47 233.059L351.32 228.889L352.67 229.279L352.64 232.059ZM352.64 228.399L351.58 228.099L352.64 225.809V228.399ZM353.75 231.729V229.569L357.44 230.629L353.75 231.729ZM354.01 223.389L354.53 223.249L361.3 225.199L358.83 229.899L354.01 223.389ZM364.07 228.609L360.13 229.799L362.39 225.499L364.07 225.989V228.609ZM364.07 225.119L362.78 224.749L364.07 222.299V225.119ZM365.18 228.289V226.289L368.55 227.289L365.18 228.289ZM369.74 226.749L365.52 220.409L365.83 220.329L372.48 222.219L369.76 226.779L369.74 226.749ZM371.2 226.469L373.55 222.469L375.55 223.029V224.819H376.32L371.2 226.469ZM376.61 224.839V223.369L379.11 224.089L376.61 224.839ZM376.61 222.509V218.819L379.77 223.279L376.61 222.509ZM376.85 217.399L377.79 217.149C377.843 217.235 377.924 217.299 378.02 217.329L383.3 218.749L380.84 223.059L376.85 217.399ZM386.07 221.969L382.07 223.189L384.43 219.049L386.08 219.489L386.07 221.969ZM386.07 218.639L384.84 218.309L386.07 216.199V218.639ZM387.18 221.639V219.749L390.43 220.619L387.18 221.639ZM387.18 218.919V215.619L390.64 219.839L387.18 218.919ZM391.97 220.189L392.2 220.009L387.89 214.469L388.24 214.369L400.91 217.439L391.97 220.189Z" fill="black" stroke="black" stroke-width="1.05622" stroke-linecap="round" stroke-linejoin="round"/>
<path d="M25.66 289.869L195.8 246.019" stroke="black" stroke-width="1.05622" stroke-linecap="round" stroke-linejoin="round"/>
<path d="M186.02 48.8892V264.769" stroke="black" stroke-width="1.05622" stroke-linecap="round" stroke-linejoin="round"/>
<path d="M159.77 62.4492V270.659" stroke="black" stroke-width="1.05622" stroke-linecap="round" stroke-linejoin="round"/>
<path d="M115.16 86.0692V282.039" stroke="black" stroke-width="1.05622" stroke-linecap="round" stroke-linejoin="round"/>
<path d="M31.61 127.629V280.659" stroke="black" stroke-width="1.05622" stroke-linecap="round" stroke-linejoin="round"/>
<path d="M139.22 73.8092V276.359" stroke="black" stroke-width="1.05622" stroke-linecap="round" stroke-linejoin="round"/>
<path d="M89.36 99.6292V289.499" stroke="black" stroke-width="1.05622" stroke-linecap="round" stroke-linejoin="round"/>
<path d="M249.01 35.3292V247.479" stroke="black" stroke-width="1.05622" stroke-linecap="round" stroke-linejoin="round"/>
<path d="M263.89 49.7592V244.489" stroke="black" stroke-width="1.05622" stroke-linecap="round" stroke-linejoin="round"/>
<path d="M275.26 61.1292V240.429" stroke="black" stroke-width="1.05622" stroke-linecap="round" stroke-linejoin="round"/>
<path d="M288.82 71.1992V237.419" stroke="black" stroke-width="1.05622" stroke-linecap="round" stroke-linejoin="round"/>
<path d="M299.76 82.5692V233.909" stroke="black" stroke-width="1.05622" stroke-linecap="round" stroke-linejoin="round"/>
<path d="M311.57 93.0692V231.419" stroke="black" stroke-width="1.05622" stroke-linecap="round" stroke-linejoin="round"/>
<path d="M320.32 100.939V229.109" stroke="black" stroke-width="1.05622" stroke-linecap="round" stroke-linejoin="round"/>
<path d="M329.94 109.249V227.359" stroke="black" stroke-width="1.05622" stroke-linecap="round" stroke-linejoin="round"/>
<path d="M338.69 116.689V224.219" stroke="black" stroke-width="1.05622" stroke-linecap="round" stroke-linejoin="round"/>
<path d="M347.88 124.119V221.519" stroke="black" stroke-width="1.05622" stroke-linecap="round" stroke-linejoin="round"/>
<path d="M356.19 130.249V218.809" stroke="black" stroke-width="1.05622" stroke-linecap="round" stroke-linejoin="round"/>
<path d="M364.5 135.929V218.179" stroke="black" stroke-width="1.05622" stroke-linecap="round" stroke-linejoin="round"/>
<path d="M371.06 140.309V215.989" stroke="black" stroke-width="1.05622" stroke-linecap="round" stroke-linejoin="round"/>
<path d="M378.06 145.999V213.409" stroke="black" stroke-width="1.05622" stroke-linecap="round" stroke-linejoin="round"/>
<path d="M385.5 149.489V192.799" stroke="black" stroke-width="1.05622" stroke-linecap="round" stroke-linejoin="round"/>
<path d="M392.49 154.739V206.559" stroke="black" stroke-width="1.05622" stroke-linecap="round" stroke-linejoin="round"/>
<path d="M245.52 66.3792V236.149" stroke="black" stroke-width="1.05622" stroke-linecap="round" stroke-linejoin="round"/>
<path d="M258.2 76.4392V233.479" stroke="black" stroke-width="1.05622" stroke-linecap="round" stroke-linejoin="round"/>
<path d="M272.2 87.8192V229.699" stroke="black" stroke-width="1.05622" stroke-linecap="round" stroke-linejoin="round"/>
<path d="M281.82 95.6892V227.799" stroke="black" stroke-width="1.05622" stroke-linecap="round" stroke-linejoin="round"/>
<path d="M292.32 104.449V225.169" stroke="black" stroke-width="1.05622" stroke-linecap="round" stroke-linejoin="round"/>
<path d="M302.82 110.999V222.549" stroke="black" stroke-width="1.05622" stroke-linecap="round" stroke-linejoin="round"/>
<path d="M344.81 142.059V212.929" stroke="black" stroke-width="1.05622" stroke-linecap="round" stroke-linejoin="round"/>
<path d="M187.34 39.2692V247.539" stroke="black" stroke-width="1.05622" stroke-linecap="round" stroke-linejoin="round"/>
<path d="M169.84 47.1292V251.749" stroke="black" stroke-width="1.05622" stroke-linecap="round" stroke-linejoin="round"/>
<path d="M150.6 58.9392V257.109" stroke="black" stroke-width="1.05622" stroke-linecap="round" stroke-linejoin="round"/>
<path d="M130.47 68.5692V263.229" stroke="black" stroke-width="1.05622" stroke-linecap="round" stroke-linejoin="round"/>
<path d="M110.79 79.5092V266.729" stroke="black" stroke-width="1.05622" stroke-linecap="round" stroke-linejoin="round"/>
<path d="M86.73 92.1892V266.289" stroke="black" stroke-width="1.05622" stroke-linecap="round" stroke-linejoin="round"/>
<path d="M35.98 117.999V263.599" stroke="black" stroke-width="1.05622" stroke-linecap="round" stroke-linejoin="round"/>
<path d="M62.23 103.569L62.66 112.309V273.449" stroke="black" stroke-width="1.05622" stroke-linecap="round" stroke-linejoin="round"/>
<path d="M215.62 257.109V30.6992" stroke="black" stroke-width="1.05622" stroke-linecap="round" stroke-linejoin="round"/>
<path d="M238.07 25.9192C238.07 25.9192 237.78 22.9192 235.31 22.0092C232.84 21.0992 230.55 20.7092 228.98 22.2992C228.041 23.2187 227.37 24.3769 227.04 25.6492" fill="black"/>
<path d="M238.07 25.9192C238.07 25.9192 237.78 22.9192 235.31 22.0092C232.84 21.0992 230.55 20.7092 228.98 22.2992C228.041 23.2187 227.37 24.3769 227.04 25.6492" stroke="black" stroke-width="1.05622" stroke-linecap="round" stroke-linejoin="round"/>
<path d="M224.82 253.809L224.3 183.319L226.24 180.739L225.72 121.909L226.89 120.349L226.51 72.4192L227.67 70.5992L227.02 25.6492L230.65 24.7392L231.43 70.3492L230 71.5092L230.65 120.489L229.22 121.779L230 181.379L228.7 183.449L228.97 254.969L224.82 253.809Z" fill="#3C9073" stroke="black" stroke-width="1.05622" stroke-linecap="round" stroke-linejoin="round"/>
<path d="M229.14 352.049L229.22 256.339L224.94 255.609L225.29 356.599" fill="#3C9073"/>
<path d="M229.14 352.049L229.22 256.339L224.94 255.609L225.29 356.599" stroke="black" stroke-width="1.05622" stroke-linecap="round" stroke-linejoin="round"/>
<path d="M243.81 345.529V255.169C243.81 255.169 237.17 256.929 233.34 256.339C229.51 255.749 229.22 256.339 229.22 256.339V350.539" fill="black"/>
<path d="M243.81 345.529V255.169C243.81 255.169 237.17 256.929 233.34 256.339C229.51 255.749 229.22 256.339 229.22 256.339V350.539" stroke="black" stroke-width="1.05622" stroke-linecap="round" stroke-linejoin="round"/>
<path d="M230.84 21.4292L232.14 17.9592H233.58L235.33 22.0092" fill="black"/>
<path d="M230.84 21.4292L232.14 17.9592H233.58L235.33 22.0092" stroke="black" stroke-width="1.05622" stroke-linecap="round" stroke-linejoin="round"/>
<path d="M228.96 22.2992C228.96 22.2992 111.96 92.6292 6.95999 138.989" stroke="black" stroke-width="3.16867" stroke-linecap="round" stroke-linejoin="round"/>
<path d="M237.35 24.0992C237.35 24.0992 330.35 112.749 362.75 134.339C395.15 155.929 413.22 166.409 413.22 166.409" stroke="black" stroke-width="3.16867" stroke-linecap="round" stroke-linejoin="round"/>
<path d="M222.1 254.579C222.1 254.579 225.85 257.749 235.05 256.689C244.25 255.629 249.22 252.269 249.22 252.269V250.599L242.89 249.539L242.63 182.419L241.53 180.819L241.79 122.519L240.47 120.189L240.11 72.8192L238.81 70.4892L238.55 26.3492L230.65 24.8192L231.43 70.4292L230 71.5892L230.65 120.589L229.22 121.819L230 181.419L228.7 183.539L228.97 255.049L224.82 253.889L222.1 254.579Z" fill="black" stroke="black" stroke-width="1.05622" stroke-linecap="round" stroke-linejoin="round"/>
</svg>
