<svg xmlns="http://www.w3.org/2000/svg" width="116" height="56" fill="none" viewBox="0 0 116 56"><g clip-path="url(#clip0)"><g filter="url(#filter0_d)"><path fill="#238A89" d="M0 14a9 9 0 019-9h91.692a9 9 0 019 9v28a9 9 0 01-9 9H9a9 9 0 01-9-9V14z"/><path stroke="#000" stroke-width="3" d="M9 6.5h91.692a7.5 7.5 0 017.5 7.5v28a7.5 7.5 0 01-7.5 7.5H9A7.5 7.5 0 011.5 42V14A7.5 7.5 0 019 6.5z"/></g><g filter="url(#filter1_d)"><path fill="#353638" d="M33.067 42l-.04-16.8-8.24 13.84h-2.92l-8.2-13.48V42h-6.08V14h5.36l10.48 17.4L33.747 14h5.32l.08 28h-6.08zm27.763-9.92V42h-6.48V32L43.51 14h6.88l7.48 12.44L65.35 14h6.36L60.83 32.08zM101.428 14v28h-6.48V30.52h-12.72V42h-6.48V14h6.48v11.04h12.72V14h6.48z"/></g></g><defs><filter id="filter0_d" width="119.692" height="54" x="0" y="5" color-interpolation-filters="sRGB" filterUnits="userSpaceOnUse"><feFlood flood-opacity="0" result="BackgroundImageFix"/><feColorMatrix in="SourceAlpha" values="0 0 0 0 0 0 0 0 0 0 0 0 0 0 0 0 0 0 127 0"/><feOffset dx="6" dy="4"/><feGaussianBlur stdDeviation="2"/><feColorMatrix values="0 0 0 0 0 0 0 0 0 0 0 0 0 0 0 0 0 0 0.25 0"/><feBlend in2="BackgroundImageFix" result="effect1_dropShadow"/><feBlend in="SourceGraphic" in2="effect1_dropShadow" result="shape"/></filter><filter id="filter1_d" width="101.841" height="36" x="7.587" y="14" color-interpolation-filters="sRGB" filterUnits="userSpaceOnUse"><feFlood flood-opacity="0" result="BackgroundImageFix"/><feColorMatrix in="SourceAlpha" values="0 0 0 0 0 0 0 0 0 0 0 0 0 0 0 0 0 0 127 0"/><feOffset dx="4" dy="4"/><feGaussianBlur stdDeviation="2"/><feColorMatrix values="0 0 0 0 0 0 0 0 0 0 0 0 0 0 0 0 0 0 0.25 0"/><feBlend in2="BackgroundImageFix" result="effect1_dropShadow"/><feBlend in="SourceGraphic" in2="effect1_dropShadow" result="shape"/></filter><clipPath id="clip0"><path fill="#fff" d="M0 0h116v56H0z"/></clipPath></defs></svg>