<svg width="1465" height="224" viewBox="0 0 1465 224" fill="none" xmlns="http://www.w3.org/2000/svg">
<g filter="url(#filter0_d)">
<rect x="4" width="1457" height="216" rx="33" fill="#1A7968"/>
<rect x="4" width="1457" height="216" rx="33" fill="url(#paint0_linear)"/>
<g filter="url(#filter1_d)">
<path d="M109.225 155.703H93.7559L39.9669 71.1875V155H26.7481L26.7481 53.8906H42.2169L96.0059 138.406V53.8906H109.225V155.703ZM141.914 53.8906L155.133 53.8906V155H141.914V53.8906ZM256.588 152.117C252.229 153.477 247.612 154.578 242.737 155.422C237.909 156.266 232.588 156.688 226.776 156.688C212.432 156.688 201.604 152.398 194.292 143.82C186.979 135.242 183.323 122.609 183.323 105.922C183.323 88.2031 186.979 74.8438 194.292 65.8438C201.604 56.8437 212.432 52.3437 226.776 52.3437C232.213 52.3437 237.088 52.8125 241.401 53.75C245.76 54.6875 249.956 55.9062 253.987 57.4062L250.331 67.8125C248.409 67.1094 246.51 66.4766 244.635 65.9141C242.76 65.3516 240.862 64.8828 238.94 64.5078C237.065 64.1328 235.12 63.8516 233.104 63.6641C231.088 63.4766 228.979 63.3828 226.776 63.3828C221.573 63.3828 217.096 64.3203 213.346 66.1953C209.596 68.0234 206.502 70.7187 204.065 74.2812C201.627 77.7969 199.823 82.1094 198.651 87.2188C197.479 92.2812 196.893 98.0469 196.893 104.516C196.893 111.172 197.479 117.055 198.651 122.164C199.823 127.273 201.627 131.586 204.065 135.102C206.502 138.57 209.596 141.195 213.346 142.977C217.096 144.758 221.573 145.648 226.776 145.648C231.557 145.648 236.104 145.25 240.417 144.453C244.729 143.656 249.018 142.602 253.284 141.289L256.588 152.117ZM280.981 53.8906H337.091V64.7188H294.2V92.6328H324.575V103.461H294.2V144.172H338.708V155H280.981V53.8906ZM412.384 140.305C414.306 141.055 416.322 141.758 418.431 142.414C420.587 143.07 422.767 143.633 424.97 144.102C427.22 144.57 429.47 144.945 431.72 145.227C433.97 145.508 436.173 145.648 438.329 145.648C442.032 145.648 445.384 145.227 448.384 144.383C451.384 143.539 453.962 142.32 456.118 140.727C458.275 139.086 459.939 137.094 461.111 134.75C462.282 132.359 462.868 129.641 462.868 126.594C462.868 123.547 462.306 121.062 461.181 119.141C460.103 117.172 458.509 115.531 456.4 114.219C454.337 112.906 451.782 111.805 448.736 110.914C445.689 109.977 442.22 109.016 438.329 108.031C434.017 106.906 430.032 105.664 426.376 104.305C422.767 102.898 419.626 101.094 416.954 98.8906C414.329 96.6875 412.267 93.9687 410.767 90.7344C409.267 87.4531 408.517 83.375 408.517 78.5C408.517 74.5156 409.314 70.9062 410.907 67.6719C412.501 64.4375 414.751 61.6953 417.657 59.4453C420.564 57.1484 424.056 55.3906 428.134 54.1719C432.212 52.9531 436.712 52.3437 441.634 52.3437C444.025 52.3437 446.462 52.5078 448.947 52.8359C451.431 53.1172 453.892 53.5156 456.329 54.0312C458.767 54.5469 461.157 55.1797 463.501 55.9297C465.845 56.6797 468.048 57.5 470.111 58.3906L465.892 68.7969C464.204 68.1406 462.47 67.4844 460.689 66.8281C458.954 66.1719 457.103 65.5859 455.134 65.0703C453.165 64.5547 451.056 64.1562 448.806 63.875C446.603 63.5469 444.212 63.3828 441.634 63.3828C439.056 63.3828 436.595 63.6641 434.251 64.2266C431.907 64.7891 429.822 65.6797 427.993 66.8984C426.212 68.0703 424.782 69.6172 423.704 71.5391C422.626 73.4609 422.087 75.7812 422.087 78.5C422.087 81.5469 422.626 84.0547 423.704 86.0234C424.829 87.9453 426.423 89.5625 428.486 90.875C430.595 92.1875 433.173 93.3125 436.22 94.25C439.267 95.1406 442.736 96.0781 446.626 97.0625C450.939 98.1875 454.9 99.4531 458.509 100.859C462.165 102.219 465.306 104 467.931 106.203C470.603 108.406 472.689 111.148 474.189 114.43C475.689 117.711 476.439 121.766 476.439 126.594C476.439 131.703 475.478 136.156 473.556 139.953C471.681 143.703 469.032 146.82 465.611 149.305C462.236 151.789 458.204 153.641 453.517 154.859C448.876 156.078 443.814 156.688 438.329 156.688C427.97 156.688 417.915 154.695 408.165 150.711L412.384 140.305ZM495.558 53.8906H571.285V64.7187H540.207V155H526.988V64.7187H495.558V53.8906ZM662.052 53.8906H675.271V112.32C675.271 127.039 671.967 138.125 665.357 145.578C658.748 152.984 648.599 156.687 634.912 156.687C608.099 156.687 594.693 141.898 594.693 112.32V53.8906H607.912V112.391C607.912 117.547 608.357 122.094 609.248 126.031C610.138 129.922 611.592 133.391 613.607 136.438C615.623 139.437 618.412 141.734 621.974 143.328C625.537 144.875 629.849 145.648 634.912 145.648C639.037 145.648 642.67 145.133 645.81 144.102C648.998 143.023 651.599 141.547 653.615 139.672C655.631 137.797 657.271 135.453 658.537 132.641C659.849 129.781 660.763 126.734 661.279 123.5C661.795 120.219 662.052 116.516 662.052 112.391V53.8906ZM705.781 53.8906H761.891V64.7187H719V92.6328H749.375V103.461H719V155H705.781V53.8906ZM785.369 53.8906H841.479V64.7187H798.588V92.6328H828.963V103.461H798.588V155H785.369V53.8906ZM904.327 53.8906L980.053 53.8906V64.7187H948.975V155H935.757V64.7187H904.327V53.8906ZM1087.98 104.445C1087.98 121.367 1084.16 134.305 1076.52 143.258C1068.88 152.211 1057.91 156.687 1043.61 156.687C1029.45 156.687 1018.51 152.234 1010.77 143.328C1003.09 134.375 999.243 121.414 999.243 104.445C999.243 87.5234 1003.11 74.6094 1010.84 65.7031C1018.58 56.7969 1029.5 52.3437 1043.61 52.3437C1057.91 52.3437 1068.88 56.8437 1076.52 65.8437C1084.16 74.7969 1087.98 87.6641 1087.98 104.445ZM1074.41 104.445C1074.41 91.4141 1071.83 81.3125 1066.67 74.1406C1061.56 66.9687 1053.85 63.3828 1043.54 63.3828C1033.18 63.3828 1025.47 67.0156 1020.41 74.2812C1015.34 81.5 1012.81 91.5547 1012.81 104.445C1012.81 110.773 1013.4 116.445 1014.57 121.461C1015.79 126.43 1017.62 130.742 1020.06 134.398C1022.54 138.008 1025.75 140.797 1029.69 142.766C1033.67 144.687 1038.29 145.648 1043.54 145.648C1053.85 145.648 1061.56 142.062 1066.67 134.891C1071.83 127.672 1074.41 117.523 1074.41 104.445Z" fill="#20AA91"/>
<path d="M1192.38 53.8906C1197.16 53.8906 1201.64 54.2656 1205.81 55.0156C1210.03 55.7187 1213.71 56.9844 1216.85 58.8125C1219.99 60.6406 1222.47 63.125 1224.3 66.2656C1226.13 69.4062 1227.04 73.4141 1227.04 78.2891C1227.04 81.1953 1226.72 83.7734 1226.06 86.0234C1225.4 88.2734 1224.47 90.2656 1223.25 92C1222.08 93.7344 1220.62 95.2344 1218.89 96.5C1217.15 97.7187 1215.23 98.75 1213.12 99.5937V99.7344C1215.7 100.391 1218.16 101.398 1220.51 102.758C1222.9 104.117 1224.98 105.852 1226.76 107.961C1228.54 110.07 1229.95 112.578 1230.98 115.484C1232.06 118.344 1232.6 121.602 1232.6 125.258C1232.6 130.555 1231.66 135.078 1229.79 138.828C1227.91 142.578 1225.31 145.648 1221.98 148.039C1218.7 150.43 1214.81 152.187 1210.31 153.312C1205.86 154.437 1201.03 155 1195.83 155H1160.53V53.8906L1192.38 53.8906ZM1192.17 95.4453C1195.54 95.4453 1198.57 95.1641 1201.24 94.6016C1203.91 94.0391 1206.16 93.1016 1207.99 91.7891C1209.86 90.4297 1211.29 88.6484 1212.28 86.4453C1213.31 84.1953 1213.83 81.4297 1213.83 78.1484C1213.83 75.3359 1213.24 73.0156 1212.07 71.1875C1210.9 69.3594 1209.3 67.9297 1207.29 66.8984C1205.27 65.8672 1202.95 65.1641 1200.33 64.7891C1197.7 64.3672 1194.98 64.1562 1192.17 64.1562H1173.75V95.4453H1192.17ZM1195.83 144.734C1199.11 144.734 1202.18 144.312 1205.04 143.469C1207.94 142.625 1210.45 141.383 1212.56 139.742C1214.67 138.102 1216.33 136.062 1217.55 133.625C1218.77 131.187 1219.38 128.375 1219.38 125.187C1219.38 122 1218.77 119.211 1217.55 116.82C1216.33 114.383 1214.67 112.344 1212.56 110.703C1210.45 109.062 1207.94 107.82 1205.04 106.977C1202.18 106.133 1199.11 105.711 1195.83 105.711H1173.75V144.734H1195.83ZM1324.35 53.8906H1337.57V112.32C1337.57 127.039 1334.27 138.125 1327.66 145.578C1321.05 152.984 1310.9 156.687 1297.21 156.687C1270.4 156.687 1256.99 141.898 1256.99 112.32V53.8906H1270.21V112.391C1270.21 117.547 1270.66 122.094 1271.55 126.031C1272.44 129.922 1273.89 133.391 1275.91 136.437C1277.92 139.437 1280.71 141.734 1284.27 143.328C1287.84 144.875 1292.15 145.648 1297.21 145.648C1301.34 145.648 1304.97 145.133 1308.11 144.102C1311.3 143.023 1313.9 141.547 1315.91 139.672C1317.93 137.797 1319.57 135.453 1320.84 132.641C1322.15 129.781 1323.06 126.734 1323.58 123.5C1324.09 120.219 1324.35 116.516 1324.35 112.391V53.8906ZM1431.08 53.8906H1446.13L1409.56 109.437V155H1396.42V109.437L1359.85 53.8906H1374.9L1402.96 98.6094L1431.08 53.8906Z" fill="#04FFFF"/>
</g>
</g>
<defs>
<filter id="filter0_d" x="0" y="0" width="1465" height="224" filterUnits="userSpaceOnUse" color-interpolation-filters="sRGB">
<feFlood flood-opacity="0" result="BackgroundImageFix"/>
<feColorMatrix in="SourceAlpha" type="matrix" values="0 0 0 0 0 0 0 0 0 0 0 0 0 0 0 0 0 0 127 0"/>
<feOffset dy="4"/>
<feGaussianBlur stdDeviation="2"/>
<feColorMatrix type="matrix" values="0 0 0 0 0 0 0 0 0 0 0 0 0 0 0 0 0 0 0.25 0"/>
<feBlend mode="normal" in2="BackgroundImageFix" result="effect1_dropShadow"/>
<feBlend mode="normal" in="SourceGraphic" in2="effect1_dropShadow" result="shape"/>
</filter>
<filter id="filter1_d" x="26.748" y="52.3438" width="1428.38" height="112.344" filterUnits="userSpaceOnUse" color-interpolation-filters="sRGB">
<feFlood flood-opacity="0" result="BackgroundImageFix"/>
<feColorMatrix in="SourceAlpha" type="matrix" values="0 0 0 0 0 0 0 0 0 0 0 0 0 0 0 0 0 0 127 0"/>
<feOffset dx="5" dy="4"/>
<feGaussianBlur stdDeviation="2"/>
<feColorMatrix type="matrix" values="0 0 0 0 0 0 0 0 0 0 0 0 0 0 0 0 0 0 0.25 0"/>
<feBlend mode="normal" in2="BackgroundImageFix" result="effect1_dropShadow"/>
<feBlend mode="normal" in="SourceGraphic" in2="effect1_dropShadow" result="shape"/>
</filter>
<linearGradient id="paint0_linear" x1="1162.5" y1="-5.23944e-05" x2="-12" y2="6.90034e-05" gradientUnits="userSpaceOnUse">
<stop stop-color="#0D2324"/>
<stop offset="1" stop-color="#FEFEFE" stop-opacity="0"/>
</linearGradient>
</defs>
</svg>
