<svg width="205" height="117" viewBox="0 0 205 117" fill="none" xmlns="http://www.w3.org/2000/svg">
<path d="M167.565 49.7763C167.565 49.7763 177.538 50.5153 182.589 55.1414C182.589 55.1414 187.932 49.7828 197.521 49.8935C199.865 47.7781 201.357 45.2081 201.824 42.4828C202.291 39.7574 201.714 36.9888 200.16 34.4994C198.606 32.01 196.138 29.9021 193.045 28.4212C189.952 26.9402 186.36 26.1472 182.688 26.1345C179.016 26.1217 175.415 26.8897 172.303 28.349C169.192 29.8084 166.699 31.899 165.114 34.3775C163.529 36.8561 162.917 39.6205 163.35 42.349C163.784 45.0774 165.244 47.6577 167.561 49.7893L167.565 49.7763Z" fill="#6FC3A4"/>
<path opacity="0.5" d="M167.565 49.7763C167.565 49.7763 177.538 50.5153 182.589 55.1414C182.589 55.1414 187.932 49.7828 197.521 49.8935C199.865 47.7781 201.357 45.2081 201.824 42.4828C202.291 39.7574 201.714 36.9888 200.16 34.4994C198.606 32.01 196.138 29.9021 193.045 28.4212C189.952 26.9402 186.36 26.1472 182.688 26.1345C179.016 26.1217 175.415 26.8897 172.303 28.349C169.192 29.8084 166.699 31.899 165.114 34.3775C163.529 36.8561 162.917 39.6205 163.35 42.349C163.784 45.0774 165.244 47.6577 167.561 49.7893L167.565 49.7763Z" fill="white"/>
<path d="M182.255 27.1569L181.919 75.5147H183.603L182.255 27.1569Z" fill="#B8B8B8"/>
<path d="M182.763 53.7318C182.763 53.7318 186.126 49.1968 192.187 47.8099C192.187 47.8099 185.791 48.9461 182.615 52.8495L182.763 53.7318Z" fill="#B8B8B8"/>
<path d="M182.763 40.8854C182.763 40.8854 186.126 36.3504 192.187 34.9636C192.187 34.9636 185.791 36.0965 182.615 40.0032L182.763 40.8854Z" fill="#B8B8B8"/>
<path d="M182.763 47.3021C182.763 47.3021 186.126 42.7671 192.187 41.3803C192.187 41.3803 185.791 42.5164 182.615 46.4198L182.763 47.3021Z" fill="#B8B8B8"/>
<path d="M182.264 44.1573C182.264 44.1573 179.014 39.6256 173.166 38.2387C173.166 38.2387 179.34 39.3716 182.425 43.2783L182.264 44.1573Z" fill="#B8B8B8"/>
<path d="M182.264 50.4567C182.264 50.4567 179.014 45.9217 173.166 44.5381C173.166 44.5381 179.34 45.671 182.425 49.5744L182.264 50.4567Z" fill="#B8B8B8"/>
<path d="M4.35031 49.7763C4.35031 49.7763 14.3226 50.5153 19.374 55.1414C19.374 55.1414 24.7169 49.7828 34.3063 49.8935C36.6497 47.7781 38.1419 45.2081 38.6091 42.4828C39.0762 39.7574 38.4991 36.9888 36.9449 34.4994C35.3907 32.01 32.9234 29.9021 29.8303 28.4212C26.7372 26.9402 23.1455 26.1472 19.4734 26.1345C15.8012 26.1217 12.1998 26.8897 9.08844 28.349C5.97704 29.8084 3.48367 31.899 1.89864 34.3775C0.313611 36.8561 -0.297866 39.6205 0.135403 42.349C0.568673 45.0774 2.02886 47.6577 4.34596 49.7893L4.35031 49.7763Z" fill="#6FC3A4"/>
<path opacity="0.5" d="M4.35031 49.7763C4.35031 49.7763 14.3226 50.5153 19.374 55.1414C19.374 55.1414 24.7169 49.7828 34.3063 49.8935C36.6497 47.7781 38.1419 45.2081 38.6091 42.4828C39.0762 39.7574 38.4991 36.9888 36.9449 34.4994C35.3907 32.01 32.9234 29.9021 29.8303 28.4212C26.7372 26.9402 23.1455 26.1472 19.4734 26.1345C15.8012 26.1217 12.1998 26.8897 9.08844 28.349C5.97704 29.8084 3.48367 31.899 1.89864 34.3775C0.313611 36.8561 -0.297866 39.6205 0.135403 42.349C0.568673 45.0774 2.02886 47.6577 4.34596 49.7893L4.35031 49.7763Z" fill="white"/>
<path d="M19.0477 27.1569L18.7084 75.5147H20.3922L19.0477 27.1569Z" fill="#B8B8B8"/>
<path d="M19.5528 53.7318C19.5528 53.7318 22.916 49.1968 28.9768 47.8099C28.9768 47.8099 22.581 48.9461 19.4048 52.8495L19.5528 53.7318Z" fill="#B8B8B8"/>
<path d="M19.5528 40.8854C19.5528 40.8854 22.916 36.3504 28.9768 34.9636C28.9768 34.9636 22.581 36.0965 19.4048 40.0032L19.5528 40.8854Z" fill="#B8B8B8"/>
<path d="M19.5528 47.3021C19.5528 47.3021 22.916 42.7671 28.9768 41.3803C28.9768 41.3803 22.581 42.5164 19.4048 46.4198L19.5528 47.3021Z" fill="#B8B8B8"/>
<path d="M19.0521 44.1573C19.0521 44.1573 15.802 39.6256 9.95435 38.2387C9.95435 38.2387 16.1283 39.3716 19.2131 43.2783L19.0521 44.1573Z" fill="#B8B8B8"/>
<path d="M19.0521 50.4567C19.0521 50.4567 15.802 45.9217 9.95435 44.5381C9.95435 44.5381 16.1283 45.671 19.2131 49.5744L19.0521 50.4567Z" fill="#B8B8B8"/>
<path d="M127.046 54.4643C127.046 54.4643 135.208 55.0665 139.342 58.8527C139.342 58.8527 143.714 54.4675 151.563 54.5554C153.48 52.8238 154.701 50.7203 155.082 48.4899C155.464 46.2595 154.991 43.9939 153.718 41.9568C152.445 39.9198 150.426 38.1951 147.894 36.9836C145.362 35.7722 142.423 35.1237 139.418 35.1137C136.412 35.1037 133.465 35.7327 130.919 36.9273C128.373 38.1219 126.333 39.8331 125.037 41.8616C123.74 43.8902 123.24 46.1525 123.595 48.3854C123.95 50.6183 125.145 52.7297 127.042 54.474L127.046 54.4643Z" fill="#6FC3A4"/>
<path opacity="0.5" d="M127.046 54.4643C127.046 54.4643 135.208 55.0665 139.342 58.8527C139.342 58.8527 143.714 54.4675 151.563 54.5554C153.48 52.8238 154.701 50.7203 155.082 48.4899C155.464 46.2595 154.991 43.9939 153.718 41.9568C152.445 39.9198 150.426 38.1951 147.894 36.9836C145.362 35.7722 142.423 35.1237 139.418 35.1137C136.412 35.1037 133.465 35.7327 130.919 36.9273C128.373 38.1219 126.333 39.8331 125.037 41.8616C123.74 43.8902 123.24 46.1525 123.595 48.3854C123.95 50.6183 125.145 52.7297 127.042 54.474L127.046 54.4643Z" fill="white"/>
<path d="M139.071 35.9337L138.797 75.5146H140.176L139.071 35.9337Z" fill="#B8B8B8"/>
<path d="M139.485 57.6874C139.485 57.6874 142.244 53.9761 147.199 52.8399C147.199 52.8399 141.978 53.7677 139.368 56.9647L139.485 57.6874Z" fill="#B8B8B8"/>
<path d="M139.485 47.1719C139.485 47.1719 142.244 43.4606 147.199 42.3277C147.199 42.3277 141.978 43.2555 139.368 46.4492L139.485 47.1719Z" fill="#B8B8B8"/>
<path d="M139.485 52.4297C139.485 52.4297 142.244 48.7184 147.199 47.5822C147.199 47.5822 141.978 48.5101 139.368 51.707L139.485 52.4297Z" fill="#B8B8B8"/>
<path d="M139.076 49.8513C139.076 49.8513 136.418 46.14 131.632 45.0071C131.632 45.0071 136.683 45.9349 139.211 49.1286L139.076 49.8513Z" fill="#B8B8B8"/>
<path d="M139.076 55.0047C139.076 55.0047 136.418 51.2934 131.632 50.1605C131.632 50.1605 136.683 51.0883 139.211 54.2852L139.076 55.0047Z" fill="#B8B8B8"/>
<path d="M48.0721 54.4643C48.0721 54.4643 56.2344 55.0665 60.3678 58.8527C60.3678 58.8527 64.7187 54.4675 72.5895 54.5554C74.5066 52.8238 75.7269 50.7203 76.1084 48.4899C76.4898 46.2595 76.0167 43.9939 74.7441 41.9568C73.4715 39.9198 71.4518 38.1951 68.9201 36.9836C66.3883 35.7722 63.4488 35.1237 60.4436 35.1137C57.4385 35.1037 54.4914 35.7327 51.9454 36.9273C49.3994 38.1219 47.3593 39.8331 46.0626 41.8616C44.7659 43.8902 44.266 46.1525 44.621 48.3854C44.976 50.6183 46.1713 52.7297 48.0678 54.474L48.0721 54.4643Z" fill="#6FC3A4"/>
<path opacity="0.5" d="M48.0721 54.4643C48.0721 54.4643 56.2344 55.0665 60.3678 58.8527C60.3678 58.8527 64.7187 54.4675 72.5895 54.5554C74.5066 52.8238 75.7269 50.7203 76.1084 48.4899C76.4898 46.2595 76.0167 43.9939 74.7441 41.9568C73.4715 39.9198 71.4518 38.1951 68.9201 36.9836C66.3883 35.7722 63.4488 35.1237 60.4436 35.1137C57.4385 35.1037 54.4914 35.7327 51.9454 36.9273C49.3994 38.1219 47.3593 39.8331 46.0626 41.8616C44.7659 43.8902 44.266 46.1525 44.621 48.3854C44.976 50.6183 46.1713 52.7297 48.0678 54.474L48.0721 54.4643Z" fill="white"/>
<path d="M60.0986 35.9337L59.8245 75.5146H61.2037L60.0986 35.9337Z" fill="#B8B8B8"/>
<path d="M60.5331 57.6874C60.5331 57.6874 63.2915 53.9761 68.2472 52.8399C68.2472 52.8399 63.0261 53.7677 60.4156 56.9647L60.5331 57.6874Z" fill="#B8B8B8"/>
<path d="M60.5331 47.1719C60.5331 47.1719 63.2915 43.4606 68.2472 42.3277C68.2472 42.3277 63.0261 43.2555 60.4156 46.4492L60.5331 47.1719Z" fill="#B8B8B8"/>
<path d="M60.5331 52.4297C60.5331 52.4297 63.2915 48.7184 68.2472 47.5822C68.2472 47.5822 63.0261 48.5101 60.4156 51.707L60.5331 52.4297Z" fill="#B8B8B8"/>
<path d="M60.0989 49.8511C60.0989 49.8511 57.4448 46.1398 52.6588 45.0232C52.6588 45.0232 57.7102 45.951 60.2381 49.1447L60.0989 49.8511Z" fill="#B8B8B8"/>
<path d="M60.0986 55.0047C60.0986 55.0047 57.4402 51.2934 52.6542 50.1605C52.6542 50.1605 57.7056 51.0883 60.2335 54.2852L60.0986 55.0047Z" fill="#B8B8B8"/>
<path d="M7.35187 75.6871H195.111" stroke="#263238" stroke-width="1.04742" stroke-miterlimit="10"/>
<path d="M74.2435 14.6555C74.2435 12.139 76.0187 10.7 79.2601 10.7C82.5015 10.7 84.2811 12.139 84.2811 14.6555V22.8399C84.2811 25.3564 82.5059 26.7954 79.2601 26.7954C76.0143 26.7954 74.2435 25.3564 74.2435 22.8399V14.6555ZM77.5502 22.9962C77.5502 24.1193 78.2116 24.5458 79.2601 24.5458C80.3087 24.5458 80.9744 24.1193 80.9744 22.9962V14.4992C80.9744 13.3761 80.313 12.9496 79.2601 12.9496C78.2072 12.9496 77.5502 13.3761 77.5502 14.4992V22.9962Z" fill="#263238"/>
<path d="M86.7736 14.6555C86.7736 12.139 88.5444 10.7 91.7902 10.7C95.036 10.7 96.8068 12.139 96.8068 14.6555V22.8399C96.8068 25.3564 95.0316 26.7954 91.7902 26.7954C88.5488 26.7954 86.7736 25.3564 86.7736 22.8399V14.6555ZM90.076 22.9962C90.076 24.1193 90.7373 24.5458 91.7902 24.5458C92.8431 24.5458 93.5001 24.1193 93.5001 22.9962V14.4992C93.5001 13.3761 92.8388 12.9496 91.7902 12.9496C90.7416 12.9496 90.076 13.3761 90.076 14.4992V22.9962Z" fill="#263238"/>
<path d="M109.364 14.7693V16.8138C109.364 19.3336 107.741 20.7204 104.439 20.7204H102.877V26.6325H99.5704V10.8822H104.439C107.741 10.8822 109.364 12.2528 109.364 14.7693ZM102.877 13.1415V18.4676H104.439C105.488 18.4676 106.058 18.1095 106.058 16.9863V14.6261C106.058 13.4996 105.488 13.1415 104.439 13.1415H102.877Z" fill="#263238"/>
<path d="M116.125 10.7C119.336 10.7 120.99 12.139 120.99 14.6555V15.1503H117.866V14.4992C117.866 13.3761 117.265 12.9496 116.212 12.9496C115.16 12.9496 114.559 13.3761 114.559 14.4992C114.559 17.7352 121.02 18.344 121.02 22.8399C121.02 25.3564 119.336 26.7954 116.095 26.7954C112.854 26.7954 111.165 25.3564 111.165 22.8399V21.8633H114.289V22.9864C114.289 24.1096 114.951 24.5165 116.004 24.5165C117.057 24.5165 117.714 24.1096 117.714 22.9864C117.714 19.7504 111.257 19.1416 111.257 14.6457C111.257 12.1422 112.91 10.7 116.125 10.7Z" fill="#263238"/>
<path d="M123.965 23.1295L123.53 17.4454V10.8822H126.837V17.4454L126.402 23.1295H123.965ZM126.789 24.2332V26.6162H123.621V24.2332H126.789Z" fill="#263238"/>
<path d="M67.1123 109.538C68.6612 109.538 69.3226 110.225 69.3226 111.342V112.227C69.3226 113.396 68.5916 114.008 67.0296 114.008H66.055V116.915H64.9586V109.538H67.1123ZM67.0296 113.269C67.8433 113.269 68.2392 112.986 68.2392 112.292V111.316C68.2392 110.642 67.9129 110.303 67.1123 110.303H66.055V113.285L67.0296 113.269Z" fill="#263238"/>
<path d="M71.4375 115.428L71.0546 116.915H70.0409L71.9292 109.538H73.5216L75.4099 116.915H74.3091L73.9306 115.428H71.4375ZM71.5768 114.724H73.774L72.6601 110.46L71.5768 114.724Z" fill="#263238"/>
<path d="M80.9002 111.319V111.95H79.856V111.277C79.856 110.625 79.5036 110.215 78.703 110.215C77.9024 110.215 77.55 110.612 77.55 111.277V115.183C77.55 115.834 77.9155 116.248 78.703 116.248C79.4905 116.248 79.856 115.847 79.856 115.183V113.715H78.8422V112.976H80.9002V115.147C80.9002 116.264 80.1954 117 78.6769 117C77.1584 117 76.4623 116.264 76.4623 115.147V111.319C76.4623 110.202 77.1671 109.466 78.6769 109.466C80.1866 109.466 80.9002 110.202 80.9002 111.319Z" fill="#263238"/>
<path d="M85.7294 112.807V113.543H83.3234V116.167H86.2776V116.915H82.2226V109.538H86.2776V110.287H83.3234V112.807H85.7294Z" fill="#263238"/>
<path d="M91.0113 116.915H90.028V109.538H91.4247L93.7045 114.871V109.538H94.6791V116.915H93.5348L91.0157 110.951L91.0113 116.915Z" fill="#263238"/>
<path d="M95.9984 111.319C95.9984 110.192 96.7424 109.466 98.2522 109.466C99.7619 109.466 100.519 110.192 100.519 111.319V115.134C100.519 116.251 99.7706 116.987 98.2522 116.987C96.7337 116.987 95.9984 116.251 95.9984 115.134V111.319ZM97.0818 115.177C97.0818 115.851 97.4647 116.241 98.2522 116.241C99.0397 116.241 99.4182 115.851 99.4182 115.177V111.27C99.4182 110.619 99.0527 110.209 98.2522 110.209C97.4516 110.209 97.0818 110.606 97.0818 111.27V115.177Z" fill="#263238"/>
<path d="M103.276 116.915V110.287H101.462V109.538H106.192V110.287H104.377V116.915H103.276Z" fill="#263238"/>
<path d="M113.066 112.973V113.715H110.8V116.909H109.699V109.538H113.615V110.287H110.8V112.973H113.066Z" fill="#263238"/>
<path d="M114.685 111.319C114.685 110.192 115.434 109.466 116.939 109.466C118.444 109.466 119.206 110.192 119.206 111.319V115.134C119.206 116.251 118.462 116.987 116.939 116.987C115.416 116.987 114.685 116.251 114.685 115.134V111.319ZM115.773 115.177C115.773 115.851 116.152 116.241 116.939 116.241C117.727 116.241 118.109 115.851 118.109 115.177V111.27C118.109 110.619 117.744 110.209 116.939 110.209C116.134 110.209 115.773 110.606 115.773 111.27V115.177Z" fill="#263238"/>
<path d="M121.573 115.177C121.573 115.828 121.925 116.241 122.726 116.241C123.526 116.241 123.87 115.841 123.87 115.177V109.538H124.897V115.135C124.897 116.251 124.205 117 122.686 117C121.168 117 120.489 116.251 120.489 115.135V109.538H121.573V115.177Z" fill="#263238"/>
<path d="M127.234 116.915H126.233V109.538H127.625L129.905 114.871V109.538H130.88V116.915H129.757L127.234 110.951V116.915Z" fill="#263238"/>
<path d="M134.612 109.538C136.148 109.538 136.853 110.235 136.853 111.371V115.092C136.853 116.219 136.148 116.915 134.612 116.915H132.324V109.538H134.612ZM134.612 116.167C135.4 116.167 135.783 115.799 135.783 115.125V111.329C135.783 110.655 135.4 110.287 134.599 110.287H133.416V116.167H134.612Z" fill="#263238"/>
<path opacity="0.3" d="M58.615 91.3982C58.615 92.3748 50.5963 93.1529 40.698 93.1529C30.7997 93.1529 22.7809 92.3683 22.7809 91.3982C22.7809 90.428 30.804 89.6434 40.698 89.6434C50.5919 89.6434 58.615 90.4313 58.615 91.3982Z" fill="black"/>
<path opacity="0.3" d="M96.1235 91.3982C96.1235 92.3748 88.1004 93.1529 78.2064 93.1529C68.3125 93.1529 60.2894 92.3683 60.2894 91.3982C60.2894 90.428 68.3125 89.6434 78.2064 89.6434C88.1004 89.6434 96.1235 90.4313 96.1235 91.3982Z" fill="black"/>
<path opacity="0.3" d="M145.811 91.3982C145.811 92.3748 137.792 93.1529 127.898 93.1529C118.004 93.1529 109.981 92.3683 109.981 91.3982C109.981 90.428 118 89.6434 127.898 89.6434C137.796 89.6434 145.811 90.4313 145.811 91.3982Z" fill="black"/>
<path opacity="0.3" d="M187.319 91.3982C187.319 92.3748 179.296 93.1529 169.402 93.1529C159.508 93.1529 151.468 92.3683 151.468 91.3982C151.468 90.428 159.491 89.6434 169.385 89.6434C179.279 89.6434 187.319 90.4313 187.319 91.3982Z" fill="black"/>
<path d="M129.834 40.0651C129.834 40.0651 129.099 42.3439 129.099 42.7281C129.098 42.9657 129.063 43.2026 128.994 43.4346C128.994 43.4346 127.424 44.8442 127.633 45.2349C127.886 45.5386 128.25 45.7824 128.681 45.9381C128.681 45.9381 129.516 48.2169 130.356 48.3667C131.219 48.4872 132.091 48.5655 132.967 48.6011L133.28 50.4795L137.466 50.0107L136.421 47.1914L136.856 44.7628C136.856 44.7628 137.587 43.7471 136.856 42.103C136.125 40.459 134.555 40.3809 133.506 40.3809C132.276 40.3225 131.05 40.2171 129.834 40.0651V40.0651Z" fill="white" stroke="#263238" stroke-width="1.04742" stroke-linecap="round" stroke-linejoin="round"/>
<path d="M131.719 38.893C131.719 38.893 128.055 38.8116 128.16 39.518C128.264 40.2245 132.032 41.1458 132.032 41.1458C132.032 41.1458 130.775 41.7709 131.401 42.3992C132.028 43.0275 133.494 43.5744 133.494 43.5744C133.494 43.5744 133.059 44.9059 133.707 44.9841C134.355 45.0622 134.751 44.3558 134.856 44.1214C134.96 43.887 136.113 43.9651 136.426 44.5902C136.604 44.915 136.709 45.2591 136.74 45.6091C136.74 45.6091 137.997 42.7898 138.206 41.5365C138.415 40.2831 133.707 38.893 131.719 38.893Z" fill="#263238" stroke="#263238" stroke-width="1.04742" stroke-linecap="round" stroke-linejoin="round"/>
<path d="M134.037 45.0231C134.037 45.0231 135.303 42.9396 136.061 43.9651C136.818 44.9906 136.496 46.0584 135.752 46.1723C135.008 46.2863 134.385 46.397 134.385 46.397" fill="white"/>
<path d="M134.037 45.0231C134.037 45.0231 135.303 42.9396 136.061 43.9651C136.818 44.9906 136.496 46.0584 135.752 46.1723C135.008 46.2863 134.385 46.397 134.385 46.397" stroke="#263238" stroke-width="1.04742" stroke-linecap="round" stroke-linejoin="round"/>
<path d="M128.891 66.767C128.686 66.946 125.331 72.3274 124.914 74.1277C124.496 75.9281 121.777 86.6583 121.668 87.1271C121.559 87.5959 115.812 88.5368 115.39 88.6149C114.968 88.693 115.825 89.5557 117.065 89.7901C118.305 90.0245 121.881 91.1217 122.721 90.4933C123.561 89.865 124.709 86.3425 125.023 85.9519C125.336 85.5612 131.227 75.176 131.227 75.176C131.227 75.176 134.246 70.1918 134.873 69.7197C135.5 69.2477 134.129 67.1609 133.603 66.5326C133.076 65.9042 130.357 65.5136 128.891 66.767Z" fill="#263238" stroke="#263238" stroke-width="1.04742" stroke-linecap="round" stroke-linejoin="round"/>
<path d="M128.264 66.8353C128.264 66.8353 129.731 72.0832 130.462 73.9617C131.146 75.5394 132.175 77.0212 133.507 78.3469C134.347 79.2096 138.428 86.8113 138.428 86.8113L139.055 87.9865C139.055 87.9865 138.846 88.4553 137.697 89.0804C136.548 89.7054 133.298 90.7244 134.138 90.9621C134.978 91.1997 138.324 91.1965 139.894 91.1183C141.247 91.0466 142.514 90.5996 143.449 89.865C144.08 89.3148 142.405 87.7489 142.405 87.4363C142.405 87.1238 138.741 77.572 138.532 77.1C138.324 76.6279 137.275 73.265 137.275 73.265V69.4397C137.275 69.4397 137.801 68.7365 137.801 67.1608C137.801 65.5851 136.231 65.2791 136.231 65.2791L127.646 65.9074L128.264 66.8353Z" fill="#263238" stroke="#263238" stroke-width="1.04742" stroke-linecap="round" stroke-linejoin="round"/>
<path d="M127.538 66.3762C127.538 66.3762 127.751 67.7077 128.378 67.7859C129.004 67.864 135.491 69.1955 138.319 67.6296C138.319 67.6296 138.842 66.4543 138.528 66.1418C138.215 65.8293 137.48 65.9855 133.716 65.9855C129.953 65.9855 127.538 65.9855 127.538 66.3762Z" fill="#6FC3A4" stroke="#263238" stroke-width="1.04742" stroke-linecap="round" stroke-linejoin="round"/>
<path d="M137.157 48.8354C137.157 48.8354 133.284 49.226 131.609 50.4631C129.934 51.7002 128.472 53.9889 127.741 56.1017C127.01 58.2146 126.484 65.9693 127.528 66.3599C128.572 66.7506 137.366 67.1445 138.841 66.6855C140.316 66.2265 138.736 62.5347 138.736 61.125C138.736 59.7154 140.411 54.9395 140.098 52.2797C139.785 49.6199 137.157 48.8354 137.157 48.8354Z" fill="#6FC3A4" stroke="#263238" stroke-width="1.04742" stroke-linecap="round" stroke-linejoin="round"/>
<path d="M123.187 56.9742C123.139 53.7513 121.381 51.0003 119.045 49.8121V49.1609L112.605 49.2098C108.981 49.2391 106.079 52.7909 106.153 57.1207C106.227 61.4506 109.199 64.9568 112.827 64.934L119.267 64.8852V64.2341C121.529 62.9742 123.209 60.1972 123.187 56.9742Z" fill="#263238" stroke="#263238" stroke-width="1.04742" stroke-linecap="round" stroke-linejoin="round"/>
<path d="M126.075 56.9514C126.028 53.5657 124.283 50.6748 121.829 49.4181V48.7247L119.071 48.7475C115.259 48.7768 112.227 52.4979 112.292 57.0589C112.357 61.6199 115.494 65.2921 119.305 65.2628L122.064 65.24V64.5499C124.461 63.2542 126.123 60.3242 126.075 56.9514Z" fill="white" stroke="#263238" stroke-width="1.04742" stroke-linecap="round" stroke-linejoin="round"/>
<path d="M128.842 56.9287C128.908 61.4864 125.871 65.2107 122.064 65.24C118.257 65.2693 115.102 61.5971 115.05 57.0393C114.998 52.4816 118.022 48.7572 121.829 48.7247C125.636 48.6921 128.768 52.3676 128.842 56.9287Z" fill="#737373" stroke="#263238" stroke-width="1.04742" stroke-linecap="round" stroke-linejoin="round"/>
<path d="M127.258 56.7887C127.289 58.9472 125.849 60.7117 124.043 60.7279C122.238 60.7442 120.749 58.9993 120.719 56.8213C120.689 54.6433 122.129 52.9146 123.934 52.8821C125.74 52.8495 127.228 54.6271 127.258 56.7887Z" fill="#263238" stroke="#263238" stroke-width="1.04742" stroke-linecap="round" stroke-linejoin="round"/>
<path d="M178.53 73.0207C178.889 71.014 179.041 68.9896 178.986 66.9654C177.572 67.4537 169.323 67.6328 168.566 67.6458C167.809 67.6588 159.56 67.4537 158.146 66.9654C158.083 68.9892 158.229 71.0136 158.581 73.0207C159.151 75.661 164.163 86.2317 164.276 86.7428C164.423 87.2357 164.613 87.7208 164.846 88.1948C164.846 88.1948 161.996 89.7282 160.743 90.3239C159.49 90.9197 160.404 91.1769 161.657 91.1769C162.91 91.1769 165.529 90.9197 166.325 90.9197C167.03 90.9197 168.257 90.4607 168.544 90.35C168.831 90.4607 170.058 90.9197 170.759 90.9197C171.559 90.9197 174.179 91.1769 175.432 91.1769C176.685 91.1769 177.607 90.9197 176.345 90.3239C175.084 89.7282 172.242 88.1948 172.242 88.1948C172.475 87.7208 172.666 87.2357 172.812 86.7428C172.947 86.2219 177.96 75.6512 178.53 73.0207Z" fill="#263238" stroke="#263238" stroke-width="1.04742" stroke-linecap="round" stroke-linejoin="round"/>
<path d="M166.843 50.3915C166.843 50.3915 162.436 51.4691 160.16 52.5499C157.885 53.6308 155.601 59.4842 155.601 59.7121C155.47 60.12 155.292 60.5186 155.07 60.9036C155.07 60.9036 152.79 60.5065 152.337 61.9259C151.885 63.3453 154.613 65.1651 156.057 65.2237C157.502 65.2823 157.954 64.9405 157.954 64.9405C157.954 64.9405 157.045 66.3046 157.424 66.871C157.802 67.4375 160.996 69.5438 167.3 69.4755C173.605 69.4071 178.177 68.6225 178.843 67.9421C179.509 67.2617 179.605 65.839 179.605 65.839C179.605 65.839 181.958 65.3833 182.794 64.2471C183.629 63.1109 183.477 61.9161 183.02 60.7246C182.563 59.5331 180.209 56.0724 178.617 54.1386C177.024 52.2048 173.679 51.1272 172.091 50.7854C170.502 50.4436 167.905 50.3915 166.843 50.3915Z" fill="#6FC3A4" stroke="#263238" stroke-width="1.04742" stroke-linecap="round" stroke-linejoin="round"/>
<path d="M168.18 55.1771C168.811 55.0209 170.79 53.7056 171.552 52.3904C171.853 51.8869 172.065 51.3561 172.182 50.8115L172.082 50.7887C170.49 50.4468 167.906 50.3915 166.861 50.3915C166.861 50.3915 165.939 50.6161 164.721 50.9645C164.728 51.6682 164.905 52.3652 165.243 53.022C165.93 54.3372 167.566 55.3367 168.18 55.1771Z" fill="white" stroke="#263238" stroke-width="1.04742" stroke-linecap="round" stroke-linejoin="round"/>
<path d="M175.424 57.8338C175.424 57.8338 177.247 65.1099 179.313 65.8587" stroke="#263238" stroke-width="1.04742" stroke-linecap="round" stroke-linejoin="round"/>
<path d="M157.954 64.9406C157.954 64.9406 160.234 58.5174 160.386 57.8923" stroke="#263238" stroke-width="1.04742" stroke-linecap="round" stroke-linejoin="round"/>
<path d="M178.369 61.1217C178.369 61.1217 177.108 61.3333 177.108 62.017" stroke="#263238" stroke-width="1.04742" stroke-linecap="round" stroke-linejoin="round"/>
<path d="M156.931 61.226C156.931 61.226 158.337 61.9097 158.198 62.9612" stroke="#263238" stroke-width="1.04742" stroke-linecap="round" stroke-linejoin="round"/>
<path d="M166.348 90.9261C167.053 90.9261 168.28 90.4671 168.567 90.3564C168.854 90.4671 170.081 90.9261 170.782 90.9261C171.582 90.9261 174.201 91.1833 175.454 91.1833C176.707 91.1833 177.63 90.9261 176.368 90.3304C175.276 89.8128 172.987 88.5887 172.404 88.2761C171.06 89.1942 168.402 88.9663 168.402 88.9663C167.863 88.9056 167.33 88.8208 166.805 88.7124C166.009 88.5398 164.869 88.2013 164.869 88.2013C164.869 88.2013 162.019 89.7346 160.766 90.3304C159.513 90.9261 160.426 91.1833 161.679 91.1833C162.932 91.1833 165.552 90.9261 166.348 90.9261Z" fill="#6FC3A4" stroke="#263238" stroke-width="1.04742" stroke-linecap="round" stroke-linejoin="round"/>
<path d="M168.401 88.2145V73.3497" stroke="white" stroke-width="1.04742" stroke-linecap="round" stroke-linejoin="round"/>
<path d="M168.565 90.3402L168.401 88.95V88.2143" stroke="#263238" stroke-width="1.04742" stroke-linecap="round" stroke-linejoin="round"/>
<path d="M166.805 72.8385H170.107" stroke="white" stroke-width="1.04742" stroke-linecap="round" stroke-linejoin="round"/>
<path d="M162.488 41.8621C162.488 41.8621 160.121 42.9234 160.473 43.8545C160.826 44.7856 161.896 44.9646 161.661 45.4822C161.426 45.9999 160.604 46.3254 161.539 46.651C162.072 46.8295 162.63 46.9638 163.201 47.0514C163.201 47.0514 164.072 49.3108 165.568 49.7079C167.065 50.1051 169.658 49.8414 171.494 49.6656C172.114 49.6202 172.702 49.4345 173.177 49.1332C173.653 48.832 173.995 48.4294 174.157 47.9792C174.335 47.4942 173.387 48.0704 172.913 47.5365C172.438 47.0026 173.152 45.632 173.683 44.434C174.214 43.2359 172.617 40.9766 170.546 40.2245C168.475 39.4725 164.52 39.8664 162.488 41.8621Z" fill="#263238" stroke="#263238" stroke-width="1.04742" stroke-linecap="round" stroke-linejoin="round"/>
<path d="M166.465 49.5809C166.164 50.324 165.96 51.0872 165.856 51.8598C165.778 52.8365 166.844 53.9076 167.984 53.849C169.123 53.7904 170.107 52.0877 170.259 51.2445C170.411 50.4013 169.881 48.1192 169.881 48.1192C169.881 48.1192 168.14 48.1778 167.448 48.6303C167.042 48.8971 166.708 49.2198 166.465 49.5809V49.5809Z" fill="white" stroke="#263238" stroke-width="1.04742" stroke-linecap="round" stroke-linejoin="round"/>
<path d="M164.92 43.1023C164.92 43.1023 164.977 44.4306 166.756 45.7068C167.826 46.4808 169.094 47.0844 170.485 47.481C170.454 47.772 170.354 48.0564 170.189 48.321C170.112 48.4316 169.991 48.522 169.844 48.5801C169.696 48.6383 169.528 48.6614 169.362 48.6465H168.766C168.766 48.6465 167.896 50.1734 166.843 50.3947C165.79 50.6161 163.202 50.4631 162.845 48.513C162.488 46.563 162.431 44.9678 162.727 44.5673C163.023 44.1669 164.92 43.1023 164.92 43.1023Z" fill="white" stroke="#263238" stroke-width="1.04742" stroke-linecap="round" stroke-linejoin="round"/>
<path d="M183.538 60.2591C183.808 59.8519 183.972 59.4099 184.021 58.9568C184.021 58.3643 182.55 57.5146 182.28 57.303C182.011 57.0914 181.741 57.1142 181.684 57.4105C181.684 57.5768 181.728 57.7414 181.816 57.8943C181.903 58.0471 182.032 58.1849 182.193 58.2992C182.414 58.4293 182.574 58.6082 182.65 58.8103C182.676 58.9568 182.163 59.6763 182.42 60.1419C182.676 60.6074 183.399 60.7474 183.538 60.2591Z" fill="white" stroke="#263238" stroke-width="1.04742" stroke-linecap="round" stroke-linejoin="round"/>
<path d="M124.614 56.9352C124.614 56.9352 131.019 58.4686 134.869 62.0497C138.72 65.6308 141.248 65.1164 146.034 63.9249C150.82 62.7333 152.643 58.4686 159.252 62.0497C165.861 65.6308 167.227 66.9916 172.696 64.9471C178.165 62.9026 181.124 57.9575 186.14 59.6601C191.157 61.3628 188.873 70.0778 189.329 74.31C189.786 78.5422 189.099 89.1455 190.239 90.5096C191.379 91.8737 203 90.8352 203 90.8352" stroke="#263238" stroke-width="3.14226" stroke-linecap="round" stroke-linejoin="round"/>
<path d="M136.609 51.2445C136.609 51.2445 135.334 49.6884 133.454 50.0953C131.466 50.5251 130.439 52.6509 129.973 53.9759C129.508 55.3009 129.195 56.7334 128.342 57.9672C128.342 57.9672 124.574 57.9184 122.473 57.4626C120.869 57.0886 119.292 56.6539 117.747 56.1604C117.747 56.1604 117.003 55.3823 116.477 55.2293C115.951 55.0763 114.584 54.7768 114.484 55.0112C114.384 55.2456 116.068 56.0172 116.068 56.0172C116.068 56.0172 112.935 56.3427 112.622 56.5934C112.309 56.8441 114.837 57.5928 114.837 57.5928C114.837 57.5928 115.781 57.8207 118.078 57.4105C118.078 57.4105 126.506 61.4148 128.185 61.8739C129.865 62.3329 130.796 62.4794 131.94 60.8256C133.084 59.1718 136.883 55.0698 137.487 53.4192" fill="#6FC3A4"/>
<path d="M136.609 51.2445C136.609 51.2445 135.334 49.6884 133.454 50.0953C131.466 50.5251 130.439 52.6509 129.973 53.9759C129.508 55.3009 129.195 56.7334 128.342 57.9672C128.342 57.9672 124.574 57.9184 122.473 57.4626C120.869 57.0886 119.292 56.6539 117.747 56.1604C117.747 56.1604 117.003 55.3823 116.477 55.2293C115.951 55.0763 114.584 54.7768 114.484 55.0112C114.384 55.2456 116.068 56.0172 116.068 56.0172C116.068 56.0172 112.935 56.3427 112.622 56.5934C112.309 56.8441 114.837 57.5928 114.837 57.5928C114.837 57.5928 115.781 57.8207 118.078 57.4105C118.078 57.4105 126.506 61.4148 128.185 61.8739C129.865 62.3329 130.796 62.4794 131.94 60.8256C133.084 59.1718 136.883 55.0698 137.487 53.4192" stroke="#263238" stroke-width="1.04742" stroke-linecap="round" stroke-linejoin="round"/>
<path d="M119.936 56.8245C118.705 56.4794 117.761 56.1734 117.761 56.1734C117.761 56.1734 117.017 55.3953 116.49 55.2423C115.964 55.0893 114.597 54.7898 114.497 55.0242C114.397 55.2586 116.081 56.0302 116.081 56.0302C116.081 56.0302 112.948 56.3557 112.635 56.6064C112.322 56.8571 114.85 57.6058 114.85 57.6058C114.85 57.6058 115.794 57.8337 118.091 57.4235L119.27 57.9802L119.936 56.8245Z" fill="white" stroke="#263238" stroke-width="1.04742" stroke-linecap="round" stroke-linejoin="round"/>
<path d="M152.419 60.8582C152.149 60.451 151.986 60.009 151.936 59.5559C151.936 58.9634 153.411 58.117 153.677 57.9054C153.942 57.6938 154.212 57.7166 154.269 58.0128C154.269 58.1791 154.225 58.3438 154.137 58.4966C154.049 58.6495 153.921 58.7873 153.759 58.9016C153.539 59.0316 153.379 59.2105 153.303 59.4127C153.277 59.5559 153.79 60.2787 153.533 60.7442C153.277 61.2098 152.559 61.3432 152.419 60.8582Z" fill="white" stroke="#263238" stroke-width="1.04742" stroke-linecap="round" stroke-linejoin="round"/>
<path d="M153.434 59.0709C153.434 59.0709 152.221 60.7475 152.925 61.3498C153.63 61.9521 154.313 59.9955 154.444 59.4551C154.574 58.9146 153.883 58.371 153.434 59.0709Z" fill="white" stroke="#263238" stroke-width="1.04742" stroke-linecap="round" stroke-linejoin="round"/>
<path d="M154.435 59.6731C154.435 59.6731 153.221 61.3497 153.925 61.952C154.63 62.5543 155.313 60.5977 155.444 60.0573C155.574 59.5169 154.883 58.9536 154.435 59.6731Z" fill="white" stroke="#263238" stroke-width="1.04742" stroke-linecap="round" stroke-linejoin="round"/>
<path d="M155.535 59.813C155.535 59.813 154.321 61.4896 155.026 62.0918C155.731 62.6941 156.414 60.7375 156.545 60.1971C156.675 59.6567 155.983 59.1098 155.535 59.813Z" fill="white" stroke="#263238" stroke-width="1.04742" stroke-linecap="round" stroke-linejoin="round"/>
<path d="M156.945 59.8261C156.945 59.8261 155.814 61.1283 156.431 61.6199C157.049 62.1115 157.715 60.5651 157.845 60.1191C157.976 59.6731 157.362 59.2401 156.945 59.8261Z" fill="white" stroke="#263238" stroke-width="1.04742" stroke-linecap="round" stroke-linejoin="round"/>
<path d="M182.729 59.136C182.729 59.136 183.943 60.8126 183.238 61.4148C182.533 62.0171 181.85 60.0573 181.72 59.5168C181.589 58.9764 182.281 58.4328 182.729 59.136Z" fill="white" stroke="#263238" stroke-width="1.04742" stroke-linecap="round" stroke-linejoin="round"/>
<path d="M181.727 59.7218C181.727 59.7218 182.941 61.3984 182.237 62.0007C181.532 62.603 180.849 60.6431 180.718 60.1027C180.588 59.5623 181.279 59.0219 181.727 59.7218Z" fill="white" stroke="#263238" stroke-width="1.04742" stroke-linecap="round" stroke-linejoin="round"/>
<path d="M180.618 59.8782C180.618 59.8782 181.832 61.5548 181.127 62.1571C180.422 62.7594 179.739 60.8028 179.613 60.2591C179.487 59.7154 180.183 59.175 180.618 59.8782Z" fill="white" stroke="#263238" stroke-width="1.04742" stroke-linecap="round" stroke-linejoin="round"/>
<path d="M179.217 59.8913C179.217 59.8913 180.348 61.2098 179.73 61.6851C179.112 62.1604 178.447 60.6303 178.321 60.1843C178.194 59.7383 178.799 59.3053 179.217 59.8913Z" fill="white" stroke="#263238" stroke-width="1.04742" stroke-linecap="round" stroke-linejoin="round"/>
<path d="M29.5197 78.4412V80.2904C28.6621 80.9917 28.0454 81.8386 27.7228 82.7581C27.1963 84.2687 25.5473 90.77 25.9824 90.9393C26.4175 91.1085 30.5117 91.8085 31.817 91.662C33.3137 91.4927 34.5885 91.5513 33.8358 90.9327C33.0831 90.3142 29.1281 88.5855 29.1281 88.5855C29.1281 88.5855 33.479 83.878 34.4449 82.1395C35.4108 80.4011 35.5674 77.712 35.5674 77.712L29.7285 77.546L29.5197 78.4412Z" fill="white" stroke="#263238" stroke-width="1.04742" stroke-linecap="round" stroke-linejoin="round"/>
<path d="M31.817 91.6621C33.3137 91.4928 34.5886 91.5514 33.8358 90.9328C33.0831 90.3143 29.1282 88.5856 29.1282 88.5856L28.9802 89.2562L26.1304 88.9958C25.9216 90.0831 25.8302 90.8807 25.9825 90.9491C26.448 91.1054 30.5118 91.8086 31.817 91.6621Z" fill="#263238" stroke="#263238" stroke-width="1.04742" stroke-linecap="round" stroke-linejoin="round"/>
<path d="M43.8264 79.3983L44.5008 80.2969C44.2212 80.7002 44.0568 81.1426 44.0178 81.596C43.9789 82.0493 44.0663 82.5038 44.2746 82.9306C44.9489 84.4998 46.524 90.2718 46.524 90.6072C46.524 90.9425 47.4942 91.1671 48.2643 91.1671C49.0344 91.1671 51.1664 91.2778 51.4666 91.2778C51.7668 91.2778 53.9379 91.5578 54.6863 91.2225C55.4346 90.8872 53.7334 90.2132 52.6109 89.8226C51.4883 89.4319 49.017 88.4227 49.017 88.4227C49.017 88.4227 49.6131 83.8259 49.6131 81.8074C49.6131 79.789 50.2135 79.1184 49.3912 77.8845C48.5689 76.6507 43.4 78.4477 43.4 78.4477L43.8264 79.3983Z" fill="white" stroke="#263238" stroke-width="1.04742" stroke-linecap="round" stroke-linejoin="round"/>
<path d="M52.5882 89.8227C51.4657 89.4288 48.9943 88.4228 48.9943 88.4228L48.6941 89.2627L46.2881 89.5883C46.4317 90.1482 46.523 90.5324 46.523 90.6105C46.523 90.9361 47.4933 91.1705 48.2634 91.1705C49.0335 91.1705 51.1654 91.2812 51.4657 91.2812C51.7659 91.2812 53.937 91.5612 54.6853 91.2258C55.4337 90.8905 53.7107 90.2133 52.5882 89.8227Z" fill="#263238" stroke="#263238" stroke-width="1.04742" stroke-linecap="round" stroke-linejoin="round"/>
<path d="M39.7928 42.0932C39.2057 41.3424 38.5347 40.6302 37.787 39.9641C36.7559 39.0949 33.5231 39.1437 32.1047 40.2896C30.6863 41.4356 31.1345 43.4801 31.6696 44.0596C32.2048 44.639 33.2838 47.3476 33.2838 47.3476L33.5405 49.2814L39.5491 50.8767L38.3222 47.7351C38.3222 47.7351 40.6499 47.4095 40.8413 46.8658C41.0328 46.3222 40.4541 44.4958 40.4541 44.4958C40.4541 44.4958 41.2286 44.1084 41.1633 43.7698C41.0981 43.4312 39.7928 42.0932 39.7928 42.0932Z" fill="white" stroke="#263238" stroke-width="1.04742" stroke-linecap="round" stroke-linejoin="round"/>
<path d="M32.8785 44.1775C32.8785 44.1775 33.9053 44.8287 34.4666 44.0831C35.0278 43.3376 35.4542 42.6084 35.4542 41.9768C35.4542 41.3452 33.344 40.8211 34.7494 40.3979C36.1547 39.9746 37.1685 40.9155 37.795 39.9714C38.4215 39.0273 37.8516 38.9264 34.4753 38.9264C31.099 38.9264 29.4108 40.1895 30.1244 41.7684C30.695 42.9345 31.4011 44.0609 32.2346 45.1347L32.8785 44.1775Z" fill="#263238" stroke="#263238" stroke-width="1.04742" stroke-linecap="round" stroke-linejoin="round"/>
<path d="M39.9835 43.2099C39.9835 43.4488 39.8888 43.6823 39.7115 43.8809C39.5341 44.0795 39.282 44.2343 38.987 44.3258C38.6921 44.4172 38.3675 44.4411 38.0544 44.3945C37.7413 44.3479 37.4537 44.2328 37.2279 44.0639C37.0022 43.895 36.8484 43.6798 36.7861 43.4455C36.7239 43.2112 36.7558 42.9684 36.878 42.7477C37.0002 42.527 37.2071 42.3383 37.4725 42.2056C37.738 42.0729 38.0501 42.0021 38.3693 42.0021C38.7974 42.0021 39.208 42.1293 39.5107 42.3558C39.8134 42.5824 39.9835 42.8896 39.9835 43.2099V43.2099Z" stroke="#263238" stroke-width="1.04742" stroke-linecap="round" stroke-linejoin="round"/>
<path d="M39.7488 42.1388C39.9367 42.0812 40.1376 42.0514 40.3406 42.0509C40.6767 42.0514 41.0031 42.1352 41.2686 42.2894C41.5342 42.4436 41.7239 42.6593 41.808 42.9028C41.8921 43.1463 41.8658 43.4038 41.7333 43.6349C41.6008 43.8661 41.3696 44.0578 41.0759 44.18" stroke="#263238" stroke-width="1.04742" stroke-linecap="round" stroke-linejoin="round"/>
<path d="M36.7562 43.2099L32.8795 44.1768" stroke="#263238" stroke-width="1.04742" stroke-linecap="round" stroke-linejoin="round"/>
<path d="M33.9932 44.8051C33.9932 44.8051 33.2187 43.5973 32.4442 43.8284C31.6698 44.0595 32.057 45.9575 32.8315 46.1496C33.0917 46.1934 33.3622 46.19 33.6203 46.1396C33.8785 46.0892 34.1167 45.9933 34.3151 45.8599C34.3151 45.8599 34.9634 46.8756 35.7379 47.1621" fill="white"/>
<path d="M33.9932 44.8051C33.9932 44.8051 33.2187 43.5973 32.4442 43.8284C31.6698 44.0595 32.057 45.9575 32.8315 46.1496C33.0917 46.1934 33.3622 46.19 33.6203 46.1396C33.8785 46.0892 34.1167 45.9933 34.3151 45.8599C34.3151 45.8599 34.9634 46.8756 35.7379 47.1621" stroke="#263238" stroke-width="1.04742" stroke-linecap="round" stroke-linejoin="round"/>
<path d="M28.9109 66.5097L28.428 71.1391L26.9835 77.992C26.9835 77.992 30.3598 79.9747 33.5098 79.9747C36.6599 79.9747 37.5257 79.6752 37.5257 79.6752L39.2922 72.6432L41.0586 80.0365C41.0586 80.0365 44.5393 79.6165 46.8453 79.1933C48.4488 78.8595 49.9684 78.3316 51.3442 77.6307L46.6843 68.5542L45.6749 63.8728C45.6749 63.8728 40.4539 64.2341 37.3169 64.3546C34.1799 64.475 30.0073 63.8728 30.0073 63.8728L28.9109 66.5097Z" fill="#6FC3A4" stroke="#263238" stroke-width="1.04742" stroke-linecap="round" stroke-linejoin="round"/>
<path d="M32.2225 48.0118C32.2225 48.0118 39.619 49.9423 41.9032 51.8175C43.165 52.8593 44.579 59.9889 45.0881 61.7306C45.5972 63.4723 46.4847 66.9395 46.4847 66.9395C46.4847 66.9395 41.9729 68.4631 38.4834 68.5184C34.994 68.5738 28.298 67.3757 28.298 67.3757C28.298 67.3757 29.0942 59.6503 29.0942 56.0595C29.0942 52.4686 29.1682 50.1246 29.9644 48.9819C29.9687 48.9917 31.2783 47.9011 32.2225 48.0118Z" fill="#263238" stroke="#263238" stroke-width="1.04742" stroke-linecap="round" stroke-linejoin="round"/>
<path d="M30.2774 67.9356C30.2774 67.9356 30.6777 72.9849 30.2774 74.8504C29.9964 76.0539 29.5109 77.2256 28.8329 78.337" stroke="#263238" stroke-width="1.04742" stroke-linecap="round" stroke-linejoin="round"/>
<path d="M30.4376 70.3415C31.0417 70.1862 31.5816 69.9162 32.0041 69.5577C32.4267 69.1993 32.7175 68.7649 32.848 68.297" stroke="#263238" stroke-width="1.04742" stroke-linecap="round" stroke-linejoin="round"/>
<path d="M27.384 77.0153C27.384 77.0153 31.4042 79.6002 37.6695 78.6431" stroke="#263238" stroke-width="1.04742" stroke-linecap="round" stroke-linejoin="round"/>
<path d="M40.8847 78.5162C40.8847 78.5162 47.472 77.9758 50.3653 76.5336" stroke="#263238" stroke-width="1.04742" stroke-linecap="round" stroke-linejoin="round"/>
<path d="M70.3489 45.6742C70.3489 45.6742 69.7137 46.0258 67.4991 47.2369C65.2845 48.4479 67.0292 50.2775 67.0292 50.2775C67.0292 50.2775 65.4455 50.4631 63.3309 52.1267C61.2164 53.7903 64.2751 56.6454 67.1336 57.0914C69.9922 57.5374 73.3337 54.8906 74.3344 52.436C75.3351 49.9813 74.0124 46.2797 73.3467 45.5147C72.681 44.7496 70.3489 45.6742 70.3489 45.6742Z" fill="#263238" stroke="#263238" stroke-width="1.04742" stroke-linecap="round" stroke-linejoin="round"/>
<path d="M78.7374 45.3487C78.7374 45.3487 79.8381 44.0757 78.8418 42.2298C77.8454 40.384 74.8694 39.5408 71.9717 40.8788C71.0059 41.3088 70.2568 41.9653 69.8406 42.7464C69.4244 43.5276 69.3645 44.3897 69.6701 45.1989C69.9529 46.0518 71.38 47.3638 71.6802 47.3834C71.9804 47.4029 74.5866 48.1126 76.3661 47.4908C78.1456 46.869 78.7374 45.3487 78.7374 45.3487Z" fill="#263238" stroke="#263238" stroke-width="1.04742" stroke-linecap="round" stroke-linejoin="round"/>
<path d="M65.9327 88.3217C65.9327 88.3217 67.9994 90.7276 71.5888 91.1378C75.1783 91.548 71.95 89.1389 71.3452 88.7743C70.7404 88.4096 66.42 87.6218 65.9327 88.3217Z" fill="#737373" stroke="#263238" stroke-width="1.04742" stroke-linecap="round" stroke-linejoin="round"/>
<path d="M85.0556 88.9405C85.0556 88.9405 89.0019 89.6665 88.6973 90.3045C88.3928 90.9426 85.1775 90.8938 83.2979 90.5292C81.4183 90.1646 79.6518 89.6209 79.8955 89.0316C80.1391 88.4424 85.0556 88.9405 85.0556 88.9405Z" fill="#737373" stroke="#263238" stroke-width="1.04742" stroke-linecap="round" stroke-linejoin="round"/>
<path d="M73.834 50.1344C73.834 50.1344 68.552 50.7139 67.5861 52.1105C66.6202 53.5071 67.982 61.1153 67.982 61.1153C67.982 61.1153 65.7283 64.8364 65.6978 67.2325C65.6674 69.6285 67.0945 73.8445 66.9813 74.896C66.8682 75.9475 65.4237 87.9182 65.4237 88.2437C65.4237 88.5693 68.4693 89.2985 72.8594 89.6892C77.2495 90.0798 85.6467 88.9111 85.6467 88.9111C85.6467 88.9111 85.4814 81.8466 85.9208 77.6339C86.3602 73.4213 85.7337 69.635 84.6155 68.0626C83.4974 66.4902 78.2893 60.8288 78.2893 60.8288C78.2893 60.8288 80.8128 57.404 80.9695 55.9064C81.1261 54.4089 80.3125 53.6276 78.4068 51.9054C77.8404 51.3974 77.1442 50.979 76.359 50.6749C75.5738 50.3708 74.7154 50.187 73.834 50.1344V50.1344Z" fill="#6FC3A4" stroke="#263238" stroke-width="1.04742" stroke-linecap="round" stroke-linejoin="round"/>
<path d="M78.3025 60.832C78.3025 60.832 80.826 57.4072 80.9827 55.9097C81.1393 54.4121 80.3257 53.6308 78.42 51.9086C78.3286 51.824 78.2329 51.7491 78.1372 51.671L78.0676 51.7198C76.1096 54.1126 69.6355 58.2016 67.7081 59.3931C67.856 60.4121 67.9822 61.1153 67.9822 61.1153C67.9822 61.1153 65.7284 64.8364 65.6979 67.2324C65.734 68.3242 65.8795 69.4125 66.133 70.488C70.7058 68.5347 76.8232 64.8787 80.1342 62.8407C79.0987 61.6948 78.3025 60.832 78.3025 60.832Z" fill="#737373" stroke="#263238" stroke-width="1.04742" stroke-linecap="round" stroke-linejoin="round"/>
<path d="M72.8599 47.341C73.0058 48.2345 73.0857 49.1333 73.0992 50.0333C73.0295 50.7007 73.3167 52.2243 74.8395 52.7029C76.3623 53.1815 77.3195 52.5141 77.3152 51.8434C77.2599 51.2895 77.1138 50.7428 76.8801 50.2157L76.9236 48.3763C76.9236 48.3763 74.2957 47.1457 72.8599 47.341Z" fill="white" stroke="#263238" stroke-width="1.04742" stroke-linecap="round" stroke-linejoin="round"/>
<path d="M71.4936 46.1463C71.4936 46.1463 70.3754 45.4105 70.3406 46.4718C70.3058 47.5332 71.6111 47.8848 71.8982 47.9564C72.1406 47.981 72.3864 47.9356 72.5857 47.8294C72.5857 47.8294 74.6132 49.1316 76.2404 49.2163C77.8677 49.3009 78.529 48.7377 78.9119 46.5272C79.2947 44.3167 76.2448 42.0736 76.2448 42.0736C76.2448 42.0736 73.6342 45.6742 71.4936 46.1463Z" fill="white" stroke="#263238" stroke-width="1.04742" stroke-linecap="round" stroke-linejoin="round"/>
<path d="M46.6101 66.8937C46.5953 66.5165 46.678 66.1406 46.8538 65.7868C47.1235 65.3441 48.5941 65.0902 48.9205 65.0055C49.2468 64.9209 49.4121 65.0055 49.3164 65.2367C49.2403 65.3609 49.1312 65.4723 48.9959 65.5641C48.8605 65.6559 48.7016 65.7261 48.5289 65.7706C48.3038 65.811 48.1014 65.9032 47.9502 66.0343C47.8675 66.1384 47.9198 66.8058 47.5151 67.0891C47.1105 67.3723 46.4753 67.2942 46.6101 66.8937Z" fill="white" stroke="#263238" stroke-width="1.04742" stroke-linecap="round" stroke-linejoin="round"/>
<path d="M79.9558 57.1044C79.9558 57.1044 74.7347 56.5933 72.4331 59.3214C70.1314 62.0496 65.8284 71.5948 57.8532 73.1314C49.878 74.668 47.5981 62.3881 42.8121 62.73C38.2524 63.0555 35.0675 62.73 32.3308 66.4804C30.8689 68.489 23.5594 90.4216 20.1048 90.6462C9.10133 91.3657 2.01807 90.8969 2.01807 90.8969" stroke="#263238" stroke-width="3.14226" stroke-linecap="round" stroke-linejoin="round"/>
<path d="M32.5619 48.168C32.5619 48.168 31.3567 47.8066 29.7468 48.5261C28.137 49.2455 23.8035 57.124 24.1255 57.9671C24.4474 58.8103 29.0246 60.373 31.596 60.9134C34.1674 61.4538 38.8272 62.118 38.8272 62.118C38.8272 62.118 40.2717 63.8011 40.7546 63.8597C41.457 63.8526 42.1567 63.7926 42.8431 63.6806C42.8431 63.6806 43.7132 64.221 44.0483 63.6188C44.3833 63.0165 43.7263 62.2384 43.004 61.6361C42.2818 61.0339 39.2275 60.7344 39.2275 60.7344L30.9477 56.4631L34.4284 51.6546" fill="#263238"/>
<path d="M32.5619 48.168C32.5619 48.168 31.3567 47.8066 29.7468 48.5261C28.137 49.2455 23.8035 57.124 24.1255 57.9671C24.4474 58.8103 29.0246 60.373 31.596 60.9134C34.1674 61.4538 38.8272 62.118 38.8272 62.118C38.8272 62.118 40.2717 63.8011 40.7546 63.8597C41.457 63.8526 42.1567 63.7926 42.8431 63.6806C42.8431 63.6806 43.7132 64.221 44.0483 63.6188C44.3833 63.0165 43.7263 62.2384 43.004 61.6361C42.2818 61.0339 39.2275 60.7344 39.2275 60.7344L30.9477 56.4631L34.4284 51.6546" stroke="#263238" stroke-width="1.04742" stroke-linecap="round" stroke-linejoin="round"/>
<path d="M40.7538 63.8566C41.4562 63.8495 42.1558 63.7895 42.8422 63.6775C42.8422 63.6775 43.7124 64.2179 44.0474 63.6156C44.3824 63.0134 43.7254 62.2353 43.0032 61.633C42.2809 61.0307 39.2266 60.7312 39.2266 60.7312L30.9468 56.4632L32.1825 54.741C29.089 53.2988 27.0354 53.4063 25.9259 53.696C24.8164 55.6884 23.9723 57.5766 24.1203 57.964C24.4422 58.8072 29.0194 60.3699 31.5908 60.9103C34.1621 61.4507 38.8219 62.1148 38.8219 62.1148C38.8219 62.1148 40.2708 63.798 40.7538 63.8566Z" fill="white" stroke="#263238" stroke-width="1.04742" stroke-linecap="round" stroke-linejoin="round"/>
<path d="M92.5085 57.2379C92.1561 54.3958 90.3331 52.0616 88.1576 51.1338L88.088 50.5543L82.4057 50.9482C79.2078 51.1696 77.0019 54.4544 77.4761 58.2829C77.9504 62.1114 80.9264 65.0317 84.1243 64.794L89.8066 64.4001L89.7326 63.8206C91.647 62.6226 92.8609 60.08 92.5085 57.2379Z" fill="#263238" stroke="#263238" stroke-width="1.04742" stroke-linecap="round" stroke-linejoin="round"/>
<path d="M95.0802 57.0686C94.7104 54.0833 92.9048 51.6253 90.6031 50.6487L90.5248 50.0399L88.0927 50.2092C84.7338 50.4436 82.4147 53.8912 82.9107 57.915C83.4067 61.9389 86.5394 65.0089 89.8983 64.7745L92.3305 64.6052L92.2565 63.9964C94.2666 62.7137 95.45 60.0442 95.0802 57.0686Z" fill="white" stroke="#263238" stroke-width="1.04742" stroke-linecap="round" stroke-linejoin="round"/>
<path d="M97.5157 56.8895C98.0161 60.9134 95.697 64.361 92.3338 64.5954C88.9705 64.8298 85.8422 61.7566 85.3332 57.736C84.8241 53.7154 87.1519 50.2482 90.5108 50.0301C93.8696 49.812 97.011 52.8689 97.5157 56.8895Z" fill="white" stroke="#263238" stroke-width="1.04742" stroke-linecap="round" stroke-linejoin="round"/>
<path d="M100.127 54.539L90.6894 55.1901C90.5571 55.1995 90.4236 55.1892 90.2966 55.1599C90.1695 55.1306 90.0515 55.0829 89.9492 55.0193C89.8469 54.9558 89.7624 54.8778 89.7006 54.7898C89.6387 54.7018 89.6006 54.6055 89.5886 54.5064V54.5064C89.5761 54.4074 89.5897 54.3075 89.6289 54.2125C89.6681 54.1174 89.7319 54.0291 89.8168 53.9526C89.9017 53.876 90.006 53.8128 90.1236 53.7665C90.2412 53.7202 90.3699 53.6917 90.5023 53.6828L99.9394 53.0316C100.072 53.0222 100.205 53.0325 100.332 53.0618C100.459 53.0911 100.577 53.1389 100.68 53.2024C100.782 53.2659 100.866 53.3439 100.928 53.4319C100.99 53.52 101.028 53.6163 101.04 53.7153V53.7153C101.053 53.8143 101.039 53.9142 101 54.0093C100.961 54.1043 100.897 54.1926 100.812 54.2692C100.727 54.3457 100.623 54.4089 100.505 54.4552C100.388 54.5015 100.259 54.53 100.127 54.539V54.539Z" fill="#737373" stroke="#263238" stroke-width="1.04742" stroke-linecap="round" stroke-linejoin="round"/>
<path d="M100.827 60.1354L91.3897 60.7865C91.2573 60.7959 91.1238 60.7857 90.9968 60.7564C90.8698 60.7271 90.7518 60.6793 90.6495 60.6158C90.5472 60.5523 90.4627 60.4743 90.4008 60.3862C90.3389 60.2982 90.3009 60.2019 90.2889 60.1029V60.1029C90.2763 60.0039 90.29 59.904 90.3292 59.8089C90.3683 59.7139 90.4322 59.6255 90.5171 59.549C90.602 59.4725 90.7062 59.4093 90.8239 59.363C90.9415 59.3167 91.0702 59.2882 91.2026 59.2792L100.64 58.6281C100.906 58.6109 101.172 58.6729 101.378 58.8009C101.584 58.9289 101.714 59.1124 101.74 59.3118V59.3118C101.753 59.4108 101.739 59.5107 101.7 59.6057C101.661 59.7008 101.597 59.7891 101.512 59.8656C101.427 59.9421 101.323 60.0054 101.205 60.0517C101.088 60.098 100.959 60.1264 100.827 60.1354V60.1354Z" fill="#737373" stroke="#263238" stroke-width="1.04742" stroke-linecap="round" stroke-linejoin="round"/>
<path d="M70.5713 50.6649C70.5713 50.6649 68.3002 50.9905 67.2255 51.9672C66.1508 52.9438 63.9449 60.4804 64.454 61.3464C64.963 62.2123 73.121 63.2997 75.6401 63.456C77.6658 63.5159 79.6947 63.4484 81.7053 63.2541C81.7053 63.2541 83.8807 63.2118 84.4768 63.1369C85.0729 63.062 86.1693 62.6225 86.1867 62.4565C86.2041 62.2905 86.0954 61.8933 85.2817 61.8445C84.4681 61.7956 82.7234 61.3594 82.5015 61.3464C83.0243 61.2435 83.5545 61.163 84.0896 61.1055C84.0896 61.1055 84.2027 60.7799 83.3064 60.7799C82.4101 60.7799 81.5965 60.7343 81.2572 61.1055C81.0145 61.3946 80.8077 61.6997 80.6393 62.017C80.6393 62.017 75.614 62.2807 72.886 61.2845C70.158 60.2883 69.2965 59.9562 69.2965 59.9562L71.2544 54.0963" fill="#6FC3A4"/>
<path d="M70.5713 50.6649C70.5713 50.6649 68.3002 50.9905 67.2255 51.9672C66.1508 52.9438 63.9449 60.4804 64.454 61.3464C64.963 62.2123 73.121 63.2997 75.6401 63.456C77.6658 63.5159 79.6947 63.4484 81.7053 63.2541C81.7053 63.2541 83.8807 63.2118 84.4768 63.1369C85.0729 63.062 86.1693 62.6225 86.1867 62.4565C86.2041 62.2905 86.0954 61.8933 85.2817 61.8445C84.4681 61.7956 82.7234 61.3594 82.5015 61.3464C83.0243 61.2435 83.5545 61.163 84.0896 61.1055C84.0896 61.1055 84.2027 60.7799 83.3064 60.7799C82.4101 60.7799 81.5965 60.7343 81.2572 61.1055C81.0145 61.3946 80.8077 61.6997 80.6393 62.017C80.6393 62.017 75.614 62.2807 72.886 61.2845C70.158 60.2883 69.2965 59.9562 69.2965 59.9562L71.2544 54.0963" stroke="#263238" stroke-width="1.04742" stroke-linecap="round" stroke-linejoin="round"/>
<path d="M84.4627 63.1468C85.0674 63.0719 86.1552 62.6324 86.1726 62.4664C86.19 62.3004 86.0812 61.9032 85.2676 61.8544C84.454 61.8055 82.7093 61.3693 82.4874 61.3563C83.0101 61.2534 83.5404 61.1729 84.0754 61.1153C84.0754 61.1153 84.1886 60.7898 83.2923 60.7898C82.396 60.7898 81.5824 60.7442 81.243 61.1153C81.0003 61.4045 80.7935 61.7096 80.6252 62.0269C80.6252 62.0269 75.5999 62.2906 72.8719 61.2944C70.1438 60.2982 69.2824 59.9661 69.2824 59.9661L70.4745 56.385C68.9226 55.9072 67.285 55.6033 65.6146 55.4833C64.8009 57.9379 64.1352 60.8289 64.4398 61.3432C64.9445 62.2092 73.1068 63.2966 75.626 63.4528C77.6517 63.5128 79.6805 63.4453 81.6911 63.251C81.6911 63.251 83.8709 63.2217 84.4627 63.1468Z" fill="white" stroke="#263238" stroke-width="1.04742" stroke-linecap="round" stroke-linejoin="round"/>
<path d="M47.7152 66.2623C47.7152 66.2623 46.0358 67.2031 46.2925 67.8249C46.5492 68.4468 47.9502 67.1738 48.2983 66.7995C48.6463 66.4251 48.3722 65.8586 47.7152 66.2623Z" fill="white" stroke="#263238" stroke-width="1.04742" stroke-linecap="round" stroke-linejoin="round"/>
<path d="M48.0462 67.1055C48.0462 67.1055 46.3711 68.0464 46.6234 68.6682C46.8758 69.29 48.2855 68.0171 48.6292 67.6427C48.9729 67.2683 48.7032 66.6953 48.0462 67.1055Z" fill="white" stroke="#263238" stroke-width="1.04742" stroke-linecap="round" stroke-linejoin="round"/>
<path d="M48.8422 67.6524C48.8422 67.6524 47.1671 68.5933 47.4238 69.2151C47.6806 69.8369 49.0815 68.564 49.4296 68.1896C49.7777 67.8152 49.5036 67.2422 48.8422 67.6524Z" fill="white" stroke="#263238" stroke-width="1.04742" stroke-linecap="round" stroke-linejoin="round"/>
<path d="M49.4991 68.0953C49.4991 68.0953 48.0503 68.792 48.2939 69.3063C48.5376 69.8207 49.7341 68.8473 50.0343 68.5478C50.3345 68.2483 50.0908 67.7665 49.4991 68.0953Z" fill="white" stroke="#263238" stroke-width="1.04742" stroke-linecap="round" stroke-linejoin="round"/>
</svg>
