<svg width="501" height="280" viewBox="0 0 251 140" fill="none" xmlns="http://www.w3.org/2000/svg">
<path d="M205.536 59.5614C205.536 59.5614 217.768 60.4457 223.964 65.9812C223.964 65.9812 230.518 59.5692 242.28 59.7017C245.155 57.1704 246.985 54.0952 247.558 50.8341C248.131 47.573 247.423 44.2602 245.517 41.2814C243.61 38.3026 240.584 35.7803 236.79 34.0083C232.996 32.2362 228.59 31.2873 224.086 31.272C219.582 31.2568 215.164 32.1757 211.348 33.922C207.531 35.6682 204.473 38.1698 202.529 41.1356C200.585 44.1013 199.835 47.4092 200.366 50.674C200.897 53.9389 202.689 57.0264 205.531 59.577L205.536 59.5614Z" fill="#92E3A9"/>
<path opacity="0.5" d="M205.536 59.5614C205.536 59.5614 217.768 60.4457 223.964 65.9812C223.964 65.9812 230.518 59.5692 242.28 59.7017C245.155 57.1704 246.985 54.0952 247.558 50.8341C248.131 47.573 247.423 44.2602 245.517 41.2814C243.61 38.3026 240.584 35.7803 236.79 34.0083C232.996 32.2362 228.59 31.2873 224.086 31.272C219.582 31.2568 215.164 32.1757 211.348 33.922C207.531 35.6682 204.473 38.1698 202.529 41.1356C200.585 44.1013 199.835 47.4092 200.366 50.674C200.897 53.9389 202.689 57.0264 205.531 59.577L205.536 59.5614Z" fill="white"/>
<path d="M223.554 32.4954L223.143 90.3595H225.208L223.554 32.4954Z" fill="#B8B8B8"/>
<path d="M224.178 64.2945C224.178 64.2945 228.303 58.868 235.737 57.2085C235.737 57.2085 227.892 58.5681 223.996 63.2388L224.178 64.2945Z" fill="#B8B8B8"/>
<path d="M224.178 48.9227C224.178 48.9227 228.303 43.4963 235.737 41.8368C235.737 41.8368 227.892 43.1924 223.996 47.8671L224.178 48.9227Z" fill="#B8B8B8"/>
<path d="M224.178 56.6008C224.178 56.6008 228.303 51.1744 235.737 49.5149C235.737 49.5149 227.892 50.8744 223.996 55.5452L224.178 56.6008Z" fill="#B8B8B8"/>
<path d="M223.565 52.8378C223.565 52.8378 219.579 47.4153 212.406 45.7558C212.406 45.7558 219.979 47.1114 223.763 51.786L223.565 52.8378Z" fill="#B8B8B8"/>
<path d="M223.565 60.3756C223.565 60.3756 219.579 54.9491 212.406 53.2935C212.406 53.2935 219.979 54.6492 223.763 59.3199L223.565 60.3756Z" fill="#B8B8B8"/>
<path d="M5.33611 59.5614C5.33611 59.5614 17.5681 60.4457 23.7642 65.9812C23.7642 65.9812 30.3178 59.5692 42.0802 59.7017C44.9547 57.1704 46.785 54.0952 47.358 50.8341C47.931 47.573 47.2231 44.2602 45.3167 41.2814C43.4104 38.3026 40.384 35.7803 36.5899 34.0083C32.7959 32.2362 28.3903 31.2873 23.8861 31.272C19.3819 31.2568 14.9644 32.1757 11.1479 33.922C7.33145 35.6682 4.27308 38.1698 2.32888 41.1356C0.384677 44.1013 -0.365364 47.4092 0.166086 50.674C0.697536 53.9389 2.48861 57.0264 5.33077 59.577L5.33611 59.5614Z" fill="#92E3A9"/>
<path opacity="0.5" d="M5.33611 59.5614C5.33611 59.5614 17.5681 60.4457 23.7642 65.9812C23.7642 65.9812 30.3178 59.5692 42.0802 59.7017C44.9547 57.1704 46.785 54.0952 47.358 50.8341C47.931 47.573 47.2231 44.2602 45.3167 41.2814C43.4104 38.3026 40.384 35.7803 36.5899 34.0083C32.7959 32.2362 28.3903 31.2873 23.8861 31.272C19.3819 31.2568 14.9644 32.1757 11.1479 33.922C7.33145 35.6682 4.27308 38.1698 2.32888 41.1356C0.384677 44.1013 -0.365364 47.4092 0.166086 50.674C0.697536 53.9389 2.48861 57.0264 5.33077 59.577L5.33611 59.5614Z" fill="white"/>
<path d="M23.364 32.4954L22.9478 90.3595H25.0131L23.364 32.4954Z" fill="#B8B8B8"/>
<path d="M23.9835 64.2945C23.9835 64.2945 28.1089 58.868 35.5431 57.2085C35.5431 57.2085 27.6979 58.5681 23.8021 63.2388L23.9835 64.2945Z" fill="#B8B8B8"/>
<path d="M23.9835 48.9227C23.9835 48.9227 28.1089 43.4963 35.5431 41.8368C35.5431 41.8368 27.6979 43.1924 23.8021 47.8671L23.9835 48.9227Z" fill="#B8B8B8"/>
<path d="M23.9835 56.6008C23.9835 56.6008 28.1089 51.1744 35.5431 49.5149C35.5431 49.5149 27.6979 50.8744 23.8021 55.5452L23.9835 56.6008Z" fill="#B8B8B8"/>
<path d="M23.3693 52.8378C23.3693 52.8378 19.3827 47.4153 12.21 45.7558C12.21 45.7558 19.783 47.1114 23.5668 51.786L23.3693 52.8378Z" fill="#B8B8B8"/>
<path d="M23.3693 60.3756C23.3693 60.3756 19.3827 54.9491 12.21 53.2935C12.21 53.2935 19.783 54.6492 23.5668 59.3199L23.3693 60.3756Z" fill="#B8B8B8"/>
<path d="M155.835 65.171C155.835 65.171 165.847 65.8917 170.917 70.4221C170.917 70.4221 176.28 65.1749 185.908 65.2801C188.26 63.208 189.756 60.691 190.224 58.0222C190.692 55.3533 190.112 52.6423 188.551 50.2048C186.99 47.7673 184.513 45.7036 181.407 44.254C178.302 42.8043 174.696 42.0284 171.01 42.0164C167.324 42.0045 163.709 42.7571 160.586 44.1866C157.463 45.616 154.961 47.6636 153.37 50.0909C151.78 52.5182 151.166 55.2253 151.602 57.8971C152.037 60.5689 153.503 63.0955 155.83 65.1827L155.835 65.171Z" fill="#92E3A9"/>
<path opacity="0.5" d="M155.835 65.171C155.835 65.171 165.847 65.8917 170.917 70.4221C170.917 70.4221 176.28 65.1749 185.908 65.2801C188.26 63.208 189.756 60.691 190.224 58.0222C190.692 55.3533 190.112 52.6423 188.551 50.2048C186.99 47.7673 184.513 45.7036 181.407 44.254C178.302 42.8043 174.696 42.0284 171.01 42.0164C167.324 42.0045 163.709 42.7571 160.586 44.1866C157.463 45.616 154.961 47.6636 153.37 50.0909C151.78 52.5182 151.166 55.2253 151.602 57.8971C152.037 60.5689 153.503 63.0955 155.83 65.1827L155.835 65.171Z" fill="white"/>
<path d="M170.585 42.9976L170.249 90.3594H171.941L170.585 42.9976Z" fill="#B8B8B8"/>
<path d="M171.093 69.0277C171.093 69.0277 174.477 64.5868 180.555 63.2273C180.555 63.2273 174.151 64.3375 170.949 68.1629L171.093 69.0277Z" fill="#B8B8B8"/>
<path d="M171.093 56.4451C171.093 56.4451 174.477 52.0042 180.555 50.6485C180.555 50.6485 174.151 51.7588 170.949 55.5803L171.093 56.4451Z" fill="#B8B8B8"/>
<path d="M171.093 62.7365C171.093 62.7365 174.477 58.2956 180.555 56.9361C180.555 56.9361 174.151 58.0463 170.949 61.8717L171.093 62.7365Z" fill="#B8B8B8"/>
<path d="M170.591 59.6512C170.591 59.6512 167.33 55.2103 161.46 53.8547C161.46 53.8547 167.656 54.9649 170.757 58.7864L170.591 59.6512Z" fill="#B8B8B8"/>
<path d="M170.591 65.8177C170.591 65.8177 167.33 61.3768 161.46 60.0211C161.46 60.0211 167.656 61.1313 170.757 64.9567L170.591 65.8177Z" fill="#B8B8B8"/>
<path d="M58.9654 65.171C58.9654 65.171 68.9773 65.8917 74.0473 70.4221C74.0473 70.4221 79.3841 65.1749 89.0385 65.2801C91.39 63.208 92.8868 60.691 93.3547 58.0222C93.8226 55.3533 93.2423 52.6423 91.6813 50.2048C90.1203 47.7673 87.6429 45.7036 84.5375 44.254C81.4321 42.8043 77.8265 42.0284 74.1403 42.0164C70.4542 42.0045 66.8393 42.7571 63.7164 44.1866C60.5935 45.616 58.0911 47.6636 56.5005 50.0909C54.91 52.5182 54.2968 55.2253 54.7322 57.8971C55.1676 60.5689 56.6338 63.0955 58.9601 65.1827L58.9654 65.171Z" fill="#92E3A9"/>
<path opacity="0.5" d="M58.9654 65.171C58.9654 65.171 68.9773 65.8917 74.0473 70.4221C74.0473 70.4221 79.3841 65.1749 89.0385 65.2801C91.39 63.208 92.8868 60.691 93.3547 58.0222C93.8226 55.3533 93.2423 52.6423 91.6813 50.2048C90.1203 47.7673 87.6429 45.7036 84.5375 44.254C81.4321 42.8043 77.8265 42.0284 74.1403 42.0164C70.4542 42.0045 66.8393 42.7571 63.7164 44.1866C60.5935 45.616 58.0911 47.6636 56.5005 50.0909C54.91 52.5182 54.2968 55.2253 54.7322 57.8971C55.1676 60.5689 56.6338 63.0955 58.9601 65.1827L58.9654 65.171Z" fill="white"/>
<path d="M73.7171 42.9976L73.3809 90.3594H75.0726L73.7171 42.9976Z" fill="#B8B8B8"/>
<path d="M74.2501 69.0277C74.2501 69.0277 77.6336 64.5868 83.7122 63.2273C83.7122 63.2273 77.3081 64.3375 74.106 68.1629L74.2501 69.0277Z" fill="#B8B8B8"/>
<path d="M74.2501 56.4451C74.2501 56.4451 77.6336 52.0042 83.7122 50.6485C83.7122 50.6485 77.3081 51.7588 74.106 55.5803L74.2501 56.4451Z" fill="#B8B8B8"/>
<path d="M74.2501 62.7365C74.2501 62.7365 77.6336 58.2956 83.7122 56.9361C83.7122 56.9361 77.3081 58.0463 74.106 61.8717L74.2501 62.7365Z" fill="#B8B8B8"/>
<path d="M73.7174 59.651C73.7174 59.651 70.4619 55.2101 64.5914 53.8739C64.5914 53.8739 70.7875 54.9841 73.8882 58.8057L73.7174 59.651Z" fill="#B8B8B8"/>
<path d="M73.7171 65.8177C73.7171 65.8177 70.4563 61.3768 64.5858 60.0211C64.5858 60.0211 70.7819 61.1313 73.8826 64.9567L73.7171 65.8177Z" fill="#B8B8B8"/>
<path d="M9.01782 90.5658H239.323" stroke="#263238" stroke-width="1.04742" stroke-miterlimit="10"/>
<path d="M91.0673 17.5365C91.0673 14.5253 93.2447 12.8034 97.2207 12.8034C101.197 12.8034 103.379 14.5253 103.379 17.5365V27.3298C103.379 30.3411 101.202 32.0629 97.2207 32.0629C93.2394 32.0629 91.0673 30.3411 91.0673 27.3298V17.5365ZM95.1233 27.5168C95.1233 28.8608 95.9345 29.3711 97.2207 29.3711C98.5069 29.3711 99.3234 28.8608 99.3234 27.5168V17.3495C99.3234 16.0056 98.5122 15.4952 97.2207 15.4952C95.9292 15.4952 95.1233 16.0056 95.1233 17.3495V27.5168Z" fill="#263238"/>
<path d="M106.437 17.5365C106.437 14.5253 108.609 12.8034 112.59 12.8034C116.571 12.8034 118.743 14.5253 118.743 17.5365V27.3298C118.743 30.3411 116.566 32.0629 112.59 32.0629C108.614 32.0629 106.437 30.3411 106.437 27.3298V17.5365ZM110.487 27.5168C110.487 28.8608 111.299 29.3711 112.59 29.3711C113.882 29.3711 114.688 28.8608 114.688 27.5168V17.3495C114.688 16.0056 113.876 15.4952 112.59 15.4952C111.304 15.4952 110.487 16.0056 110.487 17.3495V27.5168Z" fill="#263238"/>
<path d="M134.147 17.6727V20.1191C134.147 23.1342 132.156 24.7937 128.105 24.7937H126.189V31.868H122.133V13.0214H128.105C132.156 13.0214 134.147 14.6615 134.147 17.6727ZM126.189 15.7249V22.098H128.105C129.391 22.098 130.091 21.6695 130.091 20.3255V17.5013C130.091 16.1534 129.391 15.7249 128.105 15.7249H126.189Z" fill="#263238"/>
<path d="M142.44 12.8034C146.378 12.8034 148.406 14.5253 148.406 17.5365V18.1286H144.575V17.3495C144.575 16.0056 143.838 15.4952 142.547 15.4952C141.255 15.4952 140.519 16.0056 140.519 17.3495C140.519 21.2217 148.444 21.9501 148.444 27.3298C148.444 30.3411 146.378 32.0629 142.402 32.0629C138.427 32.0629 136.356 30.3411 136.356 27.3298V26.1612H140.188V27.5051C140.188 28.8491 140.999 29.336 142.29 29.336C143.582 29.336 144.388 28.8491 144.388 27.5051C144.388 23.633 136.468 22.9045 136.468 17.5248C136.468 14.5291 138.496 12.8034 142.44 12.8034Z" fill="#263238"/>
<path d="M152.056 27.6764L151.522 20.8748V13.0214H155.578V20.8748L155.044 27.6764H152.056ZM155.519 28.997V31.8485H151.634V28.997H155.519Z" fill="#263238"/>
<path d="M82.3202 131.072C84.2201 131.072 85.0313 131.894 85.0313 133.23V134.289C85.0313 135.688 84.1347 136.42 82.2188 136.42H81.0233V139.899H79.6785V131.072H82.3202ZM82.2188 135.536C83.2168 135.536 83.7024 135.197 83.7024 134.367V133.199C83.7024 132.392 83.3022 131.987 82.3202 131.987H81.0233V135.555L82.2188 135.536Z" fill="#263238"/>
<path d="M87.6255 138.119L87.1558 139.899H85.9124L88.2285 131.072H90.1818L92.498 139.899H91.1478L90.6835 138.119H87.6255ZM87.7963 137.277H90.4913L89.1251 132.174L87.7963 137.277Z" fill="#263238"/>
<path d="M99.2324 133.202V133.958H97.9516V133.152C97.9516 132.372 97.5193 131.882 96.5373 131.882C95.5554 131.882 95.1231 132.357 95.1231 133.152V137.826C95.1231 138.605 95.5714 139.1 96.5373 139.1C97.5033 139.1 97.9516 138.621 97.9516 137.826V136.069H96.7081V135.185H99.2324V137.783C99.2324 139.119 98.3679 140 96.5053 140C94.6428 140 93.7889 139.119 93.7889 137.783V133.202C93.7889 131.866 94.6534 130.986 96.5053 130.986C98.3572 130.986 99.2324 131.866 99.2324 133.202Z" fill="#263238"/>
<path d="M105.156 134.983V135.863H102.205V139.003H105.828V139.899H100.854V131.072H105.828V131.968H102.205V134.983H105.156Z" fill="#263238"/>
<path d="M111.635 139.899H110.429V131.072H112.142L114.938 137.452V131.072H116.134V139.899H114.73L111.64 132.762L111.635 139.899Z" fill="#263238"/>
<path d="M117.752 133.202C117.752 131.854 118.665 130.986 120.516 130.986C122.368 130.986 123.297 131.854 123.297 133.202V137.768C123.297 139.104 122.379 139.984 120.516 139.984C118.654 139.984 117.752 139.104 117.752 137.768V133.202ZM119.081 137.818C119.081 138.625 119.55 139.092 120.516 139.092C121.482 139.092 121.947 138.625 121.947 137.818V133.144C121.947 132.365 121.498 131.874 120.516 131.874C119.534 131.874 119.081 132.349 119.081 133.144V137.818Z" fill="#263238"/>
<path d="M126.679 139.899V131.968H124.454V131.072H130.255V131.968H128.029V139.899H126.679Z" fill="#263238"/>
<path d="M138.688 135.181V136.07H135.907V139.891H134.557V131.072H139.36V131.968H135.907V135.181H138.688Z" fill="#263238"/>
<path d="M140.673 133.202C140.673 131.854 141.591 130.986 143.438 130.986C145.284 130.986 146.218 131.854 146.218 133.202V137.768C146.218 139.104 145.306 139.984 143.438 139.984C141.57 139.984 140.673 139.104 140.673 137.768V133.202ZM142.008 137.818C142.008 138.625 142.472 139.092 143.438 139.092C144.404 139.092 144.873 138.625 144.873 137.818V133.144C144.873 132.365 144.425 131.874 143.438 131.874C142.451 131.874 142.008 132.349 142.008 133.144V137.818Z" fill="#263238"/>
<path d="M149.121 137.819C149.121 138.598 149.554 139.092 150.536 139.092C151.518 139.092 151.939 138.613 151.939 137.819V131.072H153.199V137.768C153.199 139.104 152.35 140 150.488 140C148.625 140 147.792 139.104 147.792 137.768V131.072H149.121V137.819Z" fill="#263238"/>
<path d="M156.065 139.899H154.838V131.072H156.546L159.342 137.452V131.072H160.538V139.899H159.161L156.065 132.762V139.899Z" fill="#263238"/>
<path d="M165.116 131.072C167 131.072 167.864 131.905 167.864 133.265V137.717C167.864 139.065 167 139.899 165.116 139.899H162.309V131.072H165.116ZM165.116 139.003C166.082 139.003 166.551 138.563 166.551 137.756V133.214C166.551 132.408 166.082 131.968 165.1 131.968H163.648V139.003H165.116Z" fill="#263238"/>
<path opacity="0.3" d="M71.8973 109.365C71.8973 110.534 62.0615 111.465 49.9202 111.465C37.779 111.465 27.9432 110.526 27.9432 109.365C27.9432 108.205 37.7843 107.266 49.9202 107.266C62.0562 107.266 71.8973 108.208 71.8973 109.365Z" fill="black"/>
<path opacity="0.3" d="M117.905 109.365C117.905 110.534 108.064 111.465 95.9282 111.465C83.7923 111.465 73.9512 110.526 73.9512 109.365C73.9512 108.205 83.7923 107.266 95.9282 107.266C108.064 107.266 117.905 108.208 117.905 109.365Z" fill="black"/>
<path opacity="0.3" d="M178.852 109.365C178.852 110.534 169.016 111.465 156.88 111.465C144.744 111.465 134.903 110.526 134.903 109.365C134.903 108.205 144.739 107.266 156.88 107.266C169.021 107.266 178.852 108.208 178.852 109.365Z" fill="black"/>
<path opacity="0.3" d="M229.766 109.365C229.766 110.534 219.925 111.465 207.789 111.465C195.653 111.465 185.791 110.526 185.791 109.365C185.791 108.205 195.632 107.266 207.768 107.266C219.904 107.266 229.766 108.208 229.766 109.365Z" fill="black"/>
<path d="M159.255 47.9412C159.255 47.9412 158.353 50.668 158.353 51.1277C158.352 51.412 158.309 51.6955 158.225 51.973C158.225 51.973 156.298 53.6598 156.554 54.1272C156.866 54.4907 157.312 54.7824 157.841 54.9687C157.841 54.9687 158.865 57.6955 159.895 57.8747C160.953 58.019 162.023 58.1127 163.097 58.1552L163.482 60.4029L168.616 59.842L167.335 56.4685L167.869 53.5624C167.869 53.5624 168.765 52.347 167.869 50.3797C166.972 48.4125 165.045 48.319 163.759 48.319C162.25 48.2492 160.747 48.1231 159.255 47.9412V47.9412Z" fill="white" stroke="#263238" stroke-width="1.04742" stroke-linecap="round" stroke-linejoin="round"/>
<path d="M161.567 46.5386C161.567 46.5386 157.073 46.4412 157.201 47.2866C157.329 48.1319 161.951 49.2343 161.951 49.2343C161.951 49.2343 160.409 49.9823 161.177 50.7341C161.946 51.4859 163.744 52.1404 163.744 52.1404C163.744 52.1404 163.21 53.7337 164.006 53.8272C164.801 53.9206 165.286 53.0753 165.415 52.7948C165.543 52.5144 166.957 52.6079 167.341 53.3558C167.558 53.7445 167.688 54.1562 167.725 54.5751C167.725 54.5751 169.268 51.2016 169.524 49.7018C169.78 48.202 164.006 46.5386 161.567 46.5386Z" fill="#263238" stroke="#263238" stroke-width="1.04742" stroke-linecap="round" stroke-linejoin="round"/>
<path d="M164.411 53.8739C164.411 53.8739 165.964 51.3807 166.892 52.6078C167.821 53.8349 167.426 55.1127 166.513 55.249C165.601 55.3853 164.838 55.5178 164.838 55.5178" fill="white"/>
<path d="M164.411 53.8739C164.411 53.8739 165.964 51.3807 166.892 52.6078C167.821 53.8349 167.426 55.1127 166.513 55.249C165.601 55.3853 164.838 55.5178 164.838 55.5178" stroke="#263238" stroke-width="1.04742" stroke-linecap="round" stroke-linejoin="round"/>
<path d="M158.098 79.8922C157.847 80.1064 153.732 86.5457 153.22 88.6999C152.707 90.8542 149.372 103.694 149.238 104.255C149.105 104.816 142.055 105.942 141.537 106.035C141.02 106.129 142.071 107.161 143.592 107.441C145.113 107.722 149.5 109.035 150.53 108.283C151.56 107.531 152.969 103.316 153.353 102.848C153.737 102.381 160.963 89.9543 160.963 89.9543C160.963 89.9543 164.667 83.9903 165.436 83.4254C166.204 82.8606 164.523 80.3635 163.877 79.6117C163.232 78.8599 159.896 78.3924 158.098 79.8922Z" fill="#263238" stroke="#263238" stroke-width="1.04742" stroke-linecap="round" stroke-linejoin="round"/>
<path d="M157.329 79.9739C157.329 79.9739 159.128 86.2535 160.024 88.5012C160.864 90.3891 162.126 92.1622 163.76 93.7485C164.79 94.7808 169.796 103.877 169.796 103.877L170.565 105.283C170.565 105.283 170.309 105.844 168.9 106.592C167.491 107.34 163.504 108.559 164.534 108.844C165.564 109.128 169.668 109.124 171.595 109.031C173.253 108.945 174.808 108.41 175.955 107.531C176.729 106.872 174.674 104.999 174.674 104.625C174.674 104.251 170.18 92.8213 169.924 92.2565C169.668 91.6916 168.382 87.6676 168.382 87.6676V83.0903C168.382 83.0903 169.028 82.2489 169.028 80.3635C169.028 78.478 167.101 78.1119 167.101 78.1119L156.572 78.8637L157.329 79.9739Z" fill="#263238" stroke="#263238" stroke-width="1.04742" stroke-linecap="round" stroke-linejoin="round"/>
<path d="M156.438 79.4246C156.438 79.4246 156.7 81.0179 157.468 81.1114C158.237 81.2049 166.194 82.7981 169.663 80.9244C169.663 80.9244 170.303 79.5181 169.919 79.1441C169.535 78.7702 168.633 78.9571 164.017 78.9571C159.4 78.9571 156.438 78.9571 156.438 79.4246Z" fill="#92E3A9" stroke="#263238" stroke-width="1.04742" stroke-linecap="round" stroke-linejoin="round"/>
<path d="M168.237 58.4355C168.237 58.4355 163.487 58.903 161.432 60.3833C159.378 61.8636 157.585 64.6021 156.688 67.1303C155.791 69.6585 155.146 78.9377 156.426 79.4051C157.707 79.8726 168.493 80.3439 170.302 79.7947C172.111 79.2454 170.174 74.8279 170.174 73.1411C170.174 71.4544 172.229 65.7396 171.845 62.557C171.46 59.3743 168.237 58.4355 168.237 58.4355Z" fill="#92E3A9" stroke="#263238" stroke-width="1.04742" stroke-linecap="round" stroke-linejoin="round"/>
<path d="M151.101 68.1744C151.043 64.3178 148.886 61.0261 146.021 59.6042V58.8251L138.122 58.8835C133.676 58.9186 130.117 63.1686 130.208 68.3497C130.298 73.5307 133.943 77.7262 138.394 77.6989L146.293 77.6405V76.8614C149.068 75.3538 151.128 72.0309 151.101 68.1744Z" fill="#263238" stroke="#263238" stroke-width="1.04742" stroke-linecap="round" stroke-linejoin="round"/>
<path d="M154.645 68.1471C154.586 64.0957 152.446 60.6365 149.436 59.1328V58.3031L146.052 58.3304C141.377 58.3654 137.657 62.818 137.737 68.2756C137.818 73.7333 141.665 78.1274 146.34 78.0924L149.724 78.0651V77.2392C152.665 75.6888 154.703 72.1828 154.645 68.1471Z" fill="white" stroke="#263238" stroke-width="1.04742" stroke-linecap="round" stroke-linejoin="round"/>
<path d="M158.038 68.1198C158.118 73.5736 154.393 78.03 149.724 78.0651C145.054 78.1002 141.185 73.706 141.121 68.2523C141.057 62.7985 144.766 58.3421 149.435 58.3031C154.105 58.2642 157.948 62.6622 158.038 68.1198Z" fill="#737373" stroke="#263238" stroke-width="1.04742" stroke-linecap="round" stroke-linejoin="round"/>
<path d="M156.096 67.9524C156.133 70.5351 154.366 72.6465 152.152 72.666C149.937 72.6855 148.112 70.5975 148.074 67.9914C148.037 65.3853 149.803 63.3167 152.018 63.2778C154.233 63.2388 156.058 65.3658 156.096 67.9524Z" fill="#263238" stroke="#263238" stroke-width="1.04742" stroke-linecap="round" stroke-linejoin="round"/>
<path d="M218.985 87.3753C219.425 84.9741 219.613 82.5518 219.545 80.1296C217.811 80.714 207.692 80.9282 206.763 80.9438C205.835 80.9594 195.716 80.714 193.982 80.1296C193.905 82.5513 194.084 84.9736 194.515 87.3753C195.215 90.5346 201.363 103.183 201.501 103.795C201.681 104.385 201.915 104.965 202.2 105.532C202.2 105.532 198.705 107.367 197.168 108.08C195.631 108.793 196.752 109.101 198.289 109.101C199.826 109.101 203.038 108.793 204.015 108.793C204.88 108.793 206.385 108.244 206.737 108.111C207.089 108.244 208.594 108.793 209.453 108.793C210.435 108.793 213.648 109.101 215.185 109.101C216.722 109.101 217.853 108.793 216.306 108.08C214.758 107.367 211.273 105.532 211.273 105.532C211.559 104.965 211.792 104.385 211.972 103.795C212.138 103.172 218.286 90.5229 218.985 87.3753Z" fill="#263238" stroke="#263238" stroke-width="1.04742" stroke-linecap="round" stroke-linejoin="round"/>
<path d="M204.651 60.2976C204.651 60.2976 199.244 61.587 196.453 62.8803C193.662 64.1736 190.86 71.1778 190.86 71.4504C190.7 71.9385 190.482 72.4155 190.209 72.8762C190.209 72.8762 187.413 72.401 186.858 74.0994C186.303 75.7979 189.649 77.9754 191.421 78.0456C193.192 78.1157 193.747 77.7067 193.747 77.7067C193.747 77.7067 192.632 79.3389 193.096 80.0167C193.561 80.6945 197.478 83.2149 205.211 83.1331C212.944 83.0513 218.553 82.1125 219.37 81.2983C220.186 80.4842 220.303 78.7818 220.303 78.7818C220.303 78.7818 223.191 78.2364 224.215 76.8769C225.24 75.5174 225.053 74.0877 224.493 72.662C223.932 71.2362 221.045 67.0953 219.092 64.7813C217.139 62.4674 213.035 61.178 211.087 60.7689C209.139 60.3599 205.953 60.2976 204.651 60.2976Z" fill="#92E3A9" stroke="#263238" stroke-width="1.04742" stroke-linecap="round" stroke-linejoin="round"/>
<path d="M206.29 66.024C207.064 65.837 209.492 64.2632 210.426 62.6894C210.795 62.0869 211.055 61.4518 211.2 60.8001L211.077 60.7728C209.124 60.3638 205.953 60.2976 204.673 60.2976C204.673 60.2976 203.541 60.5664 202.047 60.9832C202.056 61.8252 202.273 62.6592 202.687 63.4452C203.531 65.0189 205.537 66.2149 206.29 66.024Z" fill="white" stroke="#263238" stroke-width="1.04742" stroke-linecap="round" stroke-linejoin="round"/>
<path d="M215.175 69.2029C215.175 69.2029 217.411 77.9094 219.946 78.8054" stroke="#263238" stroke-width="1.04742" stroke-linecap="round" stroke-linejoin="round"/>
<path d="M193.747 77.7068C193.747 77.7068 196.544 70.0209 196.73 69.273" stroke="#263238" stroke-width="1.04742" stroke-linecap="round" stroke-linejoin="round"/>
<path d="M218.789 73.1372C218.789 73.1372 217.241 73.3904 217.241 74.2085" stroke="#263238" stroke-width="1.04742" stroke-linecap="round" stroke-linejoin="round"/>
<path d="M192.493 73.2619C192.493 73.2619 194.216 74.08 194.046 75.3383" stroke="#263238" stroke-width="1.04742" stroke-linecap="round" stroke-linejoin="round"/>
<path d="M204.043 108.801C204.907 108.801 206.412 108.251 206.765 108.119C207.117 108.251 208.622 108.801 209.481 108.801C210.463 108.801 213.676 109.108 215.213 109.108C216.75 109.108 217.881 108.801 216.334 108.088C214.994 107.468 212.187 106.004 211.472 105.63C209.823 106.728 206.562 106.456 206.562 106.456C205.901 106.383 205.247 106.281 204.603 106.152C203.627 105.945 202.228 105.54 202.228 105.54C202.228 105.54 198.733 107.375 197.196 108.088C195.659 108.801 196.779 109.108 198.316 109.108C199.853 109.108 203.066 108.801 204.043 108.801Z" fill="#92E3A9" stroke="#263238" stroke-width="1.04742" stroke-linecap="round" stroke-linejoin="round"/>
<path d="M206.561 105.556V87.7689" stroke="white" stroke-width="1.04742" stroke-linecap="round" stroke-linejoin="round"/>
<path d="M206.762 108.099L206.561 106.436V105.556" stroke="#263238" stroke-width="1.04742" stroke-linecap="round" stroke-linejoin="round"/>
<path d="M204.603 87.1573H208.654" stroke="white" stroke-width="1.04742" stroke-linecap="round" stroke-linejoin="round"/>
<path d="M199.308 50.0914C199.308 50.0914 196.405 51.3614 196.837 52.4755C197.269 53.5896 198.582 53.8039 198.294 54.4232C198.006 55.0426 196.997 55.4322 198.145 55.8217C198.798 56.0353 199.482 56.196 200.183 56.3009C200.183 56.3009 201.251 59.0044 203.087 59.4796C204.922 59.9549 208.103 59.6393 210.355 59.429C211.116 59.3746 211.836 59.1524 212.42 58.792C213.003 58.4315 213.422 57.9498 213.621 57.4111C213.84 56.8307 212.677 57.5202 212.095 56.8813C211.513 56.2425 212.389 54.6024 213.04 53.1689C213.691 51.7353 211.732 49.0318 209.192 48.132C206.652 47.2321 201.8 47.7035 199.308 50.0914Z" fill="#263238" stroke="#263238" stroke-width="1.04742" stroke-linecap="round" stroke-linejoin="round"/>
<path d="M204.187 59.3277C203.817 60.2169 203.567 61.1301 203.439 62.0545C203.343 63.2232 204.651 64.5048 206.049 64.4347C207.447 64.3646 208.653 62.3272 208.84 61.3183C209.027 60.3094 208.376 57.5786 208.376 57.5786C208.376 57.5786 206.241 57.6487 205.393 58.1902C204.894 58.5094 204.485 58.8955 204.187 59.3277V59.3277Z" fill="white" stroke="#263238" stroke-width="1.04742" stroke-linecap="round" stroke-linejoin="round"/>
<path d="M202.292 51.5755C202.292 51.5755 202.361 53.1649 204.544 54.6919C205.856 55.6181 207.412 56.3403 209.117 56.815C209.079 57.1631 208.956 57.5034 208.754 57.82C208.66 57.9524 208.512 58.0605 208.331 58.1301C208.149 58.1997 207.944 58.2274 207.74 58.2096H207.009C207.009 58.2096 205.942 60.0366 204.65 60.3015C203.359 60.5664 200.183 60.3833 199.746 58.0499C199.308 55.7164 199.239 53.8076 199.602 53.3285C199.965 52.8493 202.292 51.5755 202.292 51.5755Z" fill="white" stroke="#263238" stroke-width="1.04742" stroke-linecap="round" stroke-linejoin="round"/>
<path d="M225.128 72.1049C225.459 71.6177 225.66 71.0888 225.72 70.5467C225.72 69.8377 223.917 68.821 223.586 68.5678C223.255 68.3146 222.924 68.3419 222.855 68.6963C222.854 68.8953 222.908 69.0924 223.016 69.2753C223.123 69.4582 223.281 69.6231 223.479 69.7598C223.749 69.9155 223.946 70.1295 224.039 70.3714C224.071 70.5467 223.442 71.4076 223.756 71.9647C224.071 72.5217 224.957 72.6892 225.128 72.1049Z" fill="white" stroke="#263238" stroke-width="1.04742" stroke-linecap="round" stroke-linejoin="round"/>
<path d="M152.852 68.1277C152.852 68.1277 160.708 69.9625 165.431 74.2475C170.154 78.5326 173.255 77.9171 179.125 76.4914C184.996 75.0656 187.232 69.9625 195.339 74.2475C203.445 78.5326 205.121 80.161 211.829 77.7146C218.538 75.2682 222.167 69.3509 228.32 71.3882C234.474 73.4256 231.672 83.8539 232.232 88.9181C232.792 93.9823 231.949 106.67 233.347 108.302C234.746 109.934 249 108.692 249 108.692" stroke="#263238" stroke-width="3.14226" stroke-linecap="round" stroke-linejoin="round"/>
<path d="M167.565 61.3183C167.565 61.3183 166.001 59.4562 163.695 59.9432C161.256 60.4574 159.997 63.0012 159.426 64.5867C158.855 66.1721 158.471 67.8862 157.425 69.3626C157.425 69.3626 152.803 69.3041 150.225 68.7588C148.258 68.3112 146.324 67.7911 144.429 67.2005C144.429 67.2005 143.517 66.2695 142.871 66.0864C142.225 65.9033 140.55 65.5449 140.427 65.8254C140.304 66.1059 142.369 67.0291 142.369 67.0291C142.369 67.0291 138.527 67.4187 138.143 67.7186C137.758 68.0186 140.859 68.9146 140.859 68.9146C140.859 68.9146 142.017 69.1873 144.835 68.6964C144.835 68.6964 155.172 73.4879 157.232 74.0372C159.292 74.5865 160.435 74.7618 161.838 72.7828C163.242 70.8039 167.901 65.8955 168.643 63.9205" fill="#92E3A9"/>
<path d="M167.565 61.3183C167.565 61.3183 166.001 59.4562 163.695 59.9432C161.256 60.4574 159.997 63.0012 159.426 64.5867C158.855 66.1721 158.471 67.8862 157.425 69.3626C157.425 69.3626 152.803 69.3041 150.225 68.7588C148.258 68.3112 146.324 67.7911 144.429 67.2005C144.429 67.2005 143.517 66.2695 142.871 66.0864C142.225 65.9033 140.55 65.5449 140.427 65.8254C140.304 66.1059 142.369 67.0291 142.369 67.0291C142.369 67.0291 138.527 67.4187 138.143 67.7186C137.758 68.0186 140.859 68.9146 140.859 68.9146C140.859 68.9146 142.017 69.1873 144.835 68.6964C144.835 68.6964 155.172 73.4879 157.232 74.0372C159.292 74.5865 160.435 74.7618 161.838 72.7828C163.242 70.8039 167.901 65.8955 168.643 63.9205" stroke="#263238" stroke-width="1.04742" stroke-linecap="round" stroke-linejoin="round"/>
<path d="M147.114 67.9952C145.603 67.5823 144.445 67.2161 144.445 67.2161C144.445 67.2161 143.533 66.2851 142.887 66.102C142.241 65.9189 140.565 65.5605 140.443 65.841C140.32 66.1215 142.385 67.0447 142.385 67.0447C142.385 67.0447 138.543 67.4343 138.159 67.7342C137.774 68.0342 140.875 68.9301 140.875 68.9301C140.875 68.9301 142.033 69.2028 144.851 68.712L146.297 69.3781L147.114 67.9952Z" fill="white" stroke="#263238" stroke-width="1.04742" stroke-linecap="round" stroke-linejoin="round"/>
<path d="M186.958 72.8218C186.627 72.3345 186.426 71.8057 186.366 71.2636C186.366 70.5546 188.175 69.5418 188.5 69.2885C188.826 69.0353 189.157 69.0626 189.226 69.4171C189.227 69.6161 189.172 69.8131 189.065 69.996C188.958 70.1789 188.8 70.3438 188.602 70.4806C188.331 70.6362 188.135 70.8503 188.041 71.0922C188.009 71.2636 188.639 72.1284 188.324 72.6854C188.009 73.2425 187.129 73.4022 186.958 72.8218Z" fill="white" stroke="#263238" stroke-width="1.04742" stroke-linecap="round" stroke-linejoin="round"/>
<path d="M188.203 70.6832C188.203 70.6832 186.714 72.6894 187.579 73.4101C188.443 74.1307 189.281 71.7895 189.441 71.1429C189.601 70.4962 188.753 69.8457 188.203 70.6832Z" fill="white" stroke="#263238" stroke-width="1.04742" stroke-linecap="round" stroke-linejoin="round"/>
<path d="M189.43 71.4038C189.43 71.4038 187.941 73.41 188.805 74.1307C189.67 74.8513 190.508 72.5101 190.668 71.8635C190.828 71.2168 189.98 70.5429 189.43 71.4038Z" fill="white" stroke="#263238" stroke-width="1.04742" stroke-linecap="round" stroke-linejoin="round"/>
<path d="M190.78 71.5711C190.78 71.5711 189.291 73.5773 190.156 74.298C191.02 75.0187 191.858 72.6775 192.018 72.0308C192.178 71.3841 191.33 70.7297 190.78 71.5711Z" fill="white" stroke="#263238" stroke-width="1.04742" stroke-linecap="round" stroke-linejoin="round"/>
<path d="M192.509 71.5869C192.509 71.5869 191.121 73.1451 191.879 73.7333C192.637 74.3215 193.454 72.4711 193.614 71.9375C193.774 71.4038 193.021 70.8857 192.509 71.5869Z" fill="white" stroke="#263238" stroke-width="1.04742" stroke-linecap="round" stroke-linejoin="round"/>
<path d="M224.136 70.761C224.136 70.761 225.625 72.7672 224.76 73.4879C223.896 74.2086 223.058 71.8635 222.898 71.2168C222.738 70.5702 223.586 69.9196 224.136 70.761Z" fill="white" stroke="#263238" stroke-width="1.04742" stroke-linecap="round" stroke-linejoin="round"/>
<path d="M222.907 71.4621C222.907 71.4621 224.396 73.4682 223.532 74.1889C222.667 74.9096 221.829 72.5645 221.669 71.9178C221.509 71.2712 222.358 70.6245 222.907 71.4621Z" fill="white" stroke="#263238" stroke-width="1.04742" stroke-linecap="round" stroke-linejoin="round"/>
<path d="M221.547 71.6492C221.547 71.6492 223.036 73.6554 222.171 74.3761C221.306 75.0968 220.469 72.7555 220.314 72.105C220.159 71.4544 221.013 70.8078 221.547 71.6492Z" fill="white" stroke="#263238" stroke-width="1.04742" stroke-linecap="round" stroke-linejoin="round"/>
<path d="M219.828 71.6649C219.828 71.6649 221.215 73.2426 220.458 73.8113C219.7 74.3801 218.883 72.5492 218.729 72.0155C218.574 71.4818 219.316 70.9637 219.828 71.6649Z" fill="white" stroke="#263238" stroke-width="1.04742" stroke-linecap="round" stroke-linejoin="round"/>
<path d="M36.2089 93.8614V96.074C35.157 96.9133 34.4005 97.9267 34.0048 99.0269C33.359 100.834 31.3364 108.614 31.8701 108.816C32.4037 109.019 37.4257 109.856 39.0267 109.681C40.8626 109.479 42.4263 109.549 41.503 108.809C40.5798 108.068 35.7286 106 35.7286 106C35.7286 106 41.0654 100.367 42.2502 98.2867C43.435 96.2065 43.6271 92.9888 43.6271 92.9888L36.4651 92.7901L36.2089 93.8614Z" fill="white" stroke="#263238" stroke-width="1.04742" stroke-linecap="round" stroke-linejoin="round"/>
<path d="M39.0269 109.681C40.8627 109.479 42.4264 109.549 41.5032 108.809C40.5799 108.068 35.7287 106 35.7287 106L35.5473 106.802L32.0516 106.491C31.7955 107.792 31.6834 108.746 31.8702 108.828C32.4412 109.015 37.4258 109.857 39.0269 109.681Z" fill="#263238" stroke="#263238" stroke-width="1.04742" stroke-linecap="round" stroke-linejoin="round"/>
<path d="M53.7576 95.0067L54.5848 96.0818C54.2419 96.5644 54.0401 97.0938 53.9924 97.6363C53.9446 98.1788 54.0518 98.7226 54.3073 99.2333C55.1345 101.111 57.0664 108.018 57.0664 108.419C57.0664 108.82 58.2565 109.089 59.2011 109.089C60.1458 109.089 62.7608 109.221 63.129 109.221C63.4973 109.221 66.1604 109.556 67.0783 109.155C67.9962 108.754 65.9095 107.948 64.5326 107.48C63.1557 107.013 60.1244 105.805 60.1244 105.805C60.1244 105.805 60.8555 100.305 60.8555 97.8893C60.8555 95.4741 61.592 94.6716 60.5834 93.1952C59.5747 91.7188 53.2346 93.8692 53.2346 93.8692L53.7576 95.0067Z" fill="white" stroke="#263238" stroke-width="1.04742" stroke-linecap="round" stroke-linejoin="round"/>
<path d="M64.5048 107.48C63.1279 107.009 60.0966 105.805 60.0966 105.805L59.7284 106.81L56.7771 107.2C56.9532 107.87 57.0653 108.329 57.0653 108.423C57.0653 108.813 58.2554 109.093 59.2 109.093C60.1446 109.093 62.7597 109.225 63.1279 109.225C63.4962 109.225 66.1592 109.56 67.0772 109.159C67.9951 108.758 65.8817 107.948 64.5048 107.48Z" fill="#263238" stroke="#263238" stroke-width="1.04742" stroke-linecap="round" stroke-linejoin="round"/>
<path d="M48.8099 50.368C48.0897 49.4696 47.2667 48.6174 46.3496 47.8203C45.0848 46.7802 41.1195 46.8387 39.3797 48.2099C37.6399 49.5811 38.1896 52.0275 38.8461 52.7209C39.5025 53.4143 40.826 56.6554 40.826 56.6554L41.1409 58.9693L48.511 60.8781L47.0061 57.1189C47.0061 57.1189 49.8613 56.7294 50.0961 56.0788C50.3309 55.4283 49.6211 53.2429 49.6211 53.2429C49.6211 53.2429 50.5711 52.7793 50.491 52.3742C50.411 51.969 48.8099 50.368 48.8099 50.368Z" fill="white" stroke="#263238" stroke-width="1.04742" stroke-linecap="round" stroke-linejoin="round"/>
<path d="M40.3288 52.861C40.3288 52.861 41.5883 53.6401 42.2768 52.748C42.9652 51.8559 43.4882 50.9833 43.4882 50.2276C43.4882 49.4719 40.8999 48.8447 42.6237 48.3383C44.3475 47.8319 45.5909 48.9577 46.3594 47.828C47.1279 46.6983 46.4288 46.5775 42.2874 46.5775C38.1461 46.5775 36.0754 48.089 36.9506 49.9783C37.6506 51.3736 38.5167 52.7214 39.539 54.0063L40.3288 52.861Z" fill="#263238" stroke="#263238" stroke-width="1.04742" stroke-linecap="round" stroke-linejoin="round"/>
<path d="M49.0438 51.7042C49.0438 51.99 48.9277 52.2695 48.7102 52.5071C48.4926 52.7448 48.1834 52.93 47.8216 53.0394C47.4598 53.1488 47.0617 53.1774 46.6776 53.1217C46.2935 53.0659 45.9407 52.9282 45.6638 52.7261C45.3869 52.524 45.1984 52.2665 45.122 51.9861C45.0456 51.7058 45.0848 51.4152 45.2346 51.1511C45.3845 50.887 45.6383 50.6613 45.9639 50.5025C46.2895 50.3437 46.6723 50.2589 47.0639 50.2589C47.589 50.2589 48.0926 50.4112 48.4639 50.6823C48.8352 50.9533 49.0438 51.3209 49.0438 51.7042V51.7042Z" stroke="#263238" stroke-width="1.04742" stroke-linecap="round" stroke-linejoin="round"/>
<path d="M48.756 50.4225C48.9864 50.3537 49.2329 50.318 49.4818 50.3174C49.8941 50.3179 50.2945 50.4183 50.6202 50.6028C50.946 50.7872 51.1786 51.0454 51.2818 51.3368C51.3849 51.6281 51.3527 51.9362 51.1902 52.2128C51.0277 52.4894 50.7441 52.7188 50.3838 52.865" stroke="#263238" stroke-width="1.04742" stroke-linecap="round" stroke-linejoin="round"/>
<path d="M45.0852 51.7042L40.3301 52.8612" stroke="#263238" stroke-width="1.04742" stroke-linecap="round" stroke-linejoin="round"/>
<path d="M41.6961 53.613C41.6961 53.613 40.7461 52.1677 39.7962 52.4443C38.8462 52.7209 39.3212 54.992 40.2712 55.2218C40.5904 55.2743 40.9222 55.2702 41.2388 55.2098C41.5554 55.1495 41.8476 55.0347 42.091 54.8751C42.091 54.8751 42.8862 56.0905 43.8362 56.4333" fill="white"/>
<path d="M41.6961 53.613C41.6961 53.613 40.7461 52.1677 39.7962 52.4443C38.8462 52.7209 39.3212 54.992 40.2712 55.2218C40.5904 55.2743 40.9222 55.2702 41.2388 55.2098C41.5554 55.1495 41.8476 55.0347 42.091 54.8751C42.091 54.8751 42.8862 56.0905 43.8362 56.4333" stroke="#263238" stroke-width="1.04742" stroke-linecap="round" stroke-linejoin="round"/>
<path d="M35.4622 79.5844L34.8698 85.1238L33.098 93.3239C33.098 93.3239 37.2393 95.6963 41.1032 95.6963C44.9671 95.6963 46.0291 95.3379 46.0291 95.3379L48.1959 86.9236L50.3626 95.7703C50.3626 95.7703 54.6321 95.2678 57.4606 94.7613C59.4274 94.3618 61.2914 93.7302 62.9789 92.8915L57.2631 82.0308L56.025 76.429C56.025 76.429 49.6208 76.8614 45.7729 77.0056C41.9251 77.1497 36.8071 76.429 36.8071 76.429L35.4622 79.5844Z" fill="#92E3A9" stroke="#263238" stroke-width="1.04742" stroke-linecap="round" stroke-linejoin="round"/>
<path d="M39.5242 57.45C39.5242 57.45 48.5968 59.7601 51.3986 62.0039C52.9463 63.2505 54.6808 71.7817 55.3052 73.8658C55.9296 75.9499 57.0183 80.0986 57.0183 80.0986C57.0183 80.0986 51.484 81.9217 47.2039 81.9879C42.9238 82.0541 34.7104 80.6206 34.7104 80.6206C34.7104 80.6206 35.687 71.3765 35.687 67.0798C35.687 62.783 35.7778 59.9782 36.7544 58.6109C36.7597 58.6226 38.3661 57.3176 39.5242 57.45Z" fill="#263238" stroke="#263238" stroke-width="1.04742" stroke-linecap="round" stroke-linejoin="round"/>
<path d="M37.1384 81.2905C37.1384 81.2905 37.6294 87.3325 37.1384 89.5646C36.7936 91.0047 36.1982 92.4068 35.3666 93.7367" stroke="#263238" stroke-width="1.04742" stroke-linecap="round" stroke-linejoin="round"/>
<path d="M37.3348 84.1694C38.0759 83.9836 38.738 83.6604 39.2563 83.2316C39.7746 82.8027 40.1313 82.2828 40.2914 81.723" stroke="#263238" stroke-width="1.04742" stroke-linecap="round" stroke-linejoin="round"/>
<path d="M33.5892 92.1552C33.5892 92.1552 38.5205 95.2482 46.2055 94.1029" stroke="#263238" stroke-width="1.04742" stroke-linecap="round" stroke-linejoin="round"/>
<path d="M50.1493 93.9511C50.1493 93.9511 58.2293 93.3044 61.7782 91.5787" stroke="#263238" stroke-width="1.04742" stroke-linecap="round" stroke-linejoin="round"/>
<path d="M86.2902 54.653C86.2902 54.653 85.5111 55.0737 82.7946 56.5228C80.0782 57.9719 82.2182 60.1612 82.2182 60.1612C82.2182 60.1612 80.2756 60.3833 77.6819 62.3739C75.0882 64.3645 78.84 67.7809 82.3463 68.3146C85.8526 68.8482 89.9513 65.6812 91.1788 62.744C92.4062 59.8067 90.7838 55.3775 89.9673 54.4621C89.1508 53.5466 86.2902 54.653 86.2902 54.653Z" fill="#263238" stroke="#263238" stroke-width="1.04742" stroke-linecap="round" stroke-linejoin="round"/>
<path d="M96.5795 54.2634C96.5795 54.2634 97.9297 52.7402 96.7076 50.5315C95.4854 48.3227 91.8351 47.3138 88.2807 48.9148C87.0961 49.4294 86.1772 50.2149 85.6667 51.1496C85.1562 52.0843 85.0827 53.1159 85.4575 54.0842C85.8044 55.1048 87.5549 56.6747 87.9232 56.6981C88.2914 56.7215 91.4882 57.5707 93.6709 56.8267C95.8537 56.0826 96.5795 54.2634 96.5795 54.2634Z" fill="#263238" stroke="#263238" stroke-width="1.04742" stroke-linecap="round" stroke-linejoin="round"/>
<path d="M80.8732 105.684C80.8732 105.684 83.4082 108.563 87.8111 109.054C92.214 109.545 88.2541 106.662 87.5122 106.226C86.7704 105.789 81.471 104.847 80.8732 105.684Z" fill="#737373" stroke="#263238" stroke-width="1.04742" stroke-linecap="round" stroke-linejoin="round"/>
<path d="M104.329 106.425C104.329 106.425 109.17 107.293 108.796 108.057C108.423 108.82 104.479 108.762 102.173 108.326C99.8679 107.889 97.7011 107.239 98 106.534C98.2989 105.829 104.329 106.425 104.329 106.425Z" fill="#737373" stroke="#263238" stroke-width="1.04742" stroke-linecap="round" stroke-linejoin="round"/>
<path d="M90.565 59.9899C90.565 59.9899 84.0861 60.6833 82.9013 62.3545C81.7165 64.0257 83.387 73.1295 83.387 73.1295C83.387 73.1295 80.6225 77.5821 80.5851 80.4492C80.5478 83.3163 82.2982 88.361 82.1595 89.6192C82.0207 90.8775 80.2489 105.201 80.2489 105.591C80.2489 105.98 83.9847 106.853 89.3695 107.32C94.7544 107.788 105.054 106.389 105.054 106.389C105.054 106.389 104.852 97.9362 105.391 92.8954C105.93 87.8546 105.161 83.3241 103.79 81.4425C102.418 79.561 96.0299 72.7867 96.0299 72.7867C96.0299 72.7867 99.1253 68.6886 99.3174 66.8967C99.5095 65.1047 98.5115 64.1698 96.174 62.1091C95.4793 61.5012 94.6253 61.0006 93.6622 60.6367C92.699 60.2728 91.6461 60.0529 90.565 59.9899V59.9899Z" fill="#92E3A9" stroke="#263238" stroke-width="1.04742" stroke-linecap="round" stroke-linejoin="round"/>
<path d="M96.0461 72.7906C96.0461 72.7906 99.1414 68.6925 99.3335 66.9005C99.5257 65.1086 98.5277 64.1737 96.1902 62.1129C96.0781 62.0116 95.9607 61.922 95.8433 61.8286L95.7579 61.887C93.3563 64.7502 85.4151 69.643 83.0509 71.0687C83.2323 72.288 83.3871 73.1295 83.3871 73.1295C83.3871 73.1295 80.6226 77.582 80.5853 80.4491C80.6295 81.7556 80.8079 83.0577 81.1189 84.3447C86.728 82.0074 94.2315 77.6327 98.2929 75.1941C97.0227 73.8229 96.0461 72.7906 96.0461 72.7906Z" fill="#737373" stroke="#263238" stroke-width="1.04742" stroke-linecap="round" stroke-linejoin="round"/>
<path d="M89.3701 56.6474C89.5492 57.7165 89.6472 58.792 89.6636 59.869C89.5783 60.6676 89.9305 62.4907 91.7984 63.0633C93.6663 63.636 94.8404 62.8374 94.835 62.0349C94.7672 61.3722 94.588 60.718 94.3013 60.0872L94.3547 57.8862C94.3547 57.8862 91.1313 56.4137 89.3701 56.6474Z" fill="white" stroke="#263238" stroke-width="1.04742" stroke-linecap="round" stroke-linejoin="round"/>
<path d="M87.6942 55.2178C87.6942 55.2178 86.3226 54.3375 86.28 55.6074C86.2373 56.8773 87.8383 57.2981 88.1905 57.3838C88.4879 57.4132 88.7894 57.3589 89.0338 57.2318C89.0338 57.2318 91.5207 58.79 93.5167 58.8913C95.5127 58.9926 96.3239 58.3187 96.7935 55.6736C97.2632 53.0286 93.522 50.3446 93.522 50.3446C93.522 50.3446 90.3199 54.653 87.6942 55.2178Z" fill="white" stroke="#263238" stroke-width="1.04742" stroke-linecap="round" stroke-linejoin="round"/>
<path d="M57.1721 80.0439C57.1539 79.5924 57.2554 79.1427 57.471 78.7194C57.8019 78.1896 59.6057 77.8857 60.006 77.7845C60.4062 77.6832 60.609 77.7845 60.4916 78.061C60.3983 78.2097 60.2645 78.343 60.0985 78.4528C59.9324 78.5627 59.7375 78.6467 59.5257 78.6999C59.2496 78.7482 59.0014 78.8586 58.8159 79.0154C58.7145 79.1401 58.7785 79.9387 58.2822 80.2776C57.7858 80.6165 57.0067 80.523 57.1721 80.0439Z" fill="white" stroke="#263238" stroke-width="1.04742" stroke-linecap="round" stroke-linejoin="round"/>
<path d="M98.0739 68.3301C98.0739 68.3301 91.6698 67.7185 88.8466 70.983C86.0234 74.2474 80.7453 85.6691 70.9629 87.5078C61.1805 89.3465 58.384 74.6526 52.5134 75.0616C46.9204 75.4511 43.0139 75.0616 39.657 79.5492C37.8638 81.9528 28.898 108.197 24.6605 108.466C11.1637 109.327 2.47534 108.766 2.47534 108.766" stroke="#263238" stroke-width="3.14226" stroke-linecap="round" stroke-linejoin="round"/>
<path d="M39.9405 57.6369C39.9405 57.6369 38.4622 57.2045 36.4875 58.0654C34.5129 58.9264 29.1974 68.3535 29.5923 69.3625C29.9873 70.3714 35.6016 72.2413 38.7557 72.8879C41.9097 73.5346 47.6255 74.3293 47.6255 74.3293C47.6255 74.3293 49.3973 76.3432 49.9897 76.4133C50.8513 76.4049 51.7095 76.3331 52.5514 76.1991C52.5514 76.1991 53.6188 76.8458 54.0297 76.1251C54.4406 75.4044 53.6348 74.4734 52.7488 73.7527C51.8629 73.032 48.1165 72.6737 48.1165 72.6737L37.9605 67.5627L42.23 61.809" fill="#263238"/>
<path d="M39.9405 57.6369C39.9405 57.6369 38.4622 57.2045 36.4875 58.0654C34.5129 58.9264 29.1974 68.3535 29.5923 69.3625C29.9873 70.3714 35.6016 72.2413 38.7557 72.8879C41.9097 73.5346 47.6255 74.3293 47.6255 74.3293C47.6255 74.3293 49.3973 76.3432 49.9897 76.4133C50.8513 76.4049 51.7095 76.3331 52.5514 76.1991C52.5514 76.1991 53.6188 76.8458 54.0297 76.1251C54.4406 75.4044 53.6348 74.4734 52.7488 73.7527C51.8629 73.032 48.1165 72.6737 48.1165 72.6737L37.9605 67.5627L42.23 61.809" stroke="#263238" stroke-width="1.04742" stroke-linecap="round" stroke-linejoin="round"/>
<path d="M49.9887 76.4096C50.8503 76.4011 51.7085 76.3294 52.5504 76.1954C52.5504 76.1954 53.6177 76.842 54.0287 76.1214C54.4396 75.4007 53.6337 74.4697 52.7478 73.749C51.8619 73.0283 48.1155 72.6699 48.1155 72.6699L37.9595 67.5629L39.4751 65.5022C35.6806 63.7765 33.1617 63.905 31.8008 64.2517C30.4399 66.6358 29.4045 68.8952 29.586 69.3587C29.9809 70.3677 35.5953 72.2375 38.7493 72.8842C41.9034 73.5308 47.6191 74.3255 47.6191 74.3255C47.6191 74.3255 49.3963 76.3395 49.9887 76.4096Z" fill="white" stroke="#263238" stroke-width="1.04742" stroke-linecap="round" stroke-linejoin="round"/>
<path d="M113.471 68.4899C113.039 65.0891 110.803 62.296 108.134 61.1858L108.049 60.4924L101.079 60.9637C97.1566 61.2286 94.4508 65.1592 95.0325 69.7403C95.6142 74.3215 99.2646 77.8157 103.187 77.5314L110.157 77.06L110.066 76.3666C112.415 74.933 113.904 71.8907 113.471 68.4899Z" fill="#263238" stroke="#263238" stroke-width="1.04742" stroke-linecap="round" stroke-linejoin="round"/>
<path d="M116.626 68.2873C116.172 64.7151 113.957 61.774 111.134 60.6053L111.038 59.8768L108.055 60.0794C103.935 60.3599 101.09 64.4852 101.699 69.3001C102.307 74.115 106.15 77.7885 110.27 77.508L113.253 77.3054L113.162 76.5769C115.628 75.0421 117.079 71.8478 116.626 68.2873Z" fill="white" stroke="#263238" stroke-width="1.04742" stroke-linecap="round" stroke-linejoin="round"/>
<path d="M119.613 68.073C120.227 72.8879 117.382 77.0132 113.257 77.2937C109.132 77.5742 105.294 73.8968 104.67 69.0858C104.046 64.2749 106.901 60.1261 111.021 59.8651C115.141 59.6041 118.994 63.262 119.613 68.073Z" fill="white" stroke="#263238" stroke-width="1.04742" stroke-linecap="round" stroke-linejoin="round"/>
<path d="M122.815 65.2604L111.24 66.0395C111.078 66.0507 110.914 66.0385 110.758 66.0034C110.602 65.9684 110.457 65.9112 110.332 65.8352C110.206 65.7592 110.103 65.6658 110.027 65.5605C109.951 65.4552 109.904 65.3399 109.89 65.2214V65.2214C109.874 65.1029 109.891 64.9834 109.939 64.8697C109.987 64.7559 110.065 64.6503 110.17 64.5587C110.274 64.4671 110.402 64.3914 110.546 64.336C110.69 64.2806 110.848 64.2466 111.01 64.2358L122.586 63.4567C122.748 63.4455 122.912 63.4577 123.068 63.4928C123.224 63.5278 123.368 63.585 123.494 63.661C123.619 63.737 123.723 63.8304 123.799 63.9357C123.875 64.041 123.921 64.1563 123.936 64.2748V64.2748C123.952 64.3933 123.935 64.5128 123.887 64.6265C123.839 64.7403 123.76 64.8459 123.656 64.9375C123.552 65.0291 123.424 65.1048 123.28 65.1602C123.136 65.2156 122.978 65.2496 122.815 65.2604V65.2604Z" fill="#737373" stroke="#263238" stroke-width="1.04742" stroke-linecap="round" stroke-linejoin="round"/>
<path d="M123.674 71.957L112.099 72.7361C111.937 72.7474 111.773 72.7351 111.617 72.7C111.461 72.665 111.316 72.6078 111.191 72.5318C111.065 72.4558 110.962 72.3624 110.886 72.2571C110.81 72.1518 110.763 72.0366 110.749 71.918V71.918C110.733 71.7996 110.75 71.68 110.798 71.5663C110.846 71.4526 110.924 71.3469 111.028 71.2553C111.133 71.1637 111.26 71.0881 111.405 71.0327C111.549 70.9773 111.707 70.9432 111.869 70.9325L123.445 70.1534C123.772 70.1327 124.097 70.207 124.35 70.3601C124.603 70.5132 124.763 70.7329 124.795 70.9714V70.9714C124.811 71.0899 124.794 71.2094 124.746 71.3232C124.698 71.4369 124.619 71.5426 124.515 71.6341C124.411 71.7257 124.283 71.8014 124.139 71.8568C123.995 71.9122 123.837 71.9462 123.674 71.957V71.957Z" fill="#737373" stroke="#263238" stroke-width="1.04742" stroke-linecap="round" stroke-linejoin="round"/>
<path d="M86.563 60.6248C86.563 60.6248 83.7772 61.0143 82.459 62.183C81.1408 63.3516 78.435 72.3698 79.0594 73.406C79.6838 74.4422 89.6904 75.7433 92.7804 75.9303C95.2652 76.002 97.7538 75.9212 100.22 75.6888C100.22 75.6888 102.888 75.6381 103.62 75.5485C104.351 75.4589 105.696 74.933 105.717 74.7343C105.738 74.5357 105.605 74.0604 104.607 74.002C103.609 73.9436 101.469 73.4216 101.197 73.406C101.838 73.2829 102.488 73.1866 103.145 73.1177C103.145 73.1177 103.283 72.7282 102.184 72.7282C101.085 72.7282 100.087 72.6736 99.6703 73.1177C99.3726 73.4637 99.119 73.8288 98.9124 74.2085C98.9124 74.2085 92.7484 74.524 89.4022 73.332C86.056 72.1399 84.9993 71.7426 84.9993 71.7426L87.4009 64.7306" fill="#92E3A9"/>
<path d="M86.563 60.6248C86.563 60.6248 83.7772 61.0143 82.459 62.183C81.1408 63.3516 78.435 72.3698 79.0594 73.406C79.6838 74.4422 89.6904 75.7433 92.7804 75.9303C95.2652 76.002 97.7538 75.9212 100.22 75.6888C100.22 75.6888 102.888 75.6381 103.62 75.5485C104.351 75.4589 105.696 74.933 105.717 74.7343C105.738 74.5357 105.605 74.0604 104.607 74.002C103.609 73.9436 101.469 73.4216 101.197 73.406C101.838 73.2829 102.488 73.1866 103.145 73.1177C103.145 73.1177 103.283 72.7282 102.184 72.7282C101.085 72.7282 100.087 72.6736 99.6703 73.1177C99.3726 73.4637 99.119 73.8288 98.9124 74.2085C98.9124 74.2085 92.7484 74.524 89.4022 73.332C86.056 72.1399 84.9993 71.7426 84.9993 71.7426L87.4009 64.7306" stroke="#263238" stroke-width="1.04742" stroke-linecap="round" stroke-linejoin="round"/>
<path d="M103.602 75.5604C104.344 75.4708 105.678 74.9449 105.7 74.7462C105.721 74.5475 105.587 74.0723 104.589 74.0138C103.591 73.9554 101.451 73.4334 101.179 73.4178C101.82 73.2947 102.471 73.1985 103.127 73.1296C103.127 73.1296 103.266 72.74 102.167 72.74C101.067 72.74 100.069 72.6855 99.6529 73.1296C99.3553 73.4755 99.1016 73.8406 98.8951 74.2203C98.8951 74.2203 92.731 74.5358 89.3848 73.3438C86.0387 72.1518 84.982 71.7544 84.982 71.7544L86.4443 67.4694C84.5407 66.8976 82.532 66.534 80.483 66.3903C79.485 69.3275 78.6685 72.7868 79.0421 73.4022C79.6611 74.4385 89.673 75.7395 92.7631 75.9265C95.2478 75.9983 97.7364 75.9175 100.203 75.685C100.203 75.685 102.876 75.65 103.602 75.5604Z" fill="white" stroke="#263238" stroke-width="1.04742" stroke-linecap="round" stroke-linejoin="round"/>
<path d="M58.5276 79.2883C58.5276 79.2883 56.4676 80.4141 56.7825 81.1581C57.0974 81.9022 58.8158 80.379 59.2428 79.931C59.6697 79.4831 59.3335 78.8052 58.5276 79.2883Z" fill="white" stroke="#263238" stroke-width="1.04742" stroke-linecap="round" stroke-linejoin="round"/>
<path d="M58.9336 80.2973C58.9336 80.2973 56.8789 81.4231 57.1884 82.1671C57.498 82.9112 59.2271 81.388 59.6487 80.94C60.0703 80.492 59.7394 79.8064 58.9336 80.2973Z" fill="white" stroke="#263238" stroke-width="1.04742" stroke-linecap="round" stroke-linejoin="round"/>
<path d="M59.9101 80.9517C59.9101 80.9517 57.8554 82.0775 58.1703 82.8215C58.4851 83.5656 60.2036 82.0424 60.6305 81.5944C61.0575 81.1464 60.7213 80.4608 59.9101 80.9517Z" fill="white" stroke="#263238" stroke-width="1.04742" stroke-linecap="round" stroke-linejoin="round"/>
<path d="M60.7157 81.4816C60.7157 81.4816 58.9386 82.3153 59.2374 82.9307C59.5363 83.5462 61.0039 82.3815 61.3722 82.0231C61.7404 81.6647 61.4415 81.0882 60.7157 81.4816Z" fill="white" stroke="#263238" stroke-width="1.04742" stroke-linecap="round" stroke-linejoin="round"/>
</svg>
