<svg className="test" width="150" height="30" viewBox="0 0 150 30" xmlns="http://www.w3.org/2000/svg">
<g>

<path fill-rule="nonzero" clip-rule="evenodd" d="M128.816 0.09C130.415 0.0163636 130.925 0 135 0C139.075 0 139.585 0.0177273 141.183 0.09C142.781 0.162273 143.872 0.417273 144.826 0.786818C145.826 1.16455 146.733 1.755 147.483 2.51864C148.246 3.26727 148.835 4.17273 149.212 5.17364C149.583 6.12818 149.836 7.21909 149.91 8.81455C149.984 10.4168 150 10.9268 150 15C150 19.0745 149.982 19.5845 149.91 21.1841C149.838 22.7795 149.583 23.8705 149.212 24.825C148.835 25.826 148.245 26.733 147.483 27.4827C146.733 28.2464 145.826 28.8355 144.826 29.2118C143.872 29.5827 142.781 29.8364 141.185 29.91C139.585 29.9836 139.075 30 135 30C130.925 30 130.415 29.9823 128.816 29.91C127.22 29.8377 126.13 29.5827 125.175 29.2118C124.174 28.8354 123.267 28.2453 122.517 27.4827C121.754 26.7336 121.164 25.8271 120.787 24.8264C120.417 23.8718 120.164 22.7809 120.09 21.1855C120.016 19.5832 120 19.0732 120 15C120 10.9255 120.018 10.4155 120.09 8.81727C120.162 7.21909 120.417 6.12818 120.787 5.17364C121.164 4.17284 121.755 3.26634 122.519 2.51727C123.267 1.75432 124.173 1.16379 125.174 0.786818C126.128 0.417273 127.219 0.163636 128.815 0.09H128.816ZM141.061 2.79C139.48 2.71773 139.005 2.70273 135 2.70273C130.995 2.70273 130.52 2.71773 128.939 2.79C127.475 2.85682 126.682 3.10091 126.153 3.30682C125.453 3.57955 124.953 3.90273 124.428 4.42773C123.93 4.91189 123.547 5.50129 123.307 6.15273C123.101 6.68182 122.857 7.47545 122.79 8.93864C122.718 10.5205 122.703 10.995 122.703 15C122.703 19.005 122.718 19.4795 122.79 21.0614C122.857 22.5245 123.101 23.3182 123.307 23.8473C123.547 24.4977 123.93 25.0882 124.428 25.5723C124.912 26.07 125.502 26.4532 126.153 26.6932C126.682 26.8991 127.475 27.1432 128.939 27.21C130.52 27.2823 130.994 27.2973 135 27.2973C139.006 27.2973 139.48 27.2823 141.061 27.21C142.525 27.1432 143.318 26.8991 143.847 26.6932C144.547 26.4205 145.047 26.0973 145.572 25.5723C146.07 25.0882 146.453 24.4977 146.693 23.8473C146.899 23.3182 147.143 22.5245 147.21 21.0614C147.282 19.4795 147.297 19.005 147.297 15C147.297 10.995 147.282 10.5205 147.21 8.93864C147.143 7.47545 146.899 6.68182 146.693 6.15273C146.42 5.45318 146.097 4.95273 145.572 4.42773C145.088 3.9301 144.499 3.54711 143.847 3.30682C143.318 3.10091 142.525 2.85682 141.061 2.79ZM133.084 19.6241C134.154 20.0695 135.346 20.1296 136.455 19.7942C137.564 19.4587 138.523 18.7485 139.167 17.7849C139.811 16.8212 140.1 15.6639 139.986 14.5106C139.871 13.3573 139.36 12.2795 138.539 11.4614C138.015 10.9384 137.383 10.5379 136.686 10.2888C135.989 10.0397 135.246 9.94822 134.51 10.0208C133.773 10.0935 133.062 10.3284 132.428 10.7088C131.793 11.0892 131.251 11.6056 130.84 12.2207C130.429 12.8359 130.159 13.5345 130.051 14.2663C129.942 14.9981 129.997 15.7449 130.212 16.453C130.426 17.161 130.795 17.8127 131.292 18.361C131.789 18.9093 132.401 19.3407 133.084 19.6241ZM129.548 9.54818C130.264 8.83224 131.114 8.26432 132.049 7.87686C132.985 7.48939 133.988 7.28996 135 7.28996C136.012 7.28996 137.015 7.48939 137.951 7.87686C138.886 8.26432 139.736 8.83224 140.452 9.54818C141.168 10.2641 141.736 11.1141 142.123 12.0495C142.511 12.9849 142.71 13.9875 142.71 15C142.71 16.0125 142.511 17.0151 142.123 17.9505C141.736 18.8859 141.168 19.7359 140.452 20.4518C139.006 21.8977 137.045 22.71 135 22.71C132.955 22.71 130.994 21.8977 129.548 20.4518C128.102 19.0059 127.29 17.0448 127.29 15C127.29 12.9552 128.102 10.9941 129.548 9.54818ZM144.42 8.43818C144.597 8.27082 144.739 8.06956 144.838 7.84633C144.936 7.62309 144.988 7.38241 144.992 7.13854C144.995 6.89467 144.95 6.65257 144.858 6.42656C144.767 6.20055 144.631 5.99524 144.458 5.82278C144.286 5.65032 144.08 5.51421 143.854 5.42252C143.628 5.33083 143.386 5.28542 143.142 5.28898C142.898 5.29253 142.658 5.34498 142.435 5.44322C142.211 5.54146 142.01 5.68349 141.843 5.86091C141.517 6.20595 141.339 6.66426 141.346 7.13854C141.353 7.61283 141.544 8.06574 141.88 8.40115C142.215 8.73656 142.668 8.92804 143.142 8.93495C143.617 8.94187 144.075 8.76367 144.42 8.43818Z" fill="white"/>
</g>
<g>

<path fill-rule="nonzero" clip-rule="evenodd" d="M86.6667 0H63.3333C61.5 0 60 1.5 60 3.33333V26.6667C60 28.5017 61.5 30 63.3333 30H75V18.3333H71.6667V14.2083H75V10.7917C75 7.185 77.02 4.65167 81.2767 4.65167L84.2817 4.655V8.99667H82.2867C80.63 8.99667 80 10.24 80 11.3933V14.21H84.28L83.3333 18.3333H80V30H86.6667C88.5 30 90 28.5017 90 26.6667V3.33333C90 1.5 88.5 0 86.6667 0Z" fill="white"/>
</g>
<g>
<path fill-rule="nonzero" clip-rule="evenodd" d="M26.7857 0H3.21429C1.43973 0 0 1.43973 0 3.21429V26.7857C0 28.5603 1.43973 30 3.21429 30H26.7857C28.5603 30 30 28.5603 30 26.7857V3.21429C30 1.43973 28.5603 0 26.7857 0ZM23.5112 10.6339C23.5246 10.8214 23.5246 11.0156 23.5246 11.2031C23.5246 17.0089 19.1049 23.6987 11.029 23.6987C8.53795 23.6987 6.22768 22.9754 4.28571 21.7299C4.64062 21.7701 4.98214 21.7835 5.34375 21.7835C7.39955 21.7835 9.28795 21.0871 10.7946 19.9085C8.86607 19.8683 7.24554 18.6027 6.68973 16.8616C7.36607 16.9621 7.97545 16.9621 8.67187 16.7812C6.66295 16.3728 5.15625 14.6049 5.15625 12.4687V12.4152C5.73884 12.7433 6.42187 12.9442 7.13839 12.971C6.536 12.5703 6.04218 12.0267 5.70098 11.3887C5.35979 10.7507 5.18185 10.0382 5.18304 9.31473C5.18304 8.49777 5.39732 7.74777 5.77902 7.09821C7.94196 9.76339 11.1897 11.5045 14.8326 11.692C14.2098 8.71205 16.4397 6.29464 19.1183 6.29464C20.3839 6.29464 21.5223 6.82366 22.3259 7.6808C23.317 7.4933 24.2679 7.125 25.1116 6.62277C24.7835 7.64062 24.0938 8.49777 23.183 9.04018C24.067 8.94643 24.9241 8.69866 25.7143 8.35714C25.1183 9.23437 24.3683 10.0112 23.5112 10.6339Z" fill="white"/>
</g>
</svg>
