<svg className="test" width="148" height="30" viewBox="0 0 148 30" fill="none" xmlns="http://www.w3.org/2000/svg">
<g>
<rect    stroke-width="6.522" width="30.154" height="30.154"></rect>
<path fill-rule="nonzero" clip-rule="evenodd" d="M126.816 0.09C128.415 0.0163636 128.925 0 133 0C137.075 0 137.585 0.0177273 139.183 0.09C140.781 0.162273 141.872 0.417273 142.826 0.786818C143.826 1.16455 144.733 1.755 145.483 2.51864C146.246 3.26727 146.835 4.17273 147.212 5.17364C147.583 6.12818 147.836 7.21909 147.91 8.81455C147.984 10.4168 148 10.9268 148 15C148 19.0745 147.982 19.5845 147.91 21.1841C147.838 22.7795 147.583 23.8705 147.212 24.825C146.835 25.826 146.245 26.733 145.483 27.4827C144.733 28.2464 143.826 28.8355 142.826 29.2118C141.872 29.5827 140.781 29.8364 139.185 29.91C137.585 29.9836 137.075 30 133 30C128.925 30 128.415 29.9823 126.816 29.91C125.22 29.8377 124.13 29.5827 123.175 29.2118C122.174 28.8354 121.267 28.2453 120.517 27.4827C119.754 26.7336 119.164 25.8271 118.787 24.8264C118.417 23.8718 118.164 22.7809 118.09 21.1855C118.016 19.5832 118 19.0732 118 15C118 10.9255 118.018 10.4155 118.09 8.81727C118.162 7.21909 118.417 6.12818 118.787 5.17364C119.164 4.17284 119.755 3.26634 120.519 2.51727C121.267 1.75432 122.173 1.16379 123.174 0.786818C124.128 0.417273 125.219 0.163636 126.815 0.09H126.816ZM139.061 2.79C137.48 2.71773 137.005 2.70273 133 2.70273C128.995 2.70273 128.52 2.71773 126.939 2.79C125.475 2.85682 124.682 3.10091 124.153 3.30682C123.453 3.57955 122.953 3.90273 122.428 4.42773C121.93 4.91189 121.547 5.50129 121.307 6.15273C121.101 6.68182 120.857 7.47545 120.79 8.93864C120.718 10.5205 120.703 10.995 120.703 15C120.703 19.005 120.718 19.4795 120.79 21.0614C120.857 22.5245 121.101 23.3182 121.307 23.8473C121.547 24.4977 121.93 25.0882 122.428 25.5723C122.912 26.07 123.502 26.4532 124.153 26.6932C124.682 26.8991 125.475 27.1432 126.939 27.21C128.52 27.2823 128.994 27.2973 133 27.2973C137.006 27.2973 137.48 27.2823 139.061 27.21C140.525 27.1432 141.318 26.8991 141.847 26.6932C142.547 26.4205 143.047 26.0973 143.572 25.5723C144.07 25.0882 144.453 24.4977 144.693 23.8473C144.899 23.3182 145.143 22.5245 145.21 21.0614C145.282 19.4795 145.297 19.005 145.297 15C145.297 10.995 145.282 10.5205 145.21 8.93864C145.143 7.47545 144.899 6.68182 144.693 6.15273C144.42 5.45318 144.097 4.95273 143.572 4.42773C143.088 3.9301 142.499 3.54711 141.847 3.30682C141.318 3.10091 140.525 2.85682 139.061 2.79V2.79ZM131.084 19.6241C132.154 20.0695 133.346 20.1296 134.455 19.7942C135.564 19.4587 136.523 18.7485 137.167 17.7849C137.811 16.8212 138.1 15.6639 137.986 14.5106C137.871 13.3573 137.36 12.2795 136.539 11.4614C136.015 10.9384 135.383 10.5379 134.686 10.2888C133.989 10.0397 133.246 9.94822 132.51 10.0208C131.773 10.0935 131.062 10.3284 130.428 10.7088C129.793 11.0892 129.251 11.6056 128.84 12.2207C128.429 12.8359 128.159 13.5345 128.051 14.2663C127.942 14.9981 127.997 15.7449 128.212 16.453C128.426 17.161 128.795 17.8126 129.292 18.361C129.789 18.9093 130.401 19.3407 131.084 19.6241ZM127.548 9.54818C128.264 8.83224 129.114 8.26432 130.049 7.87686C130.985 7.48939 131.988 7.28996 133 7.28996C134.012 7.28996 135.015 7.48939 135.951 7.87686C136.886 8.26432 137.736 8.83224 138.452 9.54818C139.168 10.2641 139.736 11.1141 140.123 12.0495C140.511 12.9849 140.71 13.9875 140.71 15C140.71 16.0125 140.511 17.0151 140.123 17.9505C139.736 18.8859 139.168 19.7359 138.452 20.4518C137.006 21.8977 135.045 22.71 133 22.71C130.955 22.71 128.994 21.8977 127.548 20.4518C126.102 19.0059 125.29 17.0448 125.29 15C125.29 12.9552 126.102 10.9941 127.548 9.54818V9.54818ZM142.42 8.43818C142.597 8.27082 142.739 8.06957 142.838 7.84633C142.936 7.62309 142.988 7.38241 142.992 7.13854C142.995 6.89467 142.95 6.65256 142.858 6.42656C142.767 6.20055 142.631 5.99524 142.458 5.82278C142.286 5.65032 142.08 5.51421 141.854 5.42252C141.628 5.33083 141.386 5.28542 141.142 5.28898C140.898 5.29253 140.658 5.34498 140.435 5.44322C140.211 5.54146 140.01 5.68349 139.843 5.86091C139.517 6.20595 139.339 6.66426 139.346 7.13854C139.353 7.61283 139.544 8.06574 139.88 8.40115C140.215 8.73655 140.668 8.92804 141.142 8.93495C141.617 8.94187 142.075 8.76367 142.42 8.43818V8.43818Z" fill="black"/>
</g>
<g>
<rect stroke-width="6.522" width="30.154" height="30.154"></rect>
<path  d="M85.6667 0H62.3333C60.5 0 59 1.5 59 3.33333V26.6667C59 28.5017 60.5 30 62.3333 30H74V18.3333H70.6667V14.2083H74V10.7917C74 7.185 76.02 4.65167 80.2767 4.65167L83.2817 4.655V8.99667H81.2867C79.63 8.99667 79 10.24 79 11.3933V14.21H83.28L82.3333 18.3333H79V30H85.6667C87.5 30 89 28.5017 89 26.6667V3.33333C89 1.5 87.5 0 85.6667 0Z" fill="black"/>
</g>
<g>
<rect   stroke-width="6.522" width="30.154" height="30.154"></rect>
<path d="M26.4662 4.73016C27.7518 3.78396 28.7138 2.29405 29.1725 0.538619C27.9644 1.4211 26.6427 2.04273 25.2644 2.37661C24.3348 1.16603 23.1076 0.365446 21.7719 0.0982804C20.4363 -0.168885 19.0663 0.112195 17.8732 0.898194C16.6801 1.68419 15.7302 2.93147 15.1697 4.44777C14.6093 5.96407 14.4695 7.66521 14.772 9.28896C12.3251 9.13772 9.93141 8.35473 7.74627 6.99082C5.56113 5.6269 3.63338 3.71253 2.08815 1.37198C1.30232 3.04066 1.06185 5.01501 1.4156 6.89405C1.76934 8.77308 2.69076 10.4159 3.99273 11.4889C3.01565 11.4502 2.06023 11.1245 1.20614 10.539V10.6343C1.20641 12.384 1.69825 14.0797 2.59823 15.4339C3.49822 16.788 4.75096 17.7173 6.14399 18.064C5.23769 18.3676 4.28703 18.4123 3.36457 18.1947C3.75858 19.6995 4.52439 21.0154 5.55513 21.9586C6.58587 22.9019 7.8301 23.4254 9.11416 23.4562C6.93398 25.5628 4.24153 26.7052 1.47003 26.6996C0.978105 26.6996 0.487618 26.6643 0 26.5954C2.81444 28.8218 6.09003 30.0036 9.43541 29.9995C11.7396 30.019 14.0239 29.4746 16.1557 28.398C18.2875 27.3214 20.2243 25.734 21.8535 23.7281C23.4828 21.7222 24.772 19.3377 25.6463 16.7131C26.5207 14.0886 26.9627 11.2763 26.9466 8.4397C26.9466 8.1113 26.9409 7.78466 26.928 7.45979C28.1334 6.38739 29.1737 5.05885 30 3.53662C28.8771 4.14937 27.6859 4.55168 26.4662 4.73016V4.73016Z" fill="black"/>
</g>
</svg>
