<svg width="936" height="216" viewBox="0 0 936 216" fill="none" xmlns="http://www.w3.org/2000/svg">
<g filter="url(#filter0_d)">
<path d="M15.1809 140.305C17.1028 141.055 19.1184 141.758 21.2278 142.414C23.3841 143.07 25.5638 143.633 27.7669 144.102C30.0169 144.57 32.2669 144.945 34.5169 145.227C36.7669 145.508 38.97 145.648 41.1263 145.648C44.8294 145.648 48.1809 145.227 51.1809 144.383C54.1809 143.539 56.7591 142.32 58.9153 140.727C61.0716 139.086 62.7356 137.094 63.9075 134.75C65.0794 132.359 65.6653 129.641 65.6653 126.594C65.6653 123.547 65.1028 121.062 63.9778 119.141C62.8997 117.172 61.3059 115.531 59.1966 114.219C57.1341 112.906 54.5794 111.805 51.5325 110.914C48.4856 109.977 45.0169 109.016 41.1263 108.031C36.8138 106.906 32.8294 105.664 29.1731 104.305C25.5638 102.898 22.4231 101.094 19.7513 98.8906C17.1263 96.6875 15.0638 93.9688 13.5638 90.7344C12.0638 87.4531 11.3138 83.375 11.3138 78.5C11.3138 74.5156 12.1106 70.9062 13.7044 67.6719C15.2981 64.4375 17.5481 61.6953 20.4544 59.4453C23.3606 57.1484 26.8528 55.3906 30.9309 54.1719C35.0091 52.9531 39.5091 52.3438 44.4309 52.3438C46.8216 52.3438 49.2591 52.5078 51.7434 52.8359C54.2278 53.1172 56.6888 53.5156 59.1263 54.0312C61.5638 54.5469 63.9544 55.1797 66.2981 55.9297C68.6419 56.6797 70.845 57.5 72.9075 58.3906L68.6888 68.7969C67.0013 68.1406 65.2669 67.4844 63.4856 66.8281C61.7513 66.1719 59.8997 65.5859 57.9309 65.0703C55.9622 64.5547 53.8528 64.1562 51.6028 63.875C49.3997 63.5469 47.0091 63.3828 44.4309 63.3828C41.8528 63.3828 39.3919 63.6641 37.0481 64.2266C34.7044 64.7891 32.6184 65.6797 30.7903 66.8984C29.0091 68.0703 27.5794 69.6172 26.5013 71.5391C25.4231 73.4609 24.8841 75.7812 24.8841 78.5C24.8841 81.5469 25.4231 84.0547 26.5013 86.0234C27.6263 87.9453 29.22 89.5625 31.2825 90.875C33.3919 92.1875 35.97 93.3125 39.0169 94.25C42.0638 95.1406 45.5325 96.0781 49.4231 97.0625C53.7356 98.1875 57.6966 99.4531 61.3059 100.859C64.9622 102.219 68.1028 104 70.7278 106.203C73.3997 108.406 75.4856 111.148 76.9856 114.43C78.4856 117.711 79.2356 121.766 79.2356 126.594C79.2356 131.703 78.2747 136.156 76.3528 139.953C74.4778 143.703 71.8294 146.82 68.4075 149.305C65.0325 151.789 61.0013 153.641 56.3138 154.859C51.6731 156.078 46.6106 156.688 41.1263 156.688C30.7669 156.688 20.7122 154.695 10.9622 150.711L15.1809 140.305ZM111.011 65.1406H123.105V81.875H147.714V92.0703H123.105V134.047C123.105 136.859 123.175 139.016 123.316 140.516C123.503 141.969 123.925 143.117 124.582 143.961C125.8 145.648 128.261 146.492 131.964 146.492C134.027 146.492 136.019 146.281 137.941 145.859C139.91 145.438 141.714 144.969 143.355 144.453C144.668 147.312 145.863 150.453 146.941 153.875C141.41 155.75 135.832 156.688 130.207 156.688C126.128 156.688 122.847 156.219 120.363 155.281C117.925 154.391 116.003 152.914 114.597 150.852C113.144 148.695 112.183 146.117 111.714 143.117C111.246 140.117 111.011 135.969 111.011 130.672V92.0703H100.464V81.875H111.011V65.1406ZM175.201 94.8125L172.107 84.9688C179.982 81.8281 188.232 80.2578 196.857 80.2578C204.404 80.2578 210.17 81.5234 214.154 84.0547C218.701 86.9609 220.974 91.9062 220.974 98.8906V127.648C220.974 131.492 221.021 135.43 221.115 139.461C221.162 141.852 221.396 144.336 221.818 146.914C222.193 149.352 222.685 151.672 223.295 153.875L211.763 156.406C210.685 153.266 210.006 149.75 209.724 145.859L208.318 145.719C202.506 153.031 195.099 156.688 186.099 156.688C179.537 156.688 174.263 154.883 170.279 151.273C166.295 147.617 164.303 142.484 164.303 135.875C164.303 130.953 165.381 126.922 167.537 123.781C169.74 120.641 172.834 117.992 176.818 115.836C183.099 112.414 191.888 110.703 203.185 110.703C204.685 110.703 206.701 110.75 209.232 110.844V100.156C209.232 96.7812 208.201 94.3438 206.138 92.8438C204.076 91.3438 200.842 90.5938 196.435 90.5938C190.013 90.5938 182.935 92 175.201 94.8125ZM209.232 134.469V119.703C207.967 119.609 206.115 119.562 203.678 119.562C199.553 119.562 195.756 119.914 192.287 120.617C187.131 121.648 183.123 123.289 180.263 125.539C177.451 127.742 176.045 130.93 176.045 135.102C176.045 142.602 180.123 146.352 188.279 146.352C192.498 146.352 196.435 145.227 200.092 142.977C203.092 141.102 206.138 138.266 209.232 134.469ZM250.5 53.75H262.594V95.8672L264.07 96.0078C266.273 91.1328 268.875 87.4297 271.875 84.8984C275.344 81.8047 279.539 80.2578 284.461 80.2578C293.039 80.2578 299.602 83.8672 304.148 91.0859C308.227 97.7891 310.266 106.437 310.266 117.031C310.266 129.922 307.195 139.859 301.055 146.844C295.195 153.406 286.523 156.688 275.039 156.688C268.758 156.688 260.578 155.938 250.5 154.438V53.75ZM261.891 111.828V145.016C266.203 145.906 270.586 146.352 275.039 146.352C282.633 146.352 288.328 144.125 292.125 139.672C296.062 135.078 298.031 128.258 298.031 119.211C298.031 111.008 297.141 104.68 295.359 100.227C293.016 94.3672 289.031 91.4375 283.406 91.4375C278.484 91.4375 274.148 93.5 270.398 97.625C267.773 100.437 264.938 105.172 261.891 111.828ZM343.588 126.594C343.588 130.438 343.635 133.672 343.729 136.297C343.823 138.875 343.94 141.148 344.08 143.117C344.221 145.086 344.432 146.867 344.713 148.461C345.041 150.055 345.44 151.812 345.908 153.734C343.94 154.25 341.971 154.719 340.002 155.141C338.033 155.609 336.065 156.008 334.096 156.336C333.158 153.289 332.479 150.5 332.057 147.969C331.682 145.438 331.494 142.953 331.494 140.516V53.8906H343.588V126.594ZM427.395 150.922C422.192 152.984 417.293 154.461 412.7 155.352C408.153 156.242 404.075 156.688 400.465 156.688C394.934 156.688 390.106 155.82 385.981 154.086C381.856 152.305 378.411 149.82 375.645 146.633C372.926 143.445 370.864 139.648 369.457 135.242C368.098 130.789 367.418 125.891 367.418 120.547C367.418 117.266 367.653 113.984 368.122 110.703C368.59 107.422 369.34 104.305 370.372 101.352C371.403 98.3516 372.739 95.5625 374.379 92.9844C376.067 90.4062 378.106 88.1797 380.497 86.3047C382.887 84.4297 385.676 82.9531 388.864 81.875C392.051 80.7969 395.684 80.2578 399.762 80.2578C410.215 80.2578 418.09 83.5391 423.387 90.1016C428.684 96.6172 431.332 105.969 431.332 118.156V122.023H379.864C379.864 125.961 380.286 129.453 381.129 132.5C381.973 135.5 383.262 138.055 384.997 140.164C386.778 142.227 389.004 143.797 391.676 144.875C394.395 145.953 397.606 146.492 401.309 146.492C403.372 146.492 405.411 146.352 407.426 146.07C409.489 145.742 411.481 145.344 413.403 144.875C415.325 144.359 417.153 143.797 418.887 143.188C420.668 142.578 422.332 141.992 423.879 141.43L427.395 150.922ZM419.168 112.32C418.793 104.727 416.965 99.1953 413.684 95.7266C410.45 92.2109 405.809 90.4531 399.762 90.4531C393.715 90.4531 389.098 92.2109 385.911 95.7266C382.77 99.1953 380.872 104.727 380.215 112.32H419.168Z" fill="black"/>
</g>
<rect x="467" width="469" height="216" rx="25" fill="#6FC3A4"/>
<path d="M572.98 53.8906H588.027L551.464 109.438V155H538.316V109.438L501.753 53.8906H516.8L544.855 98.6094L572.98 53.8906ZM664.943 150.922C659.74 152.984 654.842 154.461 650.248 155.352C645.701 156.242 641.623 156.688 638.013 156.688C632.482 156.688 627.654 155.82 623.529 154.086C619.404 152.305 615.959 149.82 613.193 146.633C610.474 143.445 608.412 139.648 607.006 135.242C605.646 130.789 604.967 125.891 604.967 120.547C604.967 117.266 605.201 113.984 605.67 110.703C606.138 107.422 606.888 104.305 607.92 101.352C608.951 98.3516 610.287 95.5625 611.927 92.9844C613.615 90.4062 615.654 88.1797 618.045 86.3047C620.435 84.4297 623.224 82.9531 626.412 81.875C629.599 80.7969 633.232 80.2578 637.31 80.2578C647.763 80.2578 655.638 83.5391 660.935 90.1016C666.232 96.6172 668.881 105.969 668.881 118.156V122.023H617.412C617.412 125.961 617.834 129.453 618.677 132.5C619.521 135.5 620.81 138.055 622.545 140.164C624.326 142.227 626.552 143.797 629.224 144.875C631.943 145.953 635.154 146.492 638.857 146.492C640.92 146.492 642.959 146.352 644.974 146.07C647.037 145.742 649.029 145.344 650.951 144.875C652.873 144.359 654.701 143.797 656.435 143.188C658.217 142.578 659.881 141.992 661.427 141.43L664.943 150.922ZM656.717 112.32C656.342 104.727 654.513 99.1953 651.232 95.7266C647.998 92.2109 643.357 90.4531 637.31 90.4531C631.263 90.4531 626.646 92.2109 623.459 95.7266C620.318 99.1953 618.42 104.727 617.763 112.32H656.717ZM697.773 94.8125L694.68 84.9688C702.555 81.8281 710.805 80.2578 719.43 80.2578C726.977 80.2578 732.742 81.5234 736.727 84.0547C741.273 86.9609 743.547 91.9062 743.547 98.8906V127.648C743.547 131.492 743.594 135.43 743.688 139.461C743.734 141.852 743.969 144.336 744.391 146.914C744.766 149.352 745.258 151.672 745.867 153.875L734.336 156.406C733.258 153.266 732.578 149.75 732.297 145.859L730.891 145.719C725.078 153.031 717.672 156.688 708.672 156.688C702.109 156.688 696.836 154.883 692.852 151.273C688.867 147.617 686.875 142.484 686.875 135.875C686.875 130.953 687.953 126.922 690.109 123.781C692.312 120.641 695.406 117.992 699.391 115.836C705.672 112.414 714.461 110.703 725.758 110.703C727.258 110.703 729.273 110.75 731.805 110.844V100.156C731.805 96.7812 730.773 94.3438 728.711 92.8438C726.648 91.3438 723.414 90.5938 719.008 90.5938C712.586 90.5938 705.508 92 697.773 94.8125ZM731.805 134.469V119.703C730.539 119.609 728.688 119.562 726.25 119.562C722.125 119.562 718.328 119.914 714.859 120.617C709.703 121.648 705.695 123.289 702.836 125.539C700.023 127.742 698.617 130.93 698.617 135.102C698.617 142.602 702.695 146.352 710.852 146.352C715.07 146.352 719.008 145.227 722.664 142.977C725.664 141.102 728.711 138.266 731.805 134.469ZM785.658 98.8203C787.112 95.9141 788.658 93.2891 790.299 90.9453C791.987 88.6016 793.838 86.6094 795.854 84.9687C797.682 83.375 799.698 82.2031 801.901 81.4531C804.104 80.6562 806.612 80.2578 809.424 80.2578C810.362 80.2578 811.44 80.3047 812.658 80.3984C813.924 80.4922 815.119 80.6562 816.244 80.8906C816.057 83.2344 815.823 85.4375 815.541 87.5C815.307 89.5625 814.979 91.6484 814.557 93.7578C812.213 93.3359 810.057 93.0312 808.088 92.8437C806.166 92.6562 804.338 92.7031 802.604 92.9844C800.541 93.3594 798.737 94.0625 797.19 95.0937C795.69 96.0781 794.283 97.4141 792.971 99.1016C791.705 100.742 790.463 102.734 789.244 105.078C788.026 107.375 786.69 110.023 785.237 113.023V155H773.143V109.93C773.143 106.977 773.096 104.375 773.002 102.125C772.955 99.875 772.815 97.7422 772.58 95.7266C772.393 93.6641 772.088 91.6484 771.666 89.6797C771.244 87.6641 770.682 85.4375 769.979 83C771.948 82.4844 773.869 82.0156 775.744 81.5937C777.666 81.1719 779.612 80.7734 781.58 80.3984C782.237 82.2734 782.752 83.9375 783.127 85.3906C783.549 86.8437 783.877 88.2734 784.112 89.6797C784.346 91.0391 784.51 92.4453 784.604 93.8984C784.744 95.3047 784.885 96.9453 785.026 98.8203H785.658ZM834.59 83.1406L846.262 80.5391C847.153 83.3516 847.786 86.0703 848.161 88.6953C848.348 89.9609 848.583 92.4687 848.864 96.2187H850.34C852.918 91.4844 856.106 87.7109 859.903 84.8984C864.075 81.8047 868.481 80.2578 873.122 80.2578C880.106 80.2578 885.426 81.9453 889.083 85.3203C892.223 88.1797 894.403 92.5625 895.622 98.4687C896.418 102.5 896.817 108.5 896.817 116.469V155H884.723V113.094C884.723 106.109 884.043 101.117 882.684 98.1172C880.668 93.6641 876.614 91.4375 870.52 91.4375C866.208 91.4375 861.989 93.5 857.864 97.625C855.098 100.391 852.145 104.445 849.004 109.789V155H836.911V110C836.911 103.672 836.747 98.2109 836.418 93.6172C836.231 90.7578 835.622 87.2656 834.59 83.1406Z" fill="white"/>
<defs>
<filter id="filter0_d" x="10.9622" y="52.3438" width="429.37" height="112.344" filterUnits="userSpaceOnUse" color-interpolation-filters="sRGB">
<feFlood flood-opacity="0" result="BackgroundImageFix"/>
<feColorMatrix in="SourceAlpha" type="matrix" values="0 0 0 0 0 0 0 0 0 0 0 0 0 0 0 0 0 0 127 0"/>
<feOffset dx="5" dy="4"/>
<feGaussianBlur stdDeviation="2"/>
<feColorMatrix type="matrix" values="0 0 0 0 0 0 0 0 0 0 0 0 0 0 0 0 0 0 0.25 0"/>
<feBlend mode="normal" in2="BackgroundImageFix" result="effect1_dropShadow"/>
<feBlend mode="normal" in="SourceGraphic" in2="effect1_dropShadow" result="shape"/>
</filter>
</defs>
</svg>
