<svg width="31" height="27" viewBox="0 0 31 27" fill="white" xmlns="http://www.w3.org/2000/svg">
<g filter="url(#filter0_d)">
<path d="M26.706 2.18952C25.871 2.55952 24.974 2.80952 24.031 2.92252C25.004 2.34031 25.7319 1.42398 26.079 0.344518C25.1648 0.887508 24.1643 1.26971 23.121 1.47452C22.4194 0.725384 21.4901 0.228845 20.4773 0.0619924C19.4646 -0.10486 18.4251 0.0673099 17.5202 0.551771C16.6154 1.03623 15.8958 1.80588 15.4732 2.74122C15.0505 3.67656 14.9485 4.72527 15.183 5.72452C13.3307 5.63151 11.5186 5.15007 9.86442 4.31142C8.21022 3.47278 6.75084 2.29568 5.581 0.856519C5.181 1.54652 4.951 2.34652 4.951 3.19852C4.95055 3.96551 5.13943 4.72076 5.50088 5.39725C5.86232 6.07374 6.38516 6.65056 7.023 7.07652C6.28328 7.05298 5.55987 6.8531 4.913 6.49352V6.55352C4.91293 7.62926 5.28503 8.6719 5.96618 9.50451C6.64733 10.3371 7.59557 10.9084 8.65 11.1215C7.96378 11.3072 7.24434 11.3346 6.546 11.2015C6.8435 12.1271 7.423 12.9365 8.20337 13.5164C8.98374 14.0963 9.92592 14.4177 10.898 14.4355C9.24783 15.7309 7.20989 16.4336 5.112 16.4305C4.74038 16.4306 4.36908 16.4089 4 16.3655C6.12948 17.7347 8.60834 18.4613 11.14 18.4585C19.71 18.4585 24.395 11.3605 24.395 5.20452C24.395 5.00452 24.39 4.80252 24.381 4.60252C25.2923 3.94349 26.0789 3.12741 26.704 2.19252L26.706 2.18952V2.18952Z" fill="black"/>
</g>
<defs>
<filter id="filter0_d" x="0" y="0" width="30.706" height="26.4585" filterUnits="userSpaceOnUse" color-interpolation-filters="sRGB">
<feFlood flood-opacity="0" result="BackgroundImageFix"/>
<feColorMatrix in="SourceAlpha" type="matrix" values="0 0 0 0 0 0 0 0 0 0 0 0 0 0 0 0 0 0 127 0"/>
<feOffset dy="4"/>
<feGaussianBlur stdDeviation="2"/>
<feColorMatrix type="matrix" values="0 0 0 0 0 0 0 0 0 0 0 0 0 0 0 0 0 0 0.25 0"/>
<feBlend mode="normal" in2="BackgroundImageFix" result="effect1_dropShadow"/>
<feBlend mode="normal" in="SourceGraphic" in2="effect1_dropShadow" result="shape"/>
</filter>
</defs>
</svg>
