<svg width="25" height="25" viewBox="0 0 25 25" fill="none" xmlns="http://www.w3.org/2000/svg">
<path fill-rule="evenodd" clip-rule="evenodd" d="M0 4C0 1.79086 1.79086 0 4 0H21C23.2091 0 25 1.79086 25 4V21C25 23.2091 23.2091 25 21 25H4C1.79086 25 0 23.2091 0 21V4ZM12.5 13.5625C15.1396 13.5625 17.2812 11.4209 17.2812 8.78125C17.2812 6.1416 15.1396 4 12.5 4C9.86035 4 7.71875 6.1416 7.71875 8.78125C7.71875 11.4209 9.86035 13.5625 12.5 13.5625ZM14.9205 14.625H16.75C19.0975 14.625 21 16.5275 21 18.875V19.4062C21 20.2861 20.2861 21 19.4062 21H5.59375C4.71387 21 4 20.2861 4 19.4062V18.875C4 16.5275 5.90254 14.625 8.25 14.625H10.0795C10.8199 14.9637 11.6367 15.1562 12.5 15.1562C13.3633 15.1562 14.1834 14.9637 14.9205 14.625Z" fill="white"/>
</svg>
