<svg width="30" height="30" viewBox="0 0 50 50" fill="none" xmlns="http://www.w3.org/2000/svg">
<path fill-rule="evenodd" clip-rule="evenodd" d="M8 0C3.58172 0 0 3.58172 0 8V42C0 46.4183 3.58172 50 8 50H42C46.4183 50 50 46.4183 50 42V8C50 3.58172 46.4183 0 42 0H8ZM34.7143 16.5C34.7143 21.1949 30.3656 25 25 25C19.6344 25 15.2857 21.1949 15.2857 16.5C15.2857 11.8051 19.6344 8 25 8C30.3656 8 34.7143 11.8051 34.7143 16.5ZM28.6429 39.875L32.2705 27.1648C37.6817 27.3906 42 31.2621 42 36.05V38.8125C42 40.5723 40.3683 42 38.3571 42H11.6429C9.6317 42 8 40.5723 8 38.8125V36.05C8 31.2621 12.3183 27.3906 17.7295 27.1648L21.3571 39.875L23.7857 30.8438L21.3571 27.125H28.6429L26.2143 30.8438L28.6429 39.875Z" fill="black"/>
</svg>
