<svg width="25" height="25" viewBox="0 0 25 25" fill="white" xmlns="http://www.w3.org/2000/svg">
<path fill-rule="evenodd" clip-rule="evenodd" d="M4 0C1.79086 0 0 1.79086 0 4V21C0 23.2091 1.79086 25 4 25H21C23.2091 25 25 23.2091 25 21V4C25 1.79086 23.2091 0 21 0H4ZM17.2812 8.78126C17.2812 11.4209 15.1396 13.5625 12.5 13.5625C9.86035 13.5625 7.71875 11.4209 7.71875 8.78126C7.71875 6.14161 9.86035 4.00001 12.5 4.00001C15.1396 4.00001 17.2812 6.14161 17.2812 8.78126ZM14.9205 14.625H16.75C19.0975 14.625 21 16.5275 21 18.875V19.4063C21 20.2861 20.2861 21 19.4062 21H5.59375C4.71387 21 4 20.2861 4 19.4063V18.875C4 16.5275 5.90254 14.625 8.25 14.625H10.0795C10.8199 14.9637 11.6367 15.1563 12.5 15.1563C13.3633 15.1563 14.1834 14.9637 14.9205 14.625Z" fill="black"/>
</svg>
