<svg width="40" height="40" viewBox="0 0 40 40" fill="none" xmlns="http://www.w3.org/2000/svg">
<rect width="40" height="40" rx="5" fill="white"/>
<g clip-path="url(#clip0)">
<path d="M20 20C25.2078 20 29.4286 16.1949 29.4286 11.5C29.4286 6.80508 25.2078 3 20 3C14.7922 3 10.5714 6.80508 10.5714 11.5C10.5714 16.1949 14.7922 20 20 20ZM27.0567 22.1648L23.5357 34.875L21.1786 25.8438L23.5357 22.125H16.4643L18.8214 25.8438L16.4643 34.875L12.9433 22.1648C7.69129 22.3906 3.5 26.2621 3.5 31.05V33.8125C3.5 35.5723 5.08371 37 7.03571 37H32.9643C34.9163 37 36.5 35.5723 36.5 33.8125V31.05C36.5 26.2621 32.3087 22.3906 27.0567 22.1648Z" fill="black"/>
<path d="M20 20C25.2078 20 29.4286 16.1949 29.4286 11.5C29.4286 6.80508 25.2078 3 20 3C14.7922 3 10.5714 6.80508 10.5714 11.5C10.5714 16.1949 14.7922 20 20 20ZM27.0567 22.1648L23.5357 34.875L21.1786 25.8438L23.5357 22.125H16.4643L18.8214 25.8438L16.4643 34.875L12.9433 22.1648C7.69129 22.3906 3.5 26.2621 3.5 31.05V33.8125C3.5 35.5723 5.08371 37 7.03571 37H32.9643C34.9163 37 36.5 35.5723 36.5 33.8125V31.05C36.5 26.2621 32.3087 22.3906 27.0567 22.1648Z" fill="black"/>
</g>
<defs>
<clipPath id="clip0">
<rect width="33" height="34" fill="white" transform="translate(3.5 3)"/>
</clipPath>
</defs>
</svg>
